<svg width="100" height="100" viewBox="0 0 100 100" fill="none" xmlns="http://www.w3.org/2000/svg">
<path fill-rule="evenodd" clip-rule="evenodd" d="M45.3125 3.125C21.0632 3.125 0 18.5261 0 39.0625L0.000626406 39.125C0.0870728 43.4419 1.05405 47.6956 2.8423 51.6256C4.43522 55.1263 6.64991 58.3044 9.375 61.0075V81.25C9.375 82.3331 9.93581 83.3391 10.8572 83.9084C11.7785 84.4778 12.929 84.5294 13.8977 84.045L34.2116 73.8866C37.8641 74.6225 41.5812 74.9956 45.3088 75H45.3125C69.5619 75 90.625 59.5991 90.625 39.0625C90.625 18.5261 69.5619 3.125 45.3125 3.125ZM8.53106 49.0372C7.09953 45.8913 6.32347 42.4869 6.25003 39.0312C6.27209 23.3304 22.9766 9.375 45.3125 9.375C67.6631 9.375 84.375 23.3489 84.375 39.0625C84.375 54.7753 67.665 68.7484 45.3162 68.75C41.6675 68.7456 38.0303 68.3441 34.4688 67.5525C33.7678 67.3969 33.035 67.4872 32.3928 67.8081L15.625 76.1934V59.6656C15.625 58.7841 15.2526 57.9434 14.5997 57.3512C12.032 55.0219 9.96691 52.1925 8.53106 49.0372Z" fill="#002C77"/>
<path d="M97.228 51.6353C96.4052 50.1181 94.5083 49.5553 92.9911 50.3781C91.4743 51.2009 90.9111 53.0978 91.734 54.615C93.0402 57.0231 93.7324 59.7159 93.7496 62.4553C93.6471 65.3941 92.8711 68.27 91.4811 70.8619C90.0827 73.47 88.1002 75.7194 85.6886 77.4347C84.8643 78.0209 84.3749 78.97 84.3749 79.9813V88.2313L76.3761 83.4328C75.654 82.9994 74.7871 82.8759 73.9724 83.0906C70.7377 83.9428 67.4068 84.3747 64.0621 84.375L64.0224 84.3753C56.9596 84.4653 50.0277 82.4653 44.098 78.6269C42.6493 77.6888 40.7146 78.1031 39.7765 79.5519C38.8386 81.0006 39.2527 82.9353 40.7015 83.8734C47.6602 88.3781 55.794 90.7269 64.0824 90.625C67.5121 90.6231 70.929 90.2306 74.2671 89.4559L85.8924 96.4297C86.8577 97.0091 88.0599 97.0241 89.0396 96.4694C90.0193 95.9147 90.6249 94.8759 90.6249 93.75V81.5278C93.2311 79.4066 95.3958 76.7866 96.9893 73.8159C98.843 70.3591 99.873 66.5206 99.9983 62.6C99.9996 62.5634 99.9999 62.5269 99.9999 62.4906C99.9883 58.6984 99.0358 54.9684 97.228 51.6353Z" fill="#002C77"/>
</svg>
