<svg width="100" height="100" viewBox="0 0 100 100" fill="none" xmlns="http://www.w3.org/2000/svg">
<path d="M50 40.625C51.7259 40.625 53.125 42.0241 53.125 43.75V50H59.375C61.1009 50 62.5 51.3991 62.5 53.125C62.5 54.8509 61.1009 56.25 59.375 56.25H53.125V62.5C53.125 64.2259 51.7259 65.625 50 65.625C48.2741 65.625 46.875 64.2259 46.875 62.5V56.25H40.625C38.8991 56.25 37.5 54.8509 37.5 53.125C37.5 51.3991 38.8991 50 40.625 50H46.875V43.75C46.875 42.0241 48.2741 40.625 50 40.625Z" fill="#002C77"/>
<path fill-rule="evenodd" clip-rule="evenodd" d="M21.875 15.625C21.875 13.8991 23.2741 12.5 25 12.5H31.25C31.25 10.7741 32.6491 9.375 34.375 9.375H65.625C67.3509 9.375 68.75 10.7741 68.75 12.5H75C76.7259 12.5 78.125 13.8991 78.125 15.625V84.375C78.125 86.1009 76.7259 87.5 75 87.5H25C23.2741 87.5 21.875 86.1009 21.875 84.375V15.625ZM68.75 18.75V25C68.75 26.7259 67.3509 28.125 65.625 28.125H55.3125C54.1288 28.125 53.0469 27.4563 52.5175 26.3975C52.1641 25.6907 51.1313 25 50 25C48.8687 25 47.8359 25.6907 47.4825 26.3975C46.9531 27.4563 45.8713 28.125 44.6875 28.125H34.375C32.6491 28.125 31.25 26.7259 31.25 25V18.75H28.125V81.25H71.875V18.75H68.75ZM62.5 15.625V21.875H56.9444C55.2053 19.8873 52.5716 18.75 50 18.75C47.4284 18.75 44.7947 19.8873 43.0556 21.875H37.5V15.625H62.5Z" fill="#002C77"/>
<path fill-rule="evenodd" clip-rule="evenodd" d="M12.5 0C10.7741 0 9.375 1.39911 9.375 3.125V96.875C9.375 98.6009 10.7741 100 12.5 100H87.5C89.2259 100 90.625 98.6009 90.625 96.875V3.125C90.625 1.39911 89.2259 0 87.5 0H12.5ZM15.625 93.75V6.25H84.375V93.75H15.625Z" fill="#002C77"/>
</svg>
