<svg width="100" height="100" viewBox="0 0 100 100" fill="none" xmlns="http://www.w3.org/2000/svg">
<path d="M77.6786 61.6936V12.5H18.75V85.0807H61.3095" stroke="#CFCFCF" stroke-width="5" stroke-miterlimit="10" stroke-linecap="round" stroke-linejoin="round"/>
<path d="M50.6694 31.8548H65.4016" stroke="#CFCFCF" stroke-width="5" stroke-miterlimit="10" stroke-linecap="round" stroke-linejoin="round"/>
<path d="M31.0269 31.8548L33.4822 34.2742L40.8483 27.0161" stroke="#CFCFCF" stroke-width="5" stroke-miterlimit="10" stroke-linecap="round" stroke-linejoin="round"/>
<path d="M50.6694 48.7903H65.4016" stroke="#CFCFCF" stroke-width="5" stroke-miterlimit="10" stroke-linecap="round" stroke-linejoin="round"/>
<path d="M31.0269 48.7903L33.4822 51.2097L40.8483 43.9516" stroke="#CFCFCF" stroke-width="5" stroke-miterlimit="10" stroke-linecap="round" stroke-linejoin="round"/>
<path d="M50.6694 65.7258H65.4016" stroke="#CFCFCF" stroke-width="5" stroke-miterlimit="10" stroke-linecap="round" stroke-linejoin="round"/>
<path d="M31.0269 65.7258H35.9376" stroke="#CFCFCF" stroke-width="5" stroke-miterlimit="10" stroke-linecap="round" stroke-linejoin="round"/>
<path d="M81.8185 72.5379C79.2178 70.8157 75.6796 71.0996 73.3896 73.3896C71.0996 75.6796 70.8157 79.2178 72.5379 81.8185L81.8185 72.5379ZM83.7121 74.4315L74.4315 83.7121C77.0322 85.4343 80.5704 85.1504 82.8604 82.8604C85.1504 80.5704 85.4343 77.0322 83.7121 74.4315ZM71.496 71.496C75.1574 67.8347 81.0926 67.8347 84.754 71.496C88.4153 75.1574 88.4153 81.0926 84.754 84.754C81.0926 88.4153 75.1574 88.4153 71.496 84.754C67.8347 81.0926 67.8347 75.1574 71.496 71.496Z" fill="#CFCFCF"/>
</svg>
