<svg width="100" height="101" viewBox="0 0 100 101" fill="none" xmlns="http://www.w3.org/2000/svg">
<path fill-rule="evenodd" clip-rule="evenodd" d="M87.5 28.125V68.75H81.25V28.125H68.75C63.5723 28.125 59.375 23.9277 59.375 18.75V6.25H25C21.5482 6.25 18.75 9.04822 18.75 12.5V68.75H12.5V12.5C12.5 5.59644 18.0964 0 25 0H59.375L87.5 28.125ZM49.1309 92.7576C49.1797 93.7464 49.4116 94.6802 49.8267 95.5591C50.2417 96.438 50.846 97.2193 51.6394 97.9029C52.4451 98.5742 53.4399 99.0992 54.624 99.4776C55.8081 99.856 57.1936 100.045 58.7805 100.045C60.8923 100.045 62.6807 99.7156 64.1455 99.0564C65.6226 98.3972 66.7456 97.4817 67.5147 96.3098C68.2959 95.1258 68.6865 93.7586 68.6865 92.2083C68.6865 90.8045 68.4058 89.6387 67.8442 88.711C67.2827 87.7832 66.5015 87.0386 65.5005 86.4771C64.4995 85.9034 63.3215 85.4639 61.9666 85.1587L58.0847 84.2615C56.9983 84.0174 56.156 83.6512 55.5579 83.1629C54.9597 82.6746 54.6606 82.052 54.6606 81.2952C54.6606 80.3186 55.0452 79.5191 55.8142 78.8965C56.5955 78.2617 57.6636 77.9444 59.0186 77.9444C59.9097 77.9444 60.6787 78.0847 61.3257 78.3655C61.9727 78.6463 62.4854 79.0247 62.8638 79.5008C63.2544 79.9768 63.5046 80.5139 63.6145 81.1121H68.302C68.2166 79.8181 67.8015 78.6402 67.0569 77.5782C66.3245 76.5039 65.2808 75.6494 63.9258 75.0147C62.583 74.3799 60.9595 74.0625 59.0552 74.0625C57.2241 74.0625 55.6067 74.3738 54.2029 74.9964C52.7991 75.6189 51.7004 76.4978 50.907 77.6331C50.1135 78.7683 49.7168 80.0989 49.7168 81.6248C49.7168 82.8821 49.9731 83.9746 50.4858 84.9024C50.9985 85.8301 51.731 86.593 52.6831 87.1912C53.6353 87.7893 54.7583 88.2349 56.0522 88.5279L59.9158 89.4251C61.2097 89.7303 62.1741 90.1331 62.8088 90.6336C63.4436 91.1219 63.761 91.7993 63.761 92.666C63.761 93.3496 63.584 93.9539 63.23 94.4788C62.876 94.9915 62.345 95.3943 61.637 95.6873C60.9412 95.9803 60.0806 96.1267 59.0552 96.1267C58.3228 96.1267 57.6575 96.0413 57.0593 95.8704C56.4612 95.6995 55.9424 95.4615 55.5029 95.1563C55.0635 94.8511 54.7095 94.4971 54.4409 94.0943C54.1724 93.6792 53.9954 93.2337 53.9099 92.7576H49.1309ZM25.8362 74.5752H31.4209L23.4558 87.118L31.2927 99.5691H25.6165L20.3064 90.7251H20.0867L14.7583 99.5691H9.375L17.1204 86.9715L9.44824 74.5752H15.271L20.4712 83.5657H20.6909L25.8362 74.5752ZM37.8589 95.3577H48.4607V99.5691H32.915V74.5752H37.8589V95.3577ZM85.5798 74.5752H91.1646L83.1995 87.118L91.0364 99.5691H85.3601L80.05 90.7251H79.8303L74.502 99.5691H69.1187L76.864 86.9715L69.1919 74.5752H75.0146L80.2148 83.5657H80.4346L85.5798 74.5752Z" fill="#002C77"/>
</svg>
