<svg width="100" height="100" viewBox="0 0 100 100" fill="none" xmlns="http://www.w3.org/2000/svg">
<g clip-path="url(#clip0_238_210)">
<path d="M17.7281 25.8125C17.4244 25.5363 17.0693 25.3226 16.683 25.1837C16.2968 25.0448 15.8869 24.9832 15.4769 25.0027C15.0669 25.0221 14.6647 25.1221 14.2933 25.297C13.9219 25.4719 13.5886 25.7182 13.3125 26.0219C12.7547 26.6352 12.4634 27.445 12.5026 28.2731C12.5221 28.6831 12.6221 29.0853 12.797 29.4566C12.9718 29.828 13.2181 30.1613 13.5218 30.4375L47.8968 61.6875C48.4722 62.211 49.2221 62.5011 50 62.5011C50.7778 62.5011 51.5277 62.211 52.1031 61.6875L86.4781 30.4375C86.7818 30.1613 87.0281 29.828 87.2029 29.4566C87.3778 29.0853 87.4778 28.6831 87.4973 28.2731C87.5167 27.863 87.4552 27.4532 87.3163 27.0669C87.1773 26.6807 86.9636 26.3256 86.6874 26.0219C86.4113 25.7182 86.078 25.4719 85.7066 25.297C85.3352 25.1221 84.933 25.0221 84.523 25.0027C84.113 24.9832 83.7031 25.0448 83.3169 25.1837C82.9306 25.3226 82.5755 25.5363 82.2718 25.8125L50 55.15L17.7281 25.8125ZM30.0781 53.8125C30.7247 54.3303 31.1392 55.0836 31.2306 55.9069C31.322 56.7302 31.0828 57.5561 30.5656 58.2031L18.0656 73.8281C17.5476 74.4754 16.7937 74.8904 15.9697 74.9819C15.1457 75.0733 14.3191 74.8336 13.6718 74.3156C13.0245 73.7976 12.6095 73.0437 12.5181 72.2197C12.4267 71.3957 12.6663 70.5692 13.1843 69.9219L25.6843 54.2969C25.9407 53.9763 26.2578 53.7093 26.6174 53.5113C26.977 53.3133 27.3722 53.188 27.7802 53.1428C28.1882 53.0975 28.6012 53.1331 28.9955 53.2474C29.3897 53.3618 29.7576 53.5559 30.0781 53.8125ZM74.3125 54.2969C74.061 53.9622 73.7449 53.6814 73.3829 53.4713C73.0209 53.2611 72.6204 53.1258 72.2051 53.0734C71.7898 53.021 71.3682 53.0526 70.9653 53.1663C70.5624 53.28 70.1865 53.4734 69.8599 53.7352C69.5332 53.9969 69.2624 54.3216 69.0637 54.69C68.8649 55.0584 68.7422 55.463 68.7028 55.8797C68.6634 56.2965 68.7081 56.7169 68.8343 57.116C68.9605 57.5151 69.1656 57.8848 69.4374 58.2031L81.9374 73.8281C82.1889 74.1628 82.505 74.4436 82.867 74.6537C83.229 74.8639 83.6295 74.9992 84.0448 75.0516C84.4601 75.104 84.8817 75.0724 85.2846 74.9587C85.6875 74.845 86.0634 74.6516 86.39 74.3898C86.7167 74.1281 86.9874 73.8034 87.1862 73.435C87.385 73.0666 87.5077 72.662 87.5471 72.2453C87.5865 71.8285 87.5418 71.4081 87.4156 71.009C87.2894 70.6099 87.0843 70.2402 86.8124 69.9219L74.3125 54.2969Z" fill="#002C77"/>
<path fill-rule="evenodd" clip-rule="evenodd" d="M12.5 9.375C9.18479 9.375 6.00537 10.692 3.66117 13.0362C1.31696 15.3804 0 18.5598 0 21.875L0 78.125C0 81.4402 1.31696 84.6196 3.66117 86.9638C6.00537 89.308 9.18479 90.625 12.5 90.625H87.5C90.8152 90.625 93.9946 89.308 96.3388 86.9638C98.683 84.6196 100 81.4402 100 78.125V21.875C100 18.5598 98.683 15.3804 96.3388 13.0362C93.9946 10.692 90.8152 9.375 87.5 9.375H12.5ZM6.25 21.875C6.25 20.2174 6.90848 18.6277 8.08058 17.4556C9.25268 16.2835 10.8424 15.625 12.5 15.625H87.5C89.1576 15.625 90.7473 16.2835 91.9194 17.4556C93.0915 18.6277 93.75 20.2174 93.75 21.875V78.125C93.75 79.7826 93.0915 81.3723 91.9194 82.5444C90.7473 83.7165 89.1576 84.375 87.5 84.375H12.5C10.8424 84.375 9.25268 83.7165 8.08058 82.5444C6.90848 81.3723 6.25 79.7826 6.25 78.125V21.875Z" fill="#002C77"/>
</g>
<defs>
<clipPath id="clip0_238_210">
<rect width="100" height="100" fill="white"/>
</clipPath>
</defs>
</svg>
