<svg width="100" height="100" viewBox="0 0 100 100" fill="none" xmlns="http://www.w3.org/2000/svg">
<path d="M83.125 73.4375L66.875 70.3125C62.5 69.375 59.375 65.625 59.375 60.9375V56.5625C66.875 52.1875 71.875 43.125 71.875 34.375V22.1875C71.875 16.25 66.875 11.25 60.9375 11.25H59.6875L56.875 5.62498C56.25 4.37498 54.375 3.74998 53.125 4.06248L35.9375 10.9375C31.5625 12.5 28.125 17.5 28.125 22.1875V34.375C28.125 43.125 33.125 52.1875 40.625 56.5625V60.9375C40.625 65.3125 37.5 69.375 33.125 70L16.875 73.125C12.5 74.375 9.375 78.125 9.375 82.8125V96.875H90.625V82.8125C90.625 78.125 87.5 74.375 83.125 73.4375Z" stroke="#002C77" stroke-width="6" stroke-miterlimit="10" stroke-linecap="round" stroke-linejoin="round"/>
</svg>
