<svg width="100" height="100" viewBox="0 0 100 100" fill="none" xmlns="http://www.w3.org/2000/svg">
<path d="M27.6784 8.92857C24.6 8.92857 21.6477 10.1515 19.4709 12.3282C17.2942 14.505 16.0713 17.4573 16.0713 20.5357V79.4643C16.0713 82.5427 17.2942 85.495 19.4709 87.6718C21.6477 89.8485 24.6 91.0714 27.6784 91.0714H81.2499C81.9603 91.0714 82.6416 90.7892 83.1439 90.2869C83.6462 89.7846 83.9284 89.1033 83.9284 88.3929C83.9284 87.6825 83.6462 87.0012 83.1439 86.4988C82.6416 85.9965 81.9603 85.7143 81.2499 85.7143H27.6784C26.1756 85.7142 24.723 85.1727 23.587 84.1888C22.4509 83.2049 21.7074 81.8446 21.4927 80.3571H81.2499C81.9603 80.3571 82.6416 80.0749 83.1439 79.5726C83.6462 79.0703 83.9284 78.389 83.9284 77.6786V20.5357C83.9284 17.4573 82.7055 14.505 80.5288 12.3282C78.352 10.1515 75.3997 8.92857 72.3213 8.92857H27.6784ZM78.5713 20.5357V75H21.4284V20.5357C21.4284 17.0857 24.2284 14.2857 27.6784 14.2857H72.3213C75.7713 14.2857 78.5713 17.0857 78.5713 20.5357Z" fill="#CFCFCF"/>
<path d="M50 45.0893C51.8648 45.0893 53.6532 44.2956 54.9718 42.8828C56.2905 41.47 57.0313 39.5538 57.0313 37.5558C57.0313 35.5578 56.2905 33.6416 54.9718 32.2288C53.6532 30.816 51.8648 30.0223 50 30.0223C48.1352 30.0223 46.3468 30.816 45.0282 32.2288C43.7095 33.6416 42.9688 35.5578 42.9688 37.5558C42.9688 39.5538 43.7095 41.47 45.0282 42.8828C46.3468 44.2956 48.1352 45.0893 50 45.0893ZM54.6875 37.5558C54.6875 38.8878 54.1936 40.1653 53.3146 41.1071C52.4355 42.049 51.2432 42.5781 50 42.5781C48.7568 42.5781 47.5645 42.049 46.6854 41.1071C45.8064 40.1653 45.3125 38.8878 45.3125 37.5558C45.3125 36.2238 45.8064 34.9464 46.6854 34.0045C47.5645 33.0626 48.7568 32.5335 50 32.5335C51.2432 32.5335 52.4355 33.0626 53.3146 34.0045C54.1936 34.9464 54.6875 36.2238 54.6875 37.5558ZM64.0625 57.6451C64.0625 60.1563 61.7188 60.1563 61.7188 60.1563H38.2813C38.2813 60.1563 35.9375 60.1563 35.9375 57.6451C35.9375 55.1339 38.2813 47.6004 50 47.6004C61.7188 47.6004 64.0625 55.1339 64.0625 57.6451ZM61.7188 57.635C61.7164 57.0173 61.3578 55.159 59.7688 53.4565C58.2406 51.8192 55.3648 50.1116 50 50.1116C44.6328 50.1116 41.7594 51.8192 40.2313 53.4565C38.6422 55.159 38.2859 57.0173 38.2813 57.635H61.7188Z" fill="#CFCFCF"/>
</svg>
