<svg width="258" height="258" viewBox="0 0 258 258" fill="none" xmlns="http://www.w3.org/2000/svg">
<g clip-path="url(#clip0_292_2)" filter="url(#filter0_d_292_2)">
<path d="M191.5 218.75V70.3125L121.188 0H35.25C26.962 0 19.0134 3.2924 13.1529 9.15291C7.2924 15.0134 4 22.962 4 31.25V218.75C4 227.038 7.2924 234.987 13.1529 240.847C19.0134 246.708 26.962 250 35.25 250H160.25C168.538 250 176.487 246.708 182.347 240.847C188.208 234.987 191.5 227.038 191.5 218.75ZM121.188 46.875C121.188 53.091 123.657 59.0524 128.052 63.4478C132.448 67.8432 138.409 70.3125 144.625 70.3125H175.875V218.75C175.875 222.894 174.229 226.868 171.299 229.799C168.368 232.729 164.394 234.375 160.25 234.375H35.25C31.106 234.375 27.1317 232.729 24.2015 229.799C21.2712 226.868 19.625 222.894 19.625 218.75V31.25C19.625 27.106 21.2712 23.1317 24.2015 20.2015C27.1317 17.2712 31.106 15.625 35.25 15.625H121.188V46.875Z" fill="#002C77"/>
<path d="M245.685 0.0115934C247.883 0.0149867 249.99 0.878376 251.544 2.41254C253.098 3.94671 253.973 6.02652 253.977 8.19615L253.988 32.3905L207.012 32.3905L207 8.19616C207 6.0225 207.875 3.93796 209.432 2.40096C210.989 0.86395 213.101 0.000330638 215.303 2.41846e-06L245.673 0L245.685 0.0115934ZM253.977 48.7712L207 48.7712L207.012 206.747C207.012 208.023 207.313 209.282 207.893 210.422L226.789 247.74C227.134 248.419 227.664 248.99 228.32 249.389C228.975 249.789 229.73 250 230.5 250C231.27 250 232.025 249.789 232.68 249.389C233.336 248.99 233.866 248.419 234.211 247.74L253.107 210.422C253.689 209.286 253.995 208.032 254 206.759L253.977 48.7712Z" fill="#002C77"/>
<path d="M97.5 132.541C102.183 132.541 106.674 130.68 109.985 127.369C113.296 124.058 115.156 119.567 115.156 114.884C115.156 110.202 113.296 105.711 109.985 102.399C106.674 99.0882 102.183 97.228 97.5 97.228C92.8173 97.228 88.3264 99.0882 85.0152 102.399C81.704 105.711 79.8438 110.202 79.8438 114.884C79.8438 119.567 81.704 124.058 85.0152 127.369C88.3264 130.68 92.8173 132.541 97.5 132.541V132.541Z" fill="#002C77"/>
<path d="M55.125 82.75C51.3788 82.75 47.7861 84.2382 45.1371 86.8871C42.4882 89.5361 41 93.1288 41 96.875V153.375C41 157.121 42.4882 160.714 45.1371 163.363C47.7861 166.012 51.3788 167.5 55.125 167.5H139.875C143.621 167.5 147.214 166.012 149.863 163.363C152.512 160.714 154 157.121 154 153.375V96.875C154 93.1288 152.512 89.5361 149.863 86.8871C147.214 84.2382 143.621 82.75 139.875 82.75H55.125ZM131.386 160.438C128.187 151.468 118.956 139.25 97.5 139.25C76.0512 139.25 66.8134 151.468 63.6141 160.438H55.125C53.2519 160.438 51.4555 159.693 50.1311 158.369C48.8066 157.044 48.0625 155.248 48.0625 153.375V96.875C48.0625 95.0019 48.8066 93.2055 50.1311 91.8811C51.4555 90.5566 53.2519 89.8125 55.125 89.8125H139.875C141.748 89.8125 143.544 90.5566 144.869 91.8811C146.193 93.2055 146.938 95.0019 146.938 96.875V153.375C146.938 155.248 146.193 157.044 144.869 158.369C143.544 159.693 141.748 160.438 139.875 160.438H131.386Z" fill="#002C77"/>
</g>
<defs>
<filter id="filter0_d_292_2" x="0" y="0" width="258" height="258" filterUnits="userSpaceOnUse" color-interpolation-filters="sRGB">
<feFlood flood-opacity="0" result="BackgroundImageFix"/>
<feColorMatrix in="SourceAlpha" type="matrix" values="0 0 0 0 0 0 0 0 0 0 0 0 0 0 0 0 0 0 127 0" result="hardAlpha"/>
<feOffset dy="4"/>
<feGaussianBlur stdDeviation="2"/>
<feComposite in2="hardAlpha" operator="out"/>
<feColorMatrix type="matrix" values="0 0 0 0 0 0 0 0 0 0 0 0 0 0 0 0 0 0 0.25 0"/>
<feBlend mode="normal" in2="BackgroundImageFix" result="effect1_dropShadow_292_2"/>
<feBlend mode="normal" in="SourceGraphic" in2="effect1_dropShadow_292_2" result="shape"/>
</filter>
<clipPath id="clip0_292_2">
<rect width="250" height="250" fill="white" transform="translate(4)"/>
</clipPath>
</defs>
</svg>
