<svg width="288" height="44" viewBox="0 0 288 44" fill="none" xmlns="http://www.w3.org/2000/svg">
<path d="M0 8H32" stroke="#6680AD" stroke-width="2"/>
<rect x="32" width="16" height="16" rx="8" fill="#6680AD"/>
<path d="M36.5153 7.73498L36.5152 7.73484C36.4448 7.66451 36.3495 7.625 36.25 7.625C36.1505 7.625 36.0552 7.66451 35.9848 7.73484C35.9145 7.80516 35.875 7.90054 35.875 8C35.875 8.00601 35.8751 8.01201 35.8754 8.01801C35.8799 8.11113 35.9189 8.19924 35.9848 8.26516L35.985 8.26531L38.6098 10.8902C38.7563 11.0366 38.9937 11.0366 39.1402 10.8902L44.3902 5.64017C44.4605 5.56984 44.5 5.47446 44.5 5.375C44.5 5.27554 44.4605 5.18016 44.3902 5.10984C44.3198 5.03951 44.2245 5 44.125 5C44.0255 5 43.9302 5.03951 43.8598 5.10984L38.875 10.0947L36.5153 7.73498Z" fill="white"/>
<path d="M48 8L96 8" stroke="#EEF1F6" stroke-width="2"/>
<path d="M4 26.69C3.64667 26.69 3.33 26.7533 3.05 26.88C2.77 27 2.53 27.18 2.33 27.42C2.13667 27.66 1.98667 27.95 1.88 28.29C1.78 28.63 1.73 29.0133 1.73 29.44C1.73 30 1.81333 30.4867 1.98 30.9C2.14667 31.3067 2.39667 31.62 2.73 31.84C3.06333 32.06 3.48333 32.17 3.99 32.17C4.29667 32.17 4.59 32.1433 4.87 32.09C5.15667 32.03 5.44667 31.9533 5.74 31.86V32.79C5.46 32.8967 5.17333 32.9733 4.88 33.02C4.58667 33.0733 4.24667 33.1 3.86 33.1C3.13333 33.1 2.52667 32.95 2.04 32.65C1.56 32.35 1.2 31.9233 0.96 31.37C0.72 30.8167 0.6 30.17 0.6 29.43C0.6 28.89 0.673333 28.3967 0.82 27.95C0.973333 27.4967 1.19333 27.1067 1.48 26.78C1.76667 26.4533 2.12 26.2033 2.54 26.03C2.96667 25.85 3.45667 25.76 4.01 25.76C4.37 25.76 4.72333 25.8 5.07 25.88C5.41667 25.9533 5.73 26.06 6.01 26.2L5.61 27.1C5.37667 26.9933 5.12333 26.9 4.85 26.82C4.58333 26.7333 4.3 26.69 4 26.69ZM9.21813 33H8.15813V25.4H9.21813V33ZM13.9727 27.51C14.6527 27.51 15.1594 27.66 15.4927 27.96C15.8261 28.2533 15.9927 28.7167 15.9927 29.35V33H15.2427L15.0327 32.25H14.9927C14.8394 32.4433 14.6794 32.6033 14.5127 32.73C14.3527 32.8567 14.1661 32.95 13.9527 33.01C13.7461 33.07 13.4927 33.1 13.1927 33.1C12.8727 33.1 12.5827 33.0433 12.3227 32.93C12.0694 32.81 11.8694 32.63 11.7227 32.39C11.5761 32.1433 11.5027 31.8367 11.5027 31.47C11.5027 30.9233 11.7094 30.5067 12.1227 30.22C12.5427 29.9333 13.1794 29.7767 14.0327 29.75L14.9527 29.72V29.42C14.9527 29.02 14.8627 28.74 14.6827 28.58C14.5027 28.42 14.2494 28.34 13.9227 28.34C13.6427 28.34 13.3761 28.38 13.1227 28.46C12.8694 28.54 12.6294 28.6367 12.4027 28.75L12.0627 27.98C12.3161 27.8467 12.6061 27.7367 12.9327 27.65C13.2661 27.5567 13.6127 27.51 13.9727 27.51ZM14.2227 30.43C13.6094 30.4567 13.1827 30.56 12.9427 30.74C12.7094 30.9133 12.5927 31.16 12.5927 31.48C12.5927 31.76 12.6761 31.9633 12.8427 32.09C13.0161 32.2167 13.2327 32.28 13.4927 32.28C13.9127 32.28 14.2594 32.1633 14.5327 31.93C14.8061 31.6967 14.9427 31.3467 14.9427 30.88V30.41L14.2227 30.43ZM19.6849 27.61V33H18.6249V27.61H19.6849ZM19.1649 25.56C19.3249 25.56 19.4649 25.6067 19.5849 25.7C19.7049 25.7933 19.7649 25.95 19.7649 26.17C19.7649 26.3833 19.7049 26.54 19.5849 26.64C19.4649 26.7333 19.3249 26.78 19.1649 26.78C18.9916 26.78 18.8449 26.7333 18.7249 26.64C18.6116 26.54 18.5549 26.3833 18.5549 26.17C18.5549 25.95 18.6116 25.7933 18.7249 25.7C18.8449 25.6067 18.9916 25.56 19.1649 25.56ZM28.3895 27.51C28.9962 27.51 29.4529 27.6667 29.7595 27.98C30.0662 28.2933 30.2195 28.7967 30.2195 29.49V33H29.1595V29.63C29.1595 29.2167 29.0762 28.9067 28.9095 28.7C28.7495 28.4867 28.4962 28.38 28.1495 28.38C27.6695 28.38 27.3262 28.53 27.1195 28.83C26.9129 29.1233 26.8095 29.55 26.8095 30.11V33H25.7595V29.63C25.7595 29.3567 25.7195 29.1267 25.6395 28.94C25.5662 28.7533 25.4562 28.6133 25.3095 28.52C25.1629 28.4267 24.9729 28.38 24.7395 28.38C24.4062 28.38 24.1429 28.4533 23.9495 28.6C23.7562 28.7467 23.6162 28.9633 23.5295 29.25C23.4495 29.53 23.4095 29.8733 23.4095 30.28V33H22.3495V27.61H23.1895L23.3395 28.33H23.3995C23.5129 28.1433 23.6495 27.99 23.8095 27.87C23.9762 27.75 24.1595 27.66 24.3595 27.6C24.5595 27.54 24.7662 27.51 24.9795 27.51C25.3862 27.51 25.7295 27.5833 26.0095 27.73C26.2895 27.87 26.4929 28.0867 26.6195 28.38H26.6995C26.8729 28.08 27.1129 27.86 27.4195 27.72C27.7262 27.58 28.0495 27.51 28.3895 27.51ZM36.4217 31.48C36.4217 31.8333 36.3351 32.13 36.1617 32.37C35.9884 32.61 35.7384 32.7933 35.4117 32.92C35.0851 33.04 34.6917 33.1 34.2317 33.1C33.8517 33.1 33.5251 33.07 33.2517 33.01C32.9851 32.9567 32.7384 32.8767 32.5117 32.77V31.84C32.7517 31.9533 33.0284 32.0567 33.3417 32.15C33.6551 32.2367 33.9617 32.28 34.2617 32.28C34.6617 32.28 34.9484 32.2167 35.1217 32.09C35.3017 31.9633 35.3917 31.7933 35.3917 31.58C35.3917 31.46 35.3584 31.3533 35.2917 31.26C35.2251 31.16 35.0984 31.06 34.9117 30.96C34.7317 30.8533 34.4651 30.7333 34.1117 30.6C33.7717 30.46 33.4817 30.3233 33.2417 30.19C33.0017 30.05 32.8184 29.8867 32.6917 29.7C32.5651 29.5067 32.5017 29.26 32.5017 28.96C32.5017 28.4933 32.6884 28.1367 33.0617 27.89C33.4417 27.6367 33.9417 27.51 34.5617 27.51C34.8884 27.51 35.1951 27.5433 35.4817 27.61C35.7751 27.67 36.0584 27.7633 36.3317 27.89L35.9817 28.7C35.8284 28.6267 35.6684 28.5667 35.5017 28.52C35.3417 28.4667 35.1784 28.4233 35.0117 28.39C34.8517 28.3567 34.6851 28.34 34.5117 28.34C34.1917 28.34 33.9484 28.39 33.7817 28.49C33.6151 28.59 33.5317 28.73 33.5317 28.91C33.5317 29.0367 33.5684 29.1467 33.6417 29.24C33.7217 29.3333 33.8584 29.4267 34.0517 29.52C34.2451 29.6133 34.5084 29.7267 34.8417 29.86C35.1751 29.9867 35.4584 30.1167 35.6917 30.25C35.9317 30.3833 36.1117 30.5467 36.2317 30.74C36.3584 30.9333 36.4217 31.18 36.4217 31.48ZM48.1831 29.36C48.1831 30.16 48.0331 30.83 47.7331 31.37C47.4331 31.91 46.9998 32.3167 46.4331 32.59C45.8731 32.8633 45.1965 33 44.4031 33H42.4031V25.86H44.6131C45.3398 25.86 45.9698 25.9933 46.5031 26.26C47.0365 26.5267 47.4498 26.92 47.7431 27.44C48.0365 27.9533 48.1831 28.5933 48.1831 29.36ZM47.0531 29.39C47.0531 28.79 46.9565 28.2967 46.7631 27.91C46.5698 27.5233 46.2831 27.2367 45.9031 27.05C45.5298 26.8633 45.0765 26.77 44.5431 26.77H43.4831V32.09H44.3531C45.2531 32.09 45.9265 31.8633 46.3731 31.41C46.8265 30.9567 47.0531 30.2833 47.0531 29.39ZM52.7371 27.51C53.2104 27.51 53.6171 27.61 53.9571 27.81C54.2971 28.0033 54.5571 28.2833 54.7371 28.65C54.9238 29.0167 55.0171 29.45 55.0171 29.95V30.53H51.3971C51.4104 31.0833 51.5538 31.5067 51.8271 31.8C52.1071 32.0933 52.4971 32.24 52.9971 32.24C53.3438 32.24 53.6504 32.21 53.9171 32.15C54.1904 32.0833 54.4704 31.9867 54.7571 31.86V32.74C54.4904 32.86 54.2171 32.95 53.9371 33.01C53.6638 33.07 53.3371 33.1 52.9571 33.1C52.4371 33.1 51.9771 32.9967 51.5771 32.79C51.1771 32.5833 50.8638 32.2767 50.6371 31.87C50.4171 31.4567 50.3071 30.95 50.3071 30.35C50.3071 29.7433 50.4071 29.23 50.6071 28.81C50.8138 28.39 51.0971 28.07 51.4571 27.85C51.8238 27.6233 52.2504 27.51 52.7371 27.51ZM52.7371 28.33C52.3571 28.33 52.0504 28.4533 51.8171 28.7C51.5904 28.9467 51.4571 29.2967 51.4171 29.75H53.9571C53.9571 29.47 53.9138 29.2233 53.8271 29.01C53.7404 28.7967 53.6071 28.63 53.4271 28.51C53.2471 28.39 53.0171 28.33 52.7371 28.33ZM59.2798 32.24C59.4198 32.24 59.5631 32.2267 59.7098 32.2C59.8564 32.1733 59.9831 32.1433 60.0898 32.11V32.91C59.9764 32.9633 59.8231 33.0067 59.6298 33.04C59.4364 33.08 59.2431 33.1 59.0498 33.1C58.7564 33.1 58.4864 33.05 58.2398 32.95C57.9998 32.85 57.8064 32.6767 57.6598 32.43C57.5131 32.1833 57.4398 31.84 57.4398 31.4V28.42H56.6898V27.94L57.4798 27.54L57.8498 26.4H58.4998V27.61H60.0398V28.42H58.4998V31.38C58.4998 31.6733 58.5698 31.89 58.7098 32.03C58.8564 32.17 59.0464 32.24 59.2798 32.24ZM64.2579 27.51C64.9379 27.51 65.4446 27.66 65.7779 27.96C66.1112 28.2533 66.2779 28.7167 66.2779 29.35V33H65.5279L65.3179 32.25H65.2779C65.1246 32.4433 64.9646 32.6033 64.7979 32.73C64.6379 32.8567 64.4512 32.95 64.2379 33.01C64.0312 33.07 63.7779 33.1 63.4779 33.1C63.1579 33.1 62.8679 33.0433 62.6079 32.93C62.3546 32.81 62.1546 32.63 62.0079 32.39C61.8612 32.1433 61.7879 31.8367 61.7879 31.47C61.7879 30.9233 61.9946 30.5067 62.4079 30.22C62.8279 29.9333 63.4646 29.7767 64.3179 29.75L65.2379 29.72V29.42C65.2379 29.02 65.1479 28.74 64.9679 28.58C64.7879 28.42 64.5346 28.34 64.2079 28.34C63.9279 28.34 63.6612 28.38 63.4079 28.46C63.1546 28.54 62.9146 28.6367 62.6879 28.75L62.3479 27.98C62.6012 27.8467 62.8912 27.7367 63.2179 27.65C63.5512 27.5567 63.8979 27.51 64.2579 27.51ZM64.5079 30.43C63.8946 30.4567 63.4679 30.56 63.2279 30.74C62.9946 30.9133 62.8779 31.16 62.8779 31.48C62.8779 31.76 62.9612 31.9633 63.1279 32.09C63.3012 32.2167 63.5179 32.28 63.7779 32.28C64.1979 32.28 64.5446 32.1633 64.8179 31.93C65.0912 31.6967 65.2279 31.3467 65.2279 30.88V30.41L64.5079 30.43ZM69.9701 27.61V33H68.9101V27.61H69.9701ZM69.4501 25.56C69.6101 25.56 69.7501 25.6067 69.8701 25.7C69.9901 25.7933 70.0501 25.95 70.0501 26.17C70.0501 26.3833 69.9901 26.54 69.8701 26.64C69.7501 26.7333 69.6101 26.78 69.4501 26.78C69.2767 26.78 69.1301 26.7333 69.0101 26.64C68.8967 26.54 68.8401 26.3833 68.8401 26.17C68.8401 25.95 68.8967 25.7933 69.0101 25.7C69.1301 25.6067 69.2767 25.56 69.4501 25.56ZM73.6947 33H72.6347V25.4H73.6947V33ZM79.9393 31.48C79.9393 31.8333 79.8526 32.13 79.6793 32.37C79.506 32.61 79.256 32.7933 78.9293 32.92C78.6026 33.04 78.2093 33.1 77.7493 33.1C77.3693 33.1 77.0426 33.07 76.7693 33.01C76.5026 32.9567 76.256 32.8767 76.0293 32.77V31.84C76.2693 31.9533 76.546 32.0567 76.8593 32.15C77.1726 32.2367 77.4793 32.28 77.7793 32.28C78.1793 32.28 78.466 32.2167 78.6393 32.09C78.8193 31.9633 78.9093 31.7933 78.9093 31.58C78.9093 31.46 78.876 31.3533 78.8093 31.26C78.7426 31.16 78.616 31.06 78.4293 30.96C78.2493 30.8533 77.9826 30.7333 77.6293 30.6C77.2893 30.46 76.9993 30.3233 76.7593 30.19C76.5193 30.05 76.336 29.8867 76.2093 29.7C76.0826 29.5067 76.0193 29.26 76.0193 28.96C76.0193 28.4933 76.206 28.1367 76.5793 27.89C76.9593 27.6367 77.4593 27.51 78.0793 27.51C78.406 27.51 78.7126 27.5433 78.9993 27.61C79.2926 27.67 79.576 27.7633 79.8493 27.89L79.4993 28.7C79.346 28.6267 79.186 28.5667 79.0193 28.52C78.8593 28.4667 78.696 28.4233 78.5293 28.39C78.3693 28.3567 78.2026 28.34 78.0293 28.34C77.7093 28.34 77.466 28.39 77.2993 28.49C77.1326 28.59 77.0493 28.73 77.0493 28.91C77.0493 29.0367 77.086 29.1467 77.1593 29.24C77.2393 29.3333 77.376 29.4267 77.5693 29.52C77.7626 29.6133 78.026 29.7267 78.3593 29.86C78.6926 29.9867 78.976 30.1167 79.2093 30.25C79.4493 30.3833 79.6293 30.5467 79.7493 30.74C79.876 30.9333 79.9393 31.18 79.9393 31.48Z" fill="#6680AD"/>
<path d="M96 8H136" stroke="#EEF1F6" stroke-width="2"/>
<rect x="136" width="16" height="16" rx="8" fill="#EEF1F6"/>
<path d="M140.515 7.73498L140.515 7.73484C140.445 7.66451 140.349 7.625 140.25 7.625C140.151 7.625 140.055 7.66451 139.985 7.73484C139.915 7.80516 139.875 7.90054 139.875 8C139.875 8.00601 139.875 8.01201 139.875 8.01801C139.88 8.11113 139.919 8.19924 139.985 8.26516L139.985 8.26531L142.61 10.8902C142.756 11.0366 142.994 11.0366 143.14 10.8902L148.39 5.64017C148.46 5.56984 148.5 5.47446 148.5 5.375C148.5 5.27554 148.46 5.18016 148.39 5.10984C148.32 5.03951 148.224 5 148.125 5C148.026 5 147.93 5.03951 147.86 5.10984L142.875 10.0947L140.515 7.73498Z" fill="white"/>
<path d="M152 8H192" stroke="#EEF1F6" stroke-width="2"/>
<path d="M115.297 25.86C115.904 25.86 116.41 25.9167 116.817 26.03C117.23 26.1433 117.54 26.3333 117.747 26.6C117.96 26.86 118.067 27.2067 118.067 27.64C118.067 27.92 118.017 28.17 117.917 28.39C117.817 28.6033 117.67 28.7833 117.477 28.93C117.29 29.07 117.057 29.1633 116.777 29.21V29.26C117.064 29.3067 117.32 29.3933 117.547 29.52C117.774 29.64 117.954 29.8167 118.087 30.05C118.22 30.2833 118.287 30.5867 118.287 30.96C118.287 31.3933 118.184 31.7633 117.977 32.07C117.777 32.37 117.487 32.6 117.107 32.76C116.734 32.92 116.287 33 115.767 33H113.207V25.86H115.297ZM115.477 28.84C116.037 28.84 116.42 28.75 116.627 28.57C116.84 28.39 116.947 28.1233 116.947 27.77C116.947 27.41 116.82 27.1533 116.567 27C116.314 26.8467 115.91 26.77 115.357 26.77H114.287V28.84H115.477ZM114.287 29.72V32.1H115.597C116.177 32.1 116.58 31.9867 116.807 31.76C117.034 31.5333 117.147 31.2333 117.147 30.86C117.147 30.6333 117.097 30.4333 116.997 30.26C116.897 30.0867 116.727 29.9533 116.487 29.86C116.254 29.7667 115.934 29.72 115.527 29.72H114.287ZM122.769 27.51C123.243 27.51 123.649 27.61 123.989 27.81C124.329 28.0033 124.589 28.2833 124.769 28.65C124.956 29.0167 125.049 29.45 125.049 29.95V30.53H121.429C121.443 31.0833 121.586 31.5067 121.859 31.8C122.139 32.0933 122.529 32.24 123.029 32.24C123.376 32.24 123.683 32.21 123.949 32.15C124.223 32.0833 124.503 31.9867 124.789 31.86V32.74C124.523 32.86 124.249 32.95 123.969 33.01C123.696 33.07 123.369 33.1 122.989 33.1C122.469 33.1 122.009 32.9967 121.609 32.79C121.209 32.5833 120.896 32.2767 120.669 31.87C120.449 31.4567 120.339 30.95 120.339 30.35C120.339 29.7433 120.439 29.23 120.639 28.81C120.846 28.39 121.129 28.07 121.489 27.85C121.856 27.6233 122.283 27.51 122.769 27.51ZM122.769 28.33C122.389 28.33 122.083 28.4533 121.849 28.7C121.623 28.9467 121.489 29.2967 121.449 29.75H123.989C123.989 29.47 123.946 29.2233 123.859 29.01C123.773 28.7967 123.639 28.63 123.459 28.51C123.279 28.39 123.049 28.33 122.769 28.33ZM130.102 27.51C130.729 27.51 131.209 27.6667 131.542 27.98C131.875 28.2933 132.042 28.7967 132.042 29.49V33H130.992V29.64C130.992 29.22 130.902 28.9067 130.722 28.7C130.549 28.4867 130.269 28.38 129.882 28.38C129.335 28.38 128.955 28.5433 128.742 28.87C128.535 29.1967 128.432 29.6667 128.432 30.28V33H127.372V27.61H128.212L128.362 28.33H128.422C128.542 28.1433 128.689 27.99 128.862 27.87C129.035 27.75 129.229 27.66 129.442 27.6C129.655 27.54 129.875 27.51 130.102 27.51ZM136.791 27.51C137.264 27.51 137.671 27.61 138.011 27.81C138.351 28.0033 138.611 28.2833 138.791 28.65C138.977 29.0167 139.071 29.45 139.071 29.95V30.53H135.451C135.464 31.0833 135.607 31.5067 135.881 31.8C136.161 32.0933 136.551 32.24 137.051 32.24C137.397 32.24 137.704 32.21 137.971 32.15C138.244 32.0833 138.524 31.9867 138.811 31.86V32.74C138.544 32.86 138.271 32.95 137.991 33.01C137.717 33.07 137.391 33.1 137.011 33.1C136.491 33.1 136.031 32.9967 135.631 32.79C135.231 32.5833 134.917 32.2767 134.691 31.87C134.471 31.4567 134.361 30.95 134.361 30.35C134.361 29.7433 134.461 29.23 134.661 28.81C134.867 28.39 135.151 28.07 135.511 27.85C135.877 27.6233 136.304 27.51 136.791 27.51ZM136.791 28.33C136.411 28.33 136.104 28.4533 135.871 28.7C135.644 28.9467 135.511 29.2967 135.471 29.75H138.011C138.011 29.47 137.967 29.2233 137.881 29.01C137.794 28.7967 137.661 28.63 137.481 28.51C137.301 28.39 137.071 28.33 136.791 28.33ZM144.023 28.42H142.693V33H141.633V28.42H140.723V27.92L141.633 27.59V27.25C141.633 26.79 141.703 26.4233 141.843 26.15C141.99 25.87 142.197 25.6667 142.463 25.54C142.73 25.4133 143.053 25.35 143.433 25.35C143.667 25.35 143.88 25.37 144.073 25.41C144.267 25.45 144.43 25.4933 144.563 25.54L144.293 26.35C144.187 26.3167 144.063 26.2867 143.923 26.26C143.783 26.2267 143.637 26.21 143.483 26.21C143.217 26.21 143.017 26.2967 142.883 26.47C142.757 26.6433 142.693 26.9067 142.693 27.26V27.61H144.023V28.42ZM146.023 27.61V33H144.963V27.61H146.023ZM145.503 25.56C145.663 25.56 145.803 25.6067 145.923 25.7C146.043 25.7933 146.103 25.95 146.103 26.17C146.103 26.3833 146.043 26.54 145.923 26.64C145.803 26.7333 145.663 26.78 145.503 26.78C145.33 26.78 145.183 26.7333 145.063 26.64C144.95 26.54 144.893 26.3833 144.893 26.17C144.893 25.95 144.95 25.7933 145.063 25.7C145.183 25.6067 145.33 25.56 145.503 25.56ZM150.853 33.1C150.359 33.1 149.926 33.0033 149.553 32.81C149.179 32.6167 148.889 32.3167 148.683 31.91C148.476 31.4967 148.373 30.9733 148.373 30.34C148.373 29.6733 148.483 29.1333 148.703 28.72C148.929 28.3067 149.233 28.0033 149.613 27.81C149.999 27.61 150.439 27.51 150.933 27.51C151.233 27.51 151.513 27.5433 151.773 27.61C152.039 27.67 152.259 27.74 152.433 27.82L152.113 28.68C151.926 28.6067 151.726 28.5433 151.513 28.49C151.306 28.4367 151.109 28.41 150.923 28.41C150.589 28.41 150.313 28.4833 150.093 28.63C149.879 28.77 149.719 28.9833 149.613 29.27C149.513 29.55 149.463 29.9033 149.463 30.33C149.463 30.7367 149.516 31.08 149.623 31.36C149.729 31.64 149.886 31.8533 150.093 32C150.306 32.14 150.569 32.21 150.883 32.21C151.183 32.21 151.446 32.1767 151.673 32.11C151.899 32.0433 152.113 31.9567 152.313 31.85V32.77C152.119 32.8833 151.909 32.9667 151.683 33.02C151.456 33.0733 151.179 33.1 150.853 33.1ZM155.645 27.61V33H154.585V27.61H155.645ZM155.125 25.56C155.285 25.56 155.425 25.6067 155.545 25.7C155.665 25.7933 155.725 25.95 155.725 26.17C155.725 26.3833 155.665 26.54 155.545 26.64C155.425 26.7333 155.285 26.78 155.125 26.78C154.952 26.78 154.805 26.7333 154.685 26.64C154.572 26.54 154.515 26.3833 154.515 26.17C154.515 25.95 154.572 25.7933 154.685 25.7C154.805 25.6067 154.952 25.56 155.125 25.56ZM160.399 27.51C161.079 27.51 161.586 27.66 161.919 27.96C162.253 28.2533 162.419 28.7167 162.419 29.35V33H161.669L161.459 32.25H161.419C161.266 32.4433 161.106 32.6033 160.939 32.73C160.779 32.8567 160.593 32.95 160.379 33.01C160.173 33.07 159.919 33.1 159.619 33.1C159.299 33.1 159.009 33.0433 158.749 32.93C158.496 32.81 158.296 32.63 158.149 32.39C158.003 32.1433 157.929 31.8367 157.929 31.47C157.929 30.9233 158.136 30.5067 158.549 30.22C158.969 29.9333 159.606 29.7767 160.459 29.75L161.379 29.72V29.42C161.379 29.02 161.289 28.74 161.109 28.58C160.929 28.42 160.676 28.34 160.349 28.34C160.069 28.34 159.803 28.38 159.549 28.46C159.296 28.54 159.056 28.6367 158.829 28.75L158.489 27.98C158.743 27.8467 159.033 27.7367 159.359 27.65C159.693 27.5567 160.039 27.51 160.399 27.51ZM160.649 30.43C160.036 30.4567 159.609 30.56 159.369 30.74C159.136 30.9133 159.019 31.16 159.019 31.48C159.019 31.76 159.103 31.9633 159.269 32.09C159.443 32.2167 159.659 32.28 159.919 32.28C160.339 32.28 160.686 32.1633 160.959 31.93C161.233 31.6967 161.369 31.3467 161.369 30.88V30.41L160.649 30.43ZM167.712 27.51C167.805 27.51 167.908 27.5167 168.022 27.53C168.135 27.5367 168.228 27.5467 168.302 27.56L168.192 28.55C168.118 28.53 168.032 28.5133 167.932 28.5C167.832 28.4867 167.738 28.48 167.652 28.48C167.452 28.48 167.258 28.52 167.072 28.6C166.892 28.6733 166.728 28.7833 166.582 28.93C166.435 29.07 166.318 29.2433 166.232 29.45C166.152 29.6567 166.112 29.8933 166.112 30.16V33H165.052V27.61H165.892L166.032 28.57H166.072C166.185 28.3767 166.322 28.2 166.482 28.04C166.642 27.88 166.825 27.7533 167.032 27.66C167.238 27.56 167.465 27.51 167.712 27.51ZM169.48 27.61H170.62L171.74 30.67C171.8 30.8233 171.853 30.9733 171.9 31.12C171.946 31.2667 171.986 31.4133 172.02 31.56C172.06 31.7 172.09 31.84 172.11 31.98H172.15C172.183 31.8067 172.236 31.6033 172.31 31.37C172.383 31.13 172.46 30.8933 172.54 30.66L173.6 27.61H174.74L172.43 33.73C172.303 34.0767 172.146 34.3733 171.96 34.62C171.773 34.8733 171.55 35.0667 171.29 35.2C171.036 35.3333 170.736 35.4 170.39 35.4C170.223 35.4 170.08 35.39 169.96 35.37C169.84 35.3567 169.736 35.34 169.65 35.32V34.48C169.723 34.4933 169.81 34.5067 169.91 34.52C170.016 34.5333 170.126 34.54 170.24 34.54C170.446 34.54 170.623 34.5 170.77 34.42C170.923 34.34 171.05 34.2267 171.15 34.08C171.256 33.9333 171.346 33.7667 171.42 33.58L171.64 33L169.48 27.61ZM131.27 39.36C131.27 40.16 131.12 40.83 130.82 41.37C130.52 41.91 130.087 42.3167 129.52 42.59C128.96 42.8633 128.283 43 127.49 43H125.49V35.86H127.7C128.427 35.86 129.057 35.9933 129.59 36.26C130.123 36.5267 130.537 36.92 130.83 37.44C131.123 37.9533 131.27 38.5933 131.27 39.36ZM130.14 39.39C130.14 38.79 130.043 38.2967 129.85 37.91C129.657 37.5233 129.37 37.2367 128.99 37.05C128.617 36.8633 128.163 36.77 127.63 36.77H126.57V42.09H127.44C128.34 42.09 129.013 41.8633 129.46 41.41C129.913 40.9567 130.14 40.2833 130.14 39.39ZM135.824 37.51C136.297 37.51 136.704 37.61 137.044 37.81C137.384 38.0033 137.644 38.2833 137.824 38.65C138.011 39.0167 138.104 39.45 138.104 39.95V40.53H134.484C134.497 41.0833 134.641 41.5067 134.914 41.8C135.194 42.0933 135.584 42.24 136.084 42.24C136.431 42.24 136.737 42.21 137.004 42.15C137.277 42.0833 137.557 41.9867 137.844 41.86V42.74C137.577 42.86 137.304 42.95 137.024 43.01C136.751 43.07 136.424 43.1 136.044 43.1C135.524 43.1 135.064 42.9967 134.664 42.79C134.264 42.5833 133.951 42.2767 133.724 41.87C133.504 41.4567 133.394 40.95 133.394 40.35C133.394 39.7433 133.494 39.23 133.694 38.81C133.901 38.39 134.184 38.07 134.544 37.85C134.911 37.6233 135.337 37.51 135.824 37.51ZM135.824 38.33C135.444 38.33 135.137 38.4533 134.904 38.7C134.677 38.9467 134.544 39.2967 134.504 39.75H137.044C137.044 39.47 137.001 39.2233 136.914 39.01C136.827 38.7967 136.694 38.63 136.514 38.51C136.334 38.39 136.104 38.33 135.824 38.33ZM142.367 42.24C142.507 42.24 142.65 42.2267 142.797 42.2C142.943 42.1733 143.07 42.1433 143.177 42.11V42.91C143.063 42.9633 142.91 43.0067 142.717 43.04C142.523 43.08 142.33 43.1 142.137 43.1C141.843 43.1 141.573 43.05 141.327 42.95C141.087 42.85 140.893 42.6767 140.747 42.43C140.6 42.1833 140.527 41.84 140.527 41.4V38.42H139.777V37.94L140.567 37.54L140.937 36.4H141.587V37.61H143.127V38.42H141.587V41.38C141.587 41.6733 141.657 41.89 141.797 42.03C141.943 42.17 142.133 42.24 142.367 42.24ZM147.345 37.51C148.025 37.51 148.531 37.66 148.865 37.96C149.198 38.2533 149.365 38.7167 149.365 39.35V43H148.615L148.405 42.25H148.365C148.211 42.4433 148.051 42.6033 147.885 42.73C147.725 42.8567 147.538 42.95 147.325 43.01C147.118 43.07 146.865 43.1 146.565 43.1C146.245 43.1 145.955 43.0433 145.695 42.93C145.441 42.81 145.241 42.63 145.095 42.39C144.948 42.1433 144.875 41.8367 144.875 41.47C144.875 40.9233 145.081 40.5067 145.495 40.22C145.915 39.9333 146.551 39.7767 147.405 39.75L148.325 39.72V39.42C148.325 39.02 148.235 38.74 148.055 38.58C147.875 38.42 147.621 38.34 147.295 38.34C147.015 38.34 146.748 38.38 146.495 38.46C146.241 38.54 146.001 38.6367 145.775 38.75L145.435 37.98C145.688 37.8467 145.978 37.7367 146.305 37.65C146.638 37.5567 146.985 37.51 147.345 37.51ZM147.595 40.43C146.981 40.4567 146.555 40.56 146.315 40.74C146.081 40.9133 145.965 41.16 145.965 41.48C145.965 41.76 146.048 41.9633 146.215 42.09C146.388 42.2167 146.605 42.28 146.865 42.28C147.285 42.28 147.631 42.1633 147.905 41.93C148.178 41.6967 148.315 41.3467 148.315 40.88V40.41L147.595 40.43ZM153.057 37.61V43H151.997V37.61H153.057ZM152.537 35.56C152.697 35.56 152.837 35.6067 152.957 35.7C153.077 35.7933 153.137 35.95 153.137 36.17C153.137 36.3833 153.077 36.54 152.957 36.64C152.837 36.7333 152.697 36.78 152.537 36.78C152.364 36.78 152.217 36.7333 152.097 36.64C151.984 36.54 151.927 36.3833 151.927 36.17C151.927 35.95 151.984 35.7933 152.097 35.7C152.217 35.6067 152.364 35.56 152.537 35.56ZM156.782 43H155.722V35.4H156.782V43ZM163.026 41.48C163.026 41.8333 162.94 42.13 162.766 42.37C162.593 42.61 162.343 42.7933 162.016 42.92C161.69 43.04 161.296 43.1 160.836 43.1C160.456 43.1 160.13 43.07 159.856 43.01C159.59 42.9567 159.343 42.8767 159.116 42.77V41.84C159.356 41.9533 159.633 42.0567 159.946 42.15C160.26 42.2367 160.566 42.28 160.866 42.28C161.266 42.28 161.553 42.2167 161.726 42.09C161.906 41.9633 161.996 41.7933 161.996 41.58C161.996 41.46 161.963 41.3533 161.896 41.26C161.83 41.16 161.703 41.06 161.516 40.96C161.336 40.8533 161.07 40.7333 160.716 40.6C160.376 40.46 160.086 40.3233 159.846 40.19C159.606 40.05 159.423 39.8867 159.296 39.7C159.17 39.5067 159.106 39.26 159.106 38.96C159.106 38.4933 159.293 38.1367 159.666 37.89C160.046 37.6367 160.546 37.51 161.166 37.51C161.493 37.51 161.8 37.5433 162.086 37.61C162.38 37.67 162.663 37.7633 162.936 37.89L162.586 38.7C162.433 38.6267 162.273 38.5667 162.106 38.52C161.946 38.4667 161.783 38.4233 161.616 38.39C161.456 38.3567 161.29 38.34 161.116 38.34C160.796 38.34 160.553 38.39 160.386 38.49C160.22 38.59 160.136 38.73 160.136 38.91C160.136 39.0367 160.173 39.1467 160.246 39.24C160.326 39.3333 160.463 39.4267 160.656 39.52C160.85 39.6133 161.113 39.7267 161.446 39.86C161.78 39.9867 162.063 40.1167 162.296 40.25C162.536 40.3833 162.716 40.5467 162.836 40.74C162.963 40.9333 163.026 41.18 163.026 41.48Z" fill="#CDD3DD"/>
<path d="M192 8H248" stroke="#EEF1F6" stroke-width="2"/>
<rect x="248" width="16" height="16" rx="8" fill="#EEF1F6"/>
<path d="M252.515 7.73498L252.515 7.73484C252.445 7.66451 252.349 7.625 252.25 7.625C252.151 7.625 252.055 7.66451 251.985 7.73484C251.915 7.80516 251.875 7.90054 251.875 8C251.875 8.00601 251.875 8.01201 251.875 8.01801C251.88 8.11113 251.919 8.19924 251.985 8.26516L251.985 8.26531L254.61 10.8902C254.756 11.0366 254.994 11.0366 255.14 10.8902L260.39 5.64017C260.46 5.56984 260.5 5.47446 260.5 5.375C260.5 5.27554 260.46 5.18016 260.39 5.10984C260.32 5.03951 260.224 5 260.125 5C260.026 5 259.93 5.03951 259.86 5.10984L254.875 10.0947L252.515 7.73498Z" fill="white"/>
<path d="M264 8H288" stroke="#EEF1F6" stroke-width="2"/>
<path d="M226.622 33H225.552V25.86H229.572V26.78H226.622V29.11H229.382V30.03H226.622V33ZM232.775 27.61V33H231.715V27.61H232.775ZM232.255 25.56C232.415 25.56 232.555 25.6067 232.675 25.7C232.795 25.7933 232.855 25.95 232.855 26.17C232.855 26.3833 232.795 26.54 232.675 26.64C232.555 26.7333 232.415 26.78 232.255 26.78C232.081 26.78 231.935 26.7333 231.815 26.64C231.701 26.54 231.645 26.3833 231.645 26.17C231.645 25.95 231.701 25.7933 231.815 25.7C231.935 25.6067 232.081 25.56 232.255 25.56ZM236.499 33H235.439V25.4H236.499V33ZM241.284 27.51C241.757 27.51 242.164 27.61 242.504 27.81C242.844 28.0033 243.104 28.2833 243.284 28.65C243.471 29.0167 243.564 29.45 243.564 29.95V30.53H239.944C239.957 31.0833 240.101 31.5067 240.374 31.8C240.654 32.0933 241.044 32.24 241.544 32.24C241.891 32.24 242.197 32.21 242.464 32.15C242.737 32.0833 243.017 31.9867 243.304 31.86V32.74C243.037 32.86 242.764 32.95 242.484 33.01C242.211 33.07 241.884 33.1 241.504 33.1C240.984 33.1 240.524 32.9967 240.124 32.79C239.724 32.5833 239.411 32.2767 239.184 31.87C238.964 31.4567 238.854 30.95 238.854 30.35C238.854 29.7433 238.954 29.23 239.154 28.81C239.361 28.39 239.644 28.07 240.004 27.85C240.371 27.6233 240.797 27.51 241.284 27.51ZM241.284 28.33C240.904 28.33 240.597 28.4533 240.364 28.7C240.137 28.9467 240.004 29.2967 239.964 29.75H242.504C242.504 29.47 242.461 29.2233 242.374 29.01C242.287 28.7967 242.154 28.63 241.974 28.51C241.794 28.39 241.564 28.33 241.284 28.33ZM255.144 30.48C255.144 30.9733 255.041 31.42 254.834 31.82C254.634 32.2133 254.324 32.5267 253.904 32.76C253.484 32.9867 252.954 33.1 252.314 33.1C251.408 33.1 250.718 32.86 250.244 32.38C249.778 31.8933 249.544 31.2533 249.544 30.46V25.86H250.624V30.41C250.624 30.9967 250.768 31.44 251.054 31.74C251.341 32.0333 251.778 32.18 252.364 32.18C252.764 32.18 253.091 32.1067 253.344 31.96C253.598 31.8133 253.781 31.61 253.894 31.35C254.014 31.0833 254.074 30.7667 254.074 30.4V25.86H255.144V30.48ZM260.557 27.51C261.204 27.51 261.724 27.7433 262.117 28.21C262.517 28.6767 262.717 29.3733 262.717 30.3C262.717 30.9067 262.627 31.42 262.447 31.84C262.267 32.26 262.014 32.5767 261.687 32.79C261.36 32.9967 260.98 33.1 260.547 33.1C260.274 33.1 260.034 33.0667 259.827 33C259.62 32.9267 259.444 32.8333 259.297 32.72C259.157 32.6 259.034 32.4733 258.927 32.34H258.857C258.877 32.46 258.894 32.6033 258.907 32.77C258.92 32.93 258.927 33.0733 258.927 33.2V35.4H257.867V27.61H258.727L258.877 28.33H258.927C259.034 28.1833 259.16 28.0467 259.307 27.92C259.454 27.7933 259.63 27.6933 259.837 27.62C260.044 27.5467 260.284 27.51 260.557 27.51ZM260.307 28.38C259.974 28.38 259.707 28.4467 259.507 28.58C259.307 28.7067 259.16 28.9 259.067 29.16C258.98 29.4133 258.934 29.7367 258.927 30.13V30.29C258.927 30.7033 258.97 31.0567 259.057 31.35C259.144 31.6367 259.287 31.8567 259.487 32.01C259.694 32.1567 259.974 32.23 260.327 32.23C260.627 32.23 260.87 32.15 261.057 31.99C261.25 31.8233 261.394 31.5933 261.487 31.3C261.58 31.0067 261.627 30.6667 261.627 30.28C261.627 29.6933 261.52 29.23 261.307 28.89C261.094 28.55 260.76 28.38 260.307 28.38ZM266.128 33H265.068V25.4H266.128V33ZM273.543 30.3C273.543 30.7467 273.483 31.1433 273.363 31.49C273.243 31.8367 273.073 32.13 272.853 32.37C272.633 32.61 272.366 32.7933 272.053 32.92C271.74 33.04 271.386 33.1 270.993 33.1C270.633 33.1 270.3 33.04 269.993 32.92C269.686 32.7933 269.42 32.61 269.193 32.37C268.973 32.13 268.8 31.8367 268.673 31.49C268.546 31.1433 268.483 30.7433 268.483 30.29C268.483 29.6967 268.583 29.1933 268.783 28.78C268.99 28.3667 269.283 28.0533 269.663 27.84C270.05 27.62 270.503 27.51 271.023 27.51C271.516 27.51 271.95 27.62 272.323 27.84C272.703 28.0533 273 28.3667 273.213 28.78C273.433 29.1933 273.543 29.7 273.543 30.3ZM269.573 30.3C269.573 30.7 269.623 31.0467 269.723 31.34C269.823 31.6267 269.98 31.8467 270.193 32C270.406 32.1533 270.68 32.23 271.013 32.23C271.346 32.23 271.62 32.1533 271.833 32C272.046 31.8467 272.203 31.6267 272.303 31.34C272.403 31.0467 272.453 30.7 272.453 30.3C272.453 29.8867 272.4 29.54 272.293 29.26C272.193 28.98 272.036 28.7667 271.823 28.62C271.616 28.4667 271.343 28.39 271.003 28.39C270.503 28.39 270.14 28.5567 269.913 28.89C269.686 29.2233 269.573 29.6933 269.573 30.3ZM277.977 27.51C278.657 27.51 279.163 27.66 279.497 27.96C279.83 28.2533 279.997 28.7167 279.997 29.35V33H279.247L279.037 32.25H278.997C278.843 32.4433 278.683 32.6033 278.517 32.73C278.357 32.8567 278.17 32.95 277.957 33.01C277.75 33.07 277.497 33.1 277.197 33.1C276.877 33.1 276.587 33.0433 276.327 32.93C276.073 32.81 275.873 32.63 275.727 32.39C275.58 32.1433 275.507 31.8367 275.507 31.47C275.507 30.9233 275.713 30.5067 276.127 30.22C276.547 29.9333 277.183 29.7767 278.037 29.75L278.957 29.72V29.42C278.957 29.02 278.867 28.74 278.687 28.58C278.507 28.42 278.253 28.34 277.927 28.34C277.647 28.34 277.38 28.38 277.127 28.46C276.873 28.54 276.633 28.6367 276.407 28.75L276.067 27.98C276.32 27.8467 276.61 27.7367 276.937 27.65C277.27 27.5567 277.617 27.51 277.977 27.51ZM278.227 30.43C277.613 30.4567 277.187 30.56 276.947 30.74C276.713 30.9133 276.597 31.16 276.597 31.48C276.597 31.76 276.68 31.9633 276.847 32.09C277.02 32.2167 277.237 32.28 277.497 32.28C277.917 32.28 278.263 32.1633 278.537 31.93C278.81 31.6967 278.947 31.3467 278.947 30.88V30.41L278.227 30.43ZM284.479 33.1C283.832 33.1 283.309 32.8667 282.909 32.4C282.515 31.9333 282.319 31.24 282.319 30.32C282.319 29.3933 282.519 28.6933 282.919 28.22C283.319 27.7467 283.845 27.51 284.499 27.51C284.772 27.51 285.009 27.5467 285.209 27.62C285.415 27.6867 285.592 27.78 285.739 27.9C285.892 28.02 286.022 28.1533 286.129 28.3H286.189C286.175 28.2067 286.159 28.0733 286.139 27.9C286.119 27.72 286.109 27.56 286.109 27.42V25.4H287.169V33H286.339L286.159 32.28H286.109C286.009 32.4333 285.882 32.5733 285.729 32.7C285.582 32.82 285.405 32.9167 285.199 32.99C284.992 33.0633 284.752 33.1 284.479 33.1ZM284.729 32.23C285.249 32.23 285.615 32.0867 285.829 31.8C286.042 31.5067 286.149 31.07 286.149 30.49V30.33C286.149 29.6967 286.045 29.2133 285.839 28.88C285.639 28.5467 285.265 28.38 284.719 28.38C284.285 28.38 283.959 28.5567 283.739 28.91C283.519 29.2567 283.409 29.7333 283.409 30.34C283.409 30.9467 283.519 31.4133 283.739 31.74C283.959 32.0667 284.289 32.23 284.729 32.23Z" fill="#CDD3DD"/>
</svg>
