<svg width="100" height="100" viewBox="0 0 100 100" fill="none" xmlns="http://www.w3.org/2000/svg">
<path fill-rule="evenodd" clip-rule="evenodd" d="M92.6269 3.33307L5.19903 34.5574C4.11194 34.9455 3.32744 35.9014 3.15866 37.0433C2.98988 38.1852 3.46431 39.3271 4.39259 40.0133L28.125 57.5546V87.5002C28.125 88.7099 28.8233 89.8111 29.9176 90.3268C31.0119 90.8427 32.3056 90.6805 33.2388 89.9105L44.9575 80.2418C46.2887 79.1436 46.4775 77.1739 45.3791 75.8427C44.2809 74.5114 42.3112 74.3227 40.98 75.4211L34.375 80.8705V62.1743L76.2675 93.1383C77.1341 93.7786 78.2691 93.9277 79.2712 93.5324C80.2738 93.1371 81.0016 92.2536 81.1978 91.1943L96.8187 6.84122C96.9853 5.97385 96.7853 5.04166 96.1903 4.29794C95.3181 3.2075 93.8641 2.85631 92.6269 3.33307ZM36.5516 56.0108L75.9625 85.1408L89.1494 13.9328L36.5516 56.0108ZM31.3512 52.1674L77.2203 15.4721L12.8217 38.4714L31.3512 52.1674Z" fill="#002C77"/>
</svg>
