<svg width="100" height="100" viewBox="0 0 100 100" fill="none" xmlns="http://www.w3.org/2000/svg">
<path fill-rule="evenodd" clip-rule="evenodd" d="M31.786 4.03592C29.8258 3.09053 27.5936 2.8719 25.4873 3.41898L10.0185 7.43148L10.0138 7.43273C7.82979 8.00292 5.93089 9.35457 4.67701 11.2314C3.42314 13.1083 2.90144 15.38 3.21079 17.6159L3.21167 17.6222C6.02057 37.6249 15.2652 56.1692 29.548 70.452C43.8307 84.7349 62.3754 93.9795 82.3779 96.7886L82.3857 96.7895C84.621 97.0977 86.8916 96.5755 88.7672 95.3217C90.6432 94.068 91.9941 92.1695 92.5644 89.9867L92.5657 89.9817L96.5782 74.512C97.1238 72.4074 96.9047 70.177 95.96 68.2186C95.0154 66.2602 93.405 64.6995 91.4185 63.8158L73.1216 55.6908C71.2688 54.8677 69.196 54.6802 67.2257 55.1583C65.255 55.6364 63.4979 56.7533 62.2285 58.3345L64.6657 60.2908L62.2254 58.3389L56.8166 65.1011C48.0088 59.4705 40.5297 51.9914 34.8991 43.1836L41.6632 37.7736C43.2463 36.5055 44.365 34.7489 44.8447 32.778C45.3247 30.8073 45.1385 28.7326 44.3154 26.8787L36.1904 8.58182C35.3072 6.59251 33.7463 4.98145 31.786 4.03592ZM59.9747 71.1583L67.1029 62.2467C67.5082 61.7427 68.0704 61.3845 68.6994 61.232C69.3288 61.0792 69.9929 61.1399 70.585 61.403L88.8819 69.528C89.5157 69.8105 90.0291 70.3086 90.3307 70.9336C90.6322 71.5592 90.7019 72.272 90.5282 72.9445L86.5172 88.4074L86.516 88.4111C86.3319 89.1127 85.8972 89.7224 85.2944 90.1255C84.6913 90.5286 83.9613 90.6967 83.2425 90.5986C64.5857 87.9777 47.2894 79.3545 33.9675 66.0327C20.6453 52.7105 12.0222 35.4136 9.40145 16.7566C9.3026 16.0375 9.4707 15.307 9.87398 14.7033C10.2774 14.0994 10.8901 13.6639 11.5926 13.48L27.058 9.46839C27.7311 9.29345 28.4444 9.36326 29.0709 9.66539C29.6973 9.96748 30.1962 10.4827 30.4784 11.1184L38.6035 29.4153C38.866 30.0075 38.9254 30.67 38.7722 31.2995C38.6188 31.9292 38.2616 32.4905 37.7557 32.8955L28.8418 40.0255C27.6287 40.9958 27.3125 42.7099 28.0997 44.0492C34.861 55.5527 44.4475 65.1392 55.951 71.9005C57.2904 72.6877 59.0044 72.3714 59.9747 71.1583Z" fill="#002C77"/>
<path d="M53.125 6.25C53.125 4.52412 54.5241 3.125 56.25 3.125C67.0244 3.125 77.3575 7.40513 84.9762 15.0238C92.595 22.6424 96.875 32.9756 96.875 43.75C96.875 45.4759 95.4759 46.875 93.75 46.875C92.0241 46.875 90.625 45.4759 90.625 43.75C90.625 34.6331 87.0034 25.8898 80.5569 19.4432C74.1103 12.9967 65.3669 9.375 56.25 9.375C54.5241 9.375 53.125 7.97587 53.125 6.25Z" fill="#002C77"/>
<path d="M53.125 25C53.125 23.2741 54.5241 21.875 56.25 21.875C62.0516 21.875 67.6156 24.1797 71.7178 28.282C75.8203 32.3844 78.125 37.9484 78.125 43.75C78.125 45.4759 76.7259 46.875 75 46.875C73.2741 46.875 71.875 45.4759 71.875 43.75C71.875 39.6059 70.2287 35.6316 67.2984 32.7016C64.3684 29.7712 60.3941 28.125 56.25 28.125C54.5241 28.125 53.125 26.7259 53.125 25Z" fill="#002C77"/>
</svg>
