<svg width="250" height="250" viewBox="0 0 250 250" fill="none" xmlns="http://www.w3.org/2000/svg">
<path d="M158.146 107.483C150.479 99.816 140.39 95.0449 129.599 93.9826C118.808 92.9202 107.983 95.6323 98.9673 101.657C89.9518 107.681 83.3041 116.645 80.1569 127.021C77.0096 137.398 77.5575 148.544 81.7072 158.562C85.8569 168.579 93.3517 176.848 102.915 181.959C112.477 187.071 123.517 188.708 134.151 186.592C144.786 184.477 154.358 178.739 161.237 170.358C168.115 161.976 171.875 151.468 171.875 140.625C171.892 134.467 170.687 128.367 168.331 122.679C165.974 116.99 162.513 111.825 158.146 107.483ZM102.902 118.53C107.776 113.614 114.159 110.475 121.028 109.616C127.897 108.756 134.857 110.225 140.792 113.788L98.1595 156.415C94.598 150.48 93.1296 143.522 93.9892 136.654C94.8487 129.786 97.9874 123.405 102.902 118.53ZM147.099 162.72C142.124 167.443 135.765 170.446 128.957 171.288C122.148 172.129 115.25 170.765 109.274 167.395L151.84 124.835C155.401 130.77 156.87 137.728 156.01 144.596C155.151 151.464 152.013 157.845 147.099 162.72Z" fill="#CFCFCF"/>
<path d="M202.517 67.3031C202.125 66.3604 201.552 65.5038 200.83 64.782L153.966 17.9188C152.498 16.455 150.511 15.6305 148.438 15.625H70.3125C64.0986 15.6318 58.1411 18.1033 53.7472 22.4972C49.3533 26.8911 46.8818 32.8486 46.875 39.0625V210.938C46.8818 217.151 49.3533 223.109 53.7472 227.503C58.1411 231.897 64.0986 234.368 70.3125 234.375H179.688C185.901 234.368 191.859 231.897 196.253 227.503C200.647 223.109 203.118 217.151 203.125 210.938V70.3125C203.124 69.279 202.917 68.2561 202.517 67.3031ZM156.25 42.2977L176.452 62.5H156.25V42.2977ZM179.688 218.75H70.3125C68.2411 218.748 66.255 217.924 64.7903 216.46C63.3256 214.995 62.5019 213.009 62.5 210.938V39.0625C62.5019 36.9911 63.3256 35.005 64.7903 33.5403C66.255 32.0756 68.2411 31.2519 70.3125 31.25H140.625V70.3125C140.625 72.3845 141.448 74.3716 142.913 75.8368C144.378 77.3019 146.365 78.125 148.438 78.125H187.5V210.938C187.498 213.009 186.674 214.995 185.21 216.46C183.745 217.924 181.759 218.748 179.688 218.75Z" fill="#CFCFCF"/>
</svg>
