<svg width="100" height="100" viewBox="0 0 100 100" fill="none" xmlns="http://www.w3.org/2000/svg">
<path fill-rule="evenodd" clip-rule="evenodd" d="M54.8178 13.9052L19.7077 49.0122L19.7026 49.0172C15.1549 53.6106 12.6038 59.8131 12.6038 66.2769C12.6038 72.7381 15.153 78.9384 19.6973 83.5312C24.29 88.0756 30.4903 90.625 36.9519 90.625C43.4156 90.625 49.6181 88.0737 54.2113 83.5259L54.2166 83.5209L88.3125 49.4281C89.5328 48.2078 91.5116 48.2078 92.7319 49.4281C93.9522 50.6487 93.9522 52.6272 92.7316 53.8475L58.6253 87.9506L58.615 87.9609C52.8509 93.6712 45.0653 96.875 36.9519 96.875C28.838 96.875 21.0524 93.6712 15.2884 87.9609L17.4877 85.7409L15.2676 87.9403C9.55732 82.1762 6.35376 74.3906 6.35376 66.2769C6.35376 58.1631 9.55732 50.3775 15.2676 44.6134L15.278 44.6031L50.4188 9.46551L50.4575 9.42742C54.6463 5.38204 60.2425 3.12109 66.0659 3.12109C71.8891 3.12109 77.4853 5.38204 81.6741 9.42742L79.5034 11.6753L81.7516 9.50482C85.7959 13.6941 88.0563 19.2898 88.0563 25.1128C88.0563 30.9358 85.7959 36.5315 81.7516 40.7209L81.7128 40.7603L49.0056 73.4581C47.7853 74.729 46.3219 75.7412 44.7019 76.4347C43.0697 77.1331 41.3128 77.4934 39.5378 77.4934C37.7625 77.4934 36.0056 77.1331 34.3734 76.4347C32.7641 75.7459 31.3088 74.7419 30.0932 73.4825C28.8336 72.2669 27.8297 70.8115 27.1408 69.2019C26.4423 67.57 26.0822 65.8131 26.0822 64.0378C26.0822 62.2625 26.4423 60.5059 27.1408 58.8737C27.8318 57.2594 28.8396 55.8 30.1045 54.5822L61.4166 22.5804C62.6234 21.3468 64.6022 21.3253 65.8356 22.5323C67.0694 23.7393 67.091 25.7178 65.8838 26.9514L34.5369 58.989C34.5119 59.0144 34.4866 59.0397 34.4606 59.064C33.7881 59.7062 33.2525 60.4778 32.8866 61.3328C32.5209 62.1878 32.3322 63.1078 32.3322 64.0378C32.3322 64.9678 32.5209 65.8878 32.8866 66.7428C33.2525 67.5978 33.7881 68.3693 34.4606 69.0115L32.3034 71.2722L34.5641 69.1147C35.2059 69.7875 35.9778 70.3228 36.8328 70.6887C37.6875 71.0547 38.6078 71.2434 39.5378 71.2434C40.4675 71.2434 41.3878 71.0547 42.2425 70.6887C43.0975 70.3228 43.8694 69.7875 44.5113 69.1147L44.5625 69.0622L77.2735 36.3609C80.1816 33.3387 81.8063 29.3075 81.8063 25.1128C81.8063 20.9276 80.1888 16.905 77.2931 13.8853C74.2738 10.989 70.2513 9.3711 66.0659 9.3711C61.8709 9.3711 57.8394 10.9964 54.8178 13.9052Z" fill="#002C77"/>
</svg>
