<svg width="100" height="100" viewBox="0 0 100 100" fill="none" xmlns="http://www.w3.org/2000/svg">
<g clip-path="url(#clip0_238_239)">
<path fill-rule="evenodd" clip-rule="evenodd" d="M31.25 3.125C31.25 1.39911 32.6491 0 34.375 0H65.625C67.3509 0 68.75 1.39911 68.75 3.125V31.25H96.875C98.6009 31.25 100 32.6491 100 34.375V65.625C100 67.3509 98.6009 68.75 96.875 68.75H68.75V96.875C68.75 98.6009 67.3509 100 65.625 100H34.375C32.6491 100 31.25 98.6009 31.25 96.875V68.75H3.125C1.39911 68.75 0 67.3509 0 65.625V34.375C0 32.6491 1.39911 31.25 3.125 31.25H31.25V3.125ZM37.5 6.25V34.375C37.5 36.1009 36.1009 37.5 34.375 37.5H6.25V62.5H34.375C36.1009 62.5 37.5 63.8991 37.5 65.625V93.75H62.5V65.625C62.5 63.8991 63.8991 62.5 65.625 62.5H93.75V37.5H65.625C63.8991 37.5 62.5 36.1009 62.5 34.375V6.25H37.5Z" fill="#002C77"/>
</g>
<defs>
<clipPath id="clip0_238_239">
<rect width="100" height="100" fill="white"/>
</clipPath>
</defs>
</svg>
