<svg width="100" height="101" viewBox="0 0 100 101" fill="none" xmlns="http://www.w3.org/2000/svg">
<path fill-rule="evenodd" clip-rule="evenodd" d="M87.5 28.125V87.5C87.5 94.4036 81.9036 100 75 100H68.75V93.75H75C78.4518 93.75 81.25 90.9518 81.25 87.5V28.125H68.75C63.5723 28.125 59.375 23.9277 59.375 18.75V6.25H25C21.5482 6.25 18.75 9.04822 18.75 12.5V68.75H12.5V12.5C12.5 5.59644 18.0964 0 25 0H59.375L87.5 28.125ZM60.3735 78.9514C60.8496 79.9036 61.1426 80.929 61.2524 82.0276H56.4001C56.2781 81.4539 56.0767 80.9351 55.7959 80.4712C55.5151 80.0074 55.1611 79.6106 54.7339 79.281C54.3188 78.9392 53.8245 78.6768 53.2507 78.4937C52.6892 78.3106 52.0666 78.219 51.3831 78.219C49.6008 78.219 48.2153 78.8477 47.2266 80.105C46.25 81.3623 45.7617 83.1324 45.7617 85.4151V88.5279C45.7617 89.9927 45.9631 91.2744 46.366 92.3731C46.781 93.4717 47.4158 94.3323 48.2703 94.9549C49.1248 95.5652 50.2051 95.8704 51.5112 95.8704C52.6587 95.8704 53.6108 95.669 54.3677 95.2661C55.1245 94.8511 55.6921 94.3018 56.0706 93.6182C56.449 92.9346 56.6382 92.1778 56.6382 91.3477V89.7547H51.4929V86.0742H61.344V91.0547C61.344 92.2632 61.1426 93.4107 60.7397 94.4971C60.3369 95.5713 59.7266 96.5235 58.9087 97.3535C58.0908 98.1836 57.0593 98.8367 55.8142 99.3128C54.5813 99.7766 53.1287 100.009 51.4563 100.009C49.6619 100.009 48.0933 99.7339 46.7505 99.1846C45.4199 98.6231 44.3091 97.8357 43.418 96.8225C42.5269 95.8094 41.8616 94.6009 41.4221 93.1971C40.9827 91.7932 40.7629 90.243 40.7629 88.5462V85.3784C40.7629 83.1201 41.178 81.1426 42.0081 79.4458C42.8503 77.7491 44.0649 76.4307 45.6519 75.4908C47.251 74.5386 49.1797 74.0625 51.438 74.0625C52.9272 74.0625 54.2517 74.2701 55.4114 74.6851C56.5832 75.1001 57.5842 75.6739 58.4143 76.4063C59.2444 77.1387 59.8975 77.9871 60.3735 78.9514ZM0 92.4097C0 93.4351 0.170898 94.4055 0.512695 95.3211C0.854492 96.2366 1.36108 97.0484 2.03247 97.7564C2.71606 98.4644 3.56445 99.0198 4.57764 99.4226C5.60303 99.8133 6.78711 100.009 8.12988 100.009C10.7544 100.009 12.8052 99.2884 14.2822 97.8479C15.7715 96.4075 16.5161 94.314 16.5161 91.5674V74.5386H11.5723V91.6956C11.5723 92.9529 11.2854 93.9234 10.7117 94.607C10.1379 95.2906 9.25903 95.6324 8.07495 95.6324C7.44019 95.6324 6.87866 95.4981 6.39038 95.2295C5.9021 94.9488 5.51758 94.5703 5.23682 94.0943C4.95605 93.606 4.80347 93.0445 4.77905 92.4097H0ZM30.7544 74.5386H20.7568V99.5325H25.7007V91.1463H30.7178C32.5122 91.1463 34.0381 90.7862 35.2954 90.0659C36.5649 89.3335 37.5293 88.3448 38.1885 87.0996C38.8599 85.8423 39.1956 84.4324 39.1956 82.8699C39.1956 81.3074 38.866 79.8975 38.2068 78.6402C37.5476 77.3828 36.5894 76.388 35.332 75.6555C34.0869 74.9109 32.561 74.5386 30.7544 74.5386ZM34.1602 82.8699C34.1602 83.7976 33.9832 84.5911 33.6292 85.2503C33.2874 85.8972 32.793 86.3977 32.146 86.7517C31.499 87.0935 30.7178 87.2644 29.8022 87.2644H25.6824V78.4754H29.8022C31.1694 78.4754 32.2375 78.8538 33.0066 79.6106C33.7756 80.3675 34.1602 81.4539 34.1602 82.8699Z" fill="#002C77"/>
</svg>
