<svg width="100" height="101" viewBox="0 0 100 101" fill="none" xmlns="http://www.w3.org/2000/svg">
<path fill-rule="evenodd" clip-rule="evenodd" d="M87.5 28.125V87.5C87.5 94.4036 81.9036 100 75 100V93.75C78.4518 93.75 81.25 90.9518 81.25 87.5V28.125H68.75C63.5723 28.125 59.375 23.9277 59.375 18.75V6.25H25C21.5482 6.25 18.75 9.04822 18.75 12.5V68.75H12.5V12.5C12.5 5.59644 18.0964 0 25 0H59.375L87.5 28.125ZM38.5093 85.4151V88.6743C38.5093 90.2735 38.2651 91.6101 37.7769 92.6844C37.2886 93.7586 36.6172 94.5642 35.7627 95.1013C34.9082 95.6263 33.9316 95.8887 32.833 95.8887C31.7222 95.8887 30.7395 95.6263 29.885 95.1013C29.0427 94.5642 28.3774 93.7586 27.8892 92.6844C27.4009 91.6101 27.1567 90.2735 27.1567 88.6743V85.4151C27.1567 83.8037 27.4009 82.4671 27.8892 81.4051C28.3774 80.3308 29.0427 79.5252 29.885 78.9881C30.7395 78.451 31.7222 78.1824 32.833 78.1824C33.9316 78.1824 34.9082 78.451 35.7627 78.9881C36.6172 79.5252 37.2886 80.3308 37.7769 81.4051C38.2651 82.4671 38.5093 83.8037 38.5093 85.4151ZM43.5264 88.656V85.4517C43.5264 83.0957 43.0991 81.0694 42.2446 79.3726C41.3901 77.6636 40.1633 76.3513 38.5642 75.4358C36.9773 74.5203 35.0669 74.0625 32.833 74.0625C30.6113 74.0625 28.6948 74.5203 27.0835 75.4358C25.4844 76.3391 24.2576 77.6453 23.4031 79.3543C22.5486 81.0511 22.1213 83.0835 22.1213 85.4517V88.656C22.1213 90.9998 22.5486 93.0262 23.4031 94.7351C24.2576 96.4319 25.4844 97.7381 27.0835 98.6536C28.6948 99.5569 30.6113 100.009 32.833 100.009C35.0669 100.009 36.9773 99.5569 38.5642 98.6536C40.1633 97.7381 41.3901 96.4319 42.2446 94.7351C43.0991 93.0262 43.5264 90.9998 43.5264 88.656ZM0 74.5386V99.5325H9.11865C11.6333 99.5325 13.7146 99.0381 15.3625 98.0493C17.0227 97.0606 18.2617 95.6263 19.0796 93.7464C19.8975 91.8665 20.3064 89.6082 20.3064 86.9715C20.3064 84.347 19.8975 82.107 19.0796 80.2515C18.2739 78.396 17.0471 76.98 15.3992 76.0034C13.7512 75.0269 11.6577 74.5386 9.11865 74.5386H0ZM4.94385 78.5669H8.45947C10.0098 78.5669 11.2793 78.8843 12.2681 79.5191C13.269 80.1538 14.0076 81.0999 14.4836 82.3572C14.9719 83.6145 15.2161 85.1831 15.2161 87.063C15.2161 88.479 15.0757 89.7119 14.7949 90.7617C14.5264 91.8116 14.1174 92.6905 13.5681 93.3985C13.031 94.0943 12.3352 94.6192 11.4807 94.9732C10.6262 95.315 9.61914 95.4859 8.45947 95.4859H4.94385V78.5669ZM51.3289 81.5882C50.9016 82.6746 50.688 83.993 50.688 85.5432V88.6377C50.688 90.1758 50.9016 91.482 51.3289 92.5562C51.7561 93.6304 52.3787 94.4483 53.1965 95.0098C54.0266 95.5591 55.0215 95.8338 56.1812 95.8338C57.1333 95.8338 57.9695 95.6507 58.6897 95.2845C59.4099 94.906 59.9775 94.3872 60.3926 93.7281C60.8076 93.0689 61.0518 92.312 61.125 91.4576H65.9041V91.6956V91.9336C65.8186 93.5205 65.3486 94.9243 64.4941 96.1451C63.6396 97.3535 62.4922 98.2996 61.0518 98.9832C59.6113 99.6668 57.9756 100.009 56.1445 100.009C53.8984 100.009 51.9941 99.5569 50.4316 98.6536C48.8691 97.7381 47.679 96.4319 46.8611 94.7351C46.0554 93.0384 45.6526 91.0059 45.6526 88.6377V85.5249C45.6526 83.1568 46.0615 81.1182 46.8794 79.4092C47.6973 77.7002 48.8875 76.3819 50.45 75.4541C52.0247 74.5264 53.9229 74.0625 56.1445 74.0625C57.5117 74.0625 58.7751 74.2639 59.9348 74.6668C61.1067 75.0574 62.126 75.625 62.9927 76.3697C63.8594 77.1143 64.543 77.9932 65.0435 79.0064C65.5562 80.0196 65.843 81.1487 65.9041 82.3938V82.6319V82.8516H61.125C61.0518 81.9605 60.8015 81.167 60.3743 80.4712C59.9592 79.7754 59.3916 79.2322 58.6714 78.8416C57.9512 78.4388 57.1211 78.2373 56.1812 78.2373C55.0337 78.2373 54.0449 78.5242 53.2148 79.0979C52.397 79.6717 51.7683 80.5017 51.3289 81.5882Z" fill="#002C77"/>
</svg>
