<svg width="100" height="100" viewBox="0 0 100 100" fill="none" xmlns="http://www.w3.org/2000/svg">
<g clip-path="url(#clip0_238_210)">
<path d="M17.7281 25.8124C17.4244 25.5362 17.0693 25.3225 16.683 25.1835C16.2968 25.0446 15.8869 24.9831 15.4769 25.0025C15.0669 25.022 14.6647 25.122 14.2933 25.2969C13.9219 25.4717 13.5886 25.718 13.3125 26.0217C12.7547 26.635 12.4634 27.4448 12.5026 28.2729C12.5221 28.6829 12.6221 29.0851 12.797 29.4565C12.9718 29.8279 13.2181 30.1612 13.5218 30.4373L47.8968 61.6873C48.4722 62.2109 49.2221 62.501 50 62.501C50.7778 62.501 51.5277 62.2109 52.1031 61.6873L86.4781 30.4373C86.7818 30.1612 87.0281 29.8279 87.2029 29.4565C87.3778 29.0851 87.4778 28.6829 87.4973 28.2729C87.5167 27.8629 87.4552 27.453 87.3163 27.0668C87.1773 26.6805 86.9636 26.3254 86.6874 26.0217C86.4113 25.718 86.078 25.4717 85.7066 25.2969C85.3352 25.122 84.933 25.022 84.523 25.0025C84.113 24.9831 83.7031 25.0446 83.3169 25.1835C82.9306 25.3225 82.5755 25.5362 82.2718 25.8124L50 55.1499L17.7281 25.8124ZM30.0781 53.8123C30.7247 54.3301 31.1392 55.0835 31.2306 55.9068C31.322 56.7301 31.0828 57.556 30.5656 58.203L18.0656 73.828C17.5476 74.4753 16.7937 74.8903 15.9697 74.9817C15.1457 75.0731 14.3191 74.8335 13.6718 74.3155C13.0245 73.7975 12.6095 73.0436 12.5181 72.2196C12.4267 71.3956 12.6663 70.569 13.1843 69.9217L25.6843 54.2967C25.9407 53.9761 26.2578 53.7092 26.6174 53.5111C26.977 53.3131 27.3722 53.1879 27.7802 53.1426C28.1882 53.0974 28.6012 53.1329 28.9955 53.2473C29.3897 53.3617 29.7576 53.5557 30.0781 53.8123ZM74.3125 54.2967C74.061 53.962 73.7449 53.6813 73.3829 53.4711C73.0209 53.261 72.6204 53.1257 72.2051 53.0733C71.7898 53.0209 71.3682 53.0525 70.9653 53.1661C70.5624 53.2798 70.1865 53.4733 69.8599 53.735C69.5332 53.9968 69.2624 54.3215 69.0637 54.6899C68.8649 55.0583 68.7422 55.4628 68.7028 55.8796C68.6634 56.2963 68.7081 56.7167 68.8343 57.1158C68.9605 57.5149 69.1656 57.8846 69.4374 58.203L81.9374 73.828C82.1889 74.1627 82.505 74.4434 82.867 74.6536C83.229 74.8637 83.6295 74.999 84.0448 75.0514C84.4601 75.1038 84.8817 75.0722 85.2846 74.9586C85.6875 74.8449 86.0634 74.6514 86.39 74.3897C86.7167 74.1279 86.9874 73.8032 87.1862 73.4348C87.385 73.0664 87.5077 72.6619 87.5471 72.2451C87.5865 71.8284 87.5418 71.408 87.4156 71.0089C87.2894 70.6098 87.0843 70.2401 86.8124 69.9217L74.3125 54.2967Z" fill="#002C77"/>
<path fill-rule="evenodd" clip-rule="evenodd" d="M12.5 9.375C9.18479 9.375 6.00537 10.692 3.66117 13.0362C1.31696 15.3804 0 18.5598 0 21.875L0 78.125C0 81.4402 1.31696 84.6196 3.66117 86.9638C6.00537 89.308 9.18479 90.625 12.5 90.625H87.5C90.8152 90.625 93.9946 89.308 96.3388 86.9638C98.683 84.6196 100 81.4402 100 78.125V21.875C100 18.5598 98.683 15.3804 96.3388 13.0362C93.9946 10.692 90.8152 9.375 87.5 9.375H12.5ZM6.25 21.875C6.25 20.2174 6.90848 18.6277 8.08058 17.4556C9.25268 16.2835 10.8424 15.625 12.5 15.625H87.5C89.1576 15.625 90.7473 16.2835 91.9194 17.4556C93.0915 18.6277 93.75 20.2174 93.75 21.875V78.125C93.75 79.7826 93.0915 81.3723 91.9194 82.5444C90.7473 83.7165 89.1576 84.375 87.5 84.375H12.5C10.8424 84.375 9.25268 83.7165 8.08058 82.5444C6.90848 81.3723 6.25 79.7826 6.25 78.125V21.875Z" fill="#002C77"/>
</g>
<defs>
<clipPath id="clip0_238_210">
<rect width="100" height="100" fill="white"/>
</clipPath>
</defs>
</svg>
