<svg width="100" height="100" viewBox="0 0 100 100" fill="none" xmlns="http://www.w3.org/2000/svg">
<g clip-path="url(#clip0_714_44)">
<path d="M86.7438 65.0875C80.6751 61.0688 72.4189 61.7313 67.0751 67.075C61.7314 72.4188 61.0688 80.675 65.0876 86.7438L86.7438 65.0875ZM91.1626 69.5063L69.5064 91.1625C75.5751 95.1813 83.8313 94.5188 89.1751 89.175C94.5188 83.8313 95.1814 75.575 91.1626 69.5063ZM62.6563 62.6563C71.2001 54.1125 85.0501 54.1125 93.5939 62.6563C102.138 71.2 102.138 85.05 93.5939 93.5938C85.0501 102.138 71.2001 102.138 62.6563 93.5938C54.1126 85.05 54.1126 71.2 62.6563 62.6563Z" fill="#CFCFCF"/>
<path d="M12.5 6.25C12.5 2.8 15.3 0 18.75 0H81.25C84.7 0 87.5 2.8 87.5 6.25V46.875C87.5 48.6 86.1 50 84.375 50C82.65 50 81.25 48.6 81.25 46.875V6.25H18.75V93.75H37.5V78.125C37.5 76.4 38.9 75 40.625 75H50V100H18.75C15.3 100 12.5 97.2 12.5 93.75V6.25Z" fill="#CFCFCF"/>
<path d="M28.125 12.5C26.4 12.5 25 13.9 25 15.625V21.875C25 23.6 26.4 25 28.125 25H34.375C36.1 25 37.5 23.6 37.5 21.875V15.625C37.5 13.9 36.1 12.5 34.375 12.5H28.125Z" fill="#CFCFCF"/>
<path d="M46.875 12.5C45.15 12.5 43.75 13.9 43.75 15.625V21.875C43.75 23.6 45.15 25 46.875 25H53.125C54.85 25 56.25 23.6 56.25 21.875V15.625C56.25 13.9 54.85 12.5 53.125 12.5H46.875Z" fill="#CFCFCF"/>
<path d="M65.625 12.5C63.9 12.5 62.5 13.9 62.5 15.625V21.875C62.5 23.6 63.9 25 65.625 25H71.875C73.6 25 75 23.6 75 21.875V15.625C75 13.9 73.6 12.5 71.875 12.5H65.625Z" fill="#CFCFCF"/>
<path d="M28.125 31.25C26.4 31.25 25 32.65 25 34.375V40.625C25 42.35 26.4 43.75 28.125 43.75H34.375C36.1 43.75 37.5 42.35 37.5 40.625V34.375C37.5 32.65 36.1 31.25 34.375 31.25H28.125Z" fill="#CFCFCF"/>
<path d="M46.875 31.25C45.15 31.25 43.75 32.65 43.75 34.375V40.625C43.75 42.35 45.15 43.75 46.875 43.75H53.125C54.85 43.75 56.25 42.35 56.25 40.625V34.375C56.25 32.65 54.85 31.25 53.125 31.25H46.875Z" fill="#CFCFCF"/>
<path d="M65.625 31.25C63.9 31.25 62.5 32.65 62.5 34.375V40.625C62.5 42.35 63.9 43.75 65.625 43.75H71.875C73.6 43.75 75 42.35 75 40.625V34.375C75 32.65 73.6 31.25 71.875 31.25H65.625Z" fill="#CFCFCF"/>
<path d="M28.125 50C26.4 50 25 51.4 25 53.125V59.375C25 61.1 26.4 62.5 28.125 62.5H34.375C36.1 62.5 37.5 61.1 37.5 59.375V53.125C37.5 51.4 36.1 50 34.375 50H28.125Z" fill="#CFCFCF"/>
<path d="M46.875 50C45.15 50 43.75 51.4 43.75 53.125V59.375C43.75 61.1 45.15 62.5 46.875 62.5H53.125C54.85 62.5 56.25 61.1 56.25 59.375V53.125C56.25 51.4 54.85 50 53.125 50H46.875Z" fill="#CFCFCF"/>
</g>
<defs>
<clipPath id="clip0_714_44">
<rect width="100" height="100" fill="white"/>
</clipPath>
</defs>
</svg>
