<svg width="100" height="100" viewBox="0 0 100 100" fill="none" xmlns="http://www.w3.org/2000/svg">
<path d="M45.8193 63.5625C45.8193 60.9737 47.918 58.875 50.5068 58.875C53.0957 58.875 55.1943 60.9737 55.1943 63.5625C55.1943 66.1513 53.0957 68.25 50.5068 68.25C47.918 68.25 45.8193 66.1513 45.8193 63.5625Z" fill="#D9D9D9"/>
<path d="M46.2785 35.4142C46.0288 32.917 47.9899 30.75 50.4996 30.75C53.0093 30.75 54.9704 32.917 54.7207 35.4142L53.0766 51.8554C52.9442 53.1793 51.8301 54.1875 50.4996 54.1875C49.1691 54.1875 48.055 53.1793 47.9227 51.8554L46.2785 35.4142Z" fill="#D9D9D9"/>
<path d="M61.1544 23.7781L56.8371 19.3567L60.1909 16.0819L63.1057 19.067L67.2777 19.0173C74.884 18.9267 81.0733 25.116 80.9827 32.7223L80.933 36.8943L83.9181 39.8091C89.3606 45.1235 89.3606 53.8765 83.9181 59.1909L80.933 62.1057L80.9827 66.2777C81.0733 73.884 74.884 80.0733 67.2777 79.9827L63.1057 79.933L60.1909 82.9181C54.8765 88.3606 46.1235 88.3606 40.8091 82.9181L37.8943 79.933L33.7223 79.9827C26.116 80.0733 19.9267 73.884 20.0173 66.2777L20.067 62.1057L17.0819 59.1909C11.6394 53.8765 11.6394 45.1235 17.0819 39.8091L20.067 36.8943L20.0173 32.7223C19.9267 25.116 26.116 18.9267 33.7223 19.0173L37.8943 19.067L40.8091 16.0819C46.1235 10.6394 54.8765 10.6394 60.1909 16.0819L56.8371 19.3567C53.3619 15.7978 47.6381 15.7978 44.163 19.3567L39.8456 23.7781L33.6664 23.7045C28.6926 23.6453 24.6453 27.6926 24.7045 32.6664L24.7781 38.8456L20.3567 43.163C16.7978 46.6381 16.7978 52.3619 20.3567 55.837L24.7781 60.1544L24.7045 66.3336C24.6453 71.3074 28.6926 75.3547 33.6664 75.2955L39.8456 75.2219L44.163 79.6433C47.6381 83.2022 53.3619 83.2022 56.8371 79.6433L61.1544 75.2219L67.3336 75.2955C72.3074 75.3547 76.3547 71.3074 76.2955 66.3336L76.2219 60.1544L80.6433 55.837C84.2022 52.3619 84.2022 46.6381 80.6433 43.163L76.2219 38.8456L76.2955 32.6664C76.3547 27.6926 72.3074 23.6453 67.3336 23.7045L61.1544 23.7781Z" fill="#D9D9D9"/>
</svg>
