<svg width="32" height="33" viewBox="0 0 32 33" fill="none" xmlns="http://www.w3.org/2000/svg">
<rect x="4" y="4.5" width="24" height="24" rx="12" fill="#6680AD"/>
<path d="M19.1098 10.6098C19.2563 10.4634 19.4937 10.4634 19.6402 10.6098L21.8902 12.8598C22.0366 13.0063 22.0366 13.2437 21.8902 13.3902L14.3902 20.8902C14.3543 20.9261 14.3114 20.9543 14.2643 20.9732L10.5143 22.4732C10.375 22.5289 10.2159 22.4962 10.1098 22.3902C10.0038 22.2841 9.97112 22.125 10.0268 21.9857L11.5268 18.2357C11.5457 18.1886 11.5739 18.1457 11.6098 18.1098L19.1098 10.6098ZM18.4053 12.375L20.125 14.0947L21.0947 13.125L19.375 11.4053L18.4053 12.375ZM19.5947 14.625L17.875 12.9053L13 17.7803V18H13.375C13.5821 18 13.75 18.1679 13.75 18.375V18.75H14.125C14.3321 18.75 14.5 18.9179 14.5 19.125V19.5H14.7197L19.5947 14.625ZM12.2737 18.5066L12.1946 18.5857L11.0482 21.4519L13.9143 20.3054L13.9934 20.2263C13.8512 20.173 13.75 20.0358 13.75 19.875V19.5H13.375C13.1679 19.5 13 19.3321 13 19.125V18.75H12.625C12.4642 18.75 12.327 18.6488 12.2737 18.5066Z" fill="white"/>
</svg>
