<svg width="100" height="100" viewBox="0 0 100 100" fill="none" xmlns="http://www.w3.org/2000/svg">
<path d="M83.125 76.5625L66.875 73.4375C62.5 72.5 59.375 68.75 59.375 64.0625V61.5625C68.125 60 76.875 56.875 81.25 53.125C72.5 44.0625 71.875 35.3125 71.875 24.6875C71.5625 12.8125 61.875 3.125 50 3.125C37.8125 3.125 28.125 12.8125 28.125 25C28.125 34.375 28.125 44.0625 18.75 53.125C23.125 56.875 31.875 60 40.625 61.5625V64.0625C40.625 68.4375 37.5 72.5 33.125 73.125L16.875 76.25C12.5 77.5 9.375 81.25 9.375 85.9375V96.875H90.625V85.9375C90.625 81.25 87.5 77.5 83.125 76.5625Z" stroke="#002C77" stroke-width="6" stroke-miterlimit="10" stroke-linecap="round" stroke-linejoin="round"/>
</svg>
