<svg width="218" height="218" viewBox="0 0 218 218" fill="none" xmlns="http://www.w3.org/2000/svg">
<path d="M204.375 190.75C204.375 190.75 218 190.75 218 177.125C218 163.5 204.375 122.625 149.875 122.625C95.375 122.625 81.75 163.5 81.75 177.125C81.75 190.75 95.375 190.75 95.375 190.75H204.375ZM95.6747 177.125C95.5741 177.111 95.4741 177.093 95.375 177.071C95.3886 173.474 97.6504 163.037 105.73 153.636C113.251 144.82 126.467 136.25 149.875 136.25C173.269 136.25 186.485 144.834 194.02 153.636C202.1 163.037 204.348 173.487 204.375 177.071L204.266 177.098C204.203 177.108 204.139 177.118 204.075 177.125H95.6747ZM149.875 95.375C157.102 95.375 164.033 92.504 169.144 87.3937C174.254 82.2833 177.125 75.3521 177.125 68.125C177.125 60.8979 174.254 53.9667 169.144 48.8563C164.033 43.746 157.102 40.875 149.875 40.875C142.648 40.875 135.717 43.746 130.606 48.8563C125.496 53.9667 122.625 60.8979 122.625 68.125C122.625 75.3521 125.496 82.2833 130.606 87.3937C135.717 92.504 142.648 95.375 149.875 95.375ZM190.75 68.125C190.75 73.4928 189.693 78.808 187.639 83.7672C185.584 88.7264 182.574 93.2324 178.778 97.028C174.982 100.824 170.476 103.834 165.517 105.889C160.558 107.943 155.243 109 149.875 109C144.507 109 139.192 107.943 134.233 105.889C129.274 103.834 124.768 100.824 120.972 97.028C117.176 93.2324 114.166 88.7264 112.111 83.7672C110.057 78.808 109 73.4928 109 68.125C109 57.2843 113.306 46.8876 120.972 39.222C128.638 31.5565 139.034 27.25 149.875 27.25C160.716 27.25 171.112 31.5565 178.778 39.222C186.444 46.8876 190.75 57.2843 190.75 68.125ZM94.503 126.44C89.0527 124.724 83.4345 123.596 77.7442 123.075C74.5469 122.771 71.3368 122.621 68.125 122.625C13.625 122.625 0 163.5 0 177.125C0 186.213 4.53713 190.75 13.625 190.75H71.068C69.0482 186.496 68.0408 181.833 68.125 177.125C68.125 163.364 73.2616 149.303 82.9763 137.558C86.2871 133.552 90.143 129.805 94.503 126.44ZM67.035 136.25C58.9711 148.366 54.615 162.571 54.5 177.125H13.625C13.625 173.583 15.8595 163.091 23.98 153.636C31.4056 144.97 44.3085 136.523 67.035 136.264V136.25ZM20.4375 74.9375C20.4375 64.0968 24.744 53.7001 32.4095 46.0345C40.0751 38.369 50.4718 34.0625 61.3125 34.0625C72.1532 34.0625 82.5499 38.369 90.2155 46.0345C97.881 53.7001 102.187 64.0968 102.188 74.9375C102.188 85.7782 97.881 96.1749 90.2155 103.84C82.5499 111.506 72.1532 115.812 61.3125 115.812C50.4718 115.812 40.0751 111.506 32.4095 103.84C24.744 96.1749 20.4375 85.7782 20.4375 74.9375ZM61.3125 47.6875C54.0854 47.6875 47.1542 50.5585 42.0438 55.6688C36.9335 60.7792 34.0625 67.7104 34.0625 74.9375C34.0625 82.1646 36.9335 89.0958 42.0438 94.2062C47.1542 99.3165 54.0854 102.187 61.3125 102.188C68.5396 102.187 75.4708 99.3165 80.5812 94.2062C85.6915 89.0958 88.5625 82.1646 88.5625 74.9375C88.5625 67.7104 85.6915 60.7792 80.5812 55.6688C75.4708 50.5585 68.5396 47.6875 61.3125 47.6875Z" fill="#002C77"/>
</svg>
