<svg width="756" height="167" viewBox="0 0 756 167" fill="none" xmlns="http://www.w3.org/2000/svg">
<g clip-path="url(#clip0_12_1414)">
<path d="M157.17 69.89V4.15002H170L192.66 39.44L215.56 4.15002H228V69.89H216.08V22.31L192.55 58.73L169.11 22.4V69.89H157.17Z" fill="#002C77"/>
<path d="M267.37 71.44C262.389 71.5437 257.448 70.5181 252.92 68.44C248.805 66.5126 245.349 63.4175 242.98 59.54C240.435 55.1602 239.174 50.1528 239.34 45.09C239.239 40.2765 240.357 35.5157 242.59 31.25C244.661 27.3621 247.756 24.1148 251.54 21.86C255.498 19.5474 260.016 18.3678 264.6 18.45C268.882 18.3494 273.112 19.4103 276.84 21.52C280.311 23.5487 283.121 26.5391 284.93 30.13C286.911 34.1713 287.889 38.6306 287.78 43.13C287.78 43.82 287.78 44.5 287.7 45.13C287.62 45.76 287.55 46.79 287.44 48.13H250.76C251.275 51.9692 253.261 55.4582 256.3 57.86C259.3 60.1867 263.337 61.3534 268.41 61.36C274.849 61.378 281.113 59.2688 286.23 55.36V65.56C283.5 67.4161 280.511 68.8584 277.36 69.84C274.134 70.8934 270.763 71.4333 267.37 71.44ZM264.08 27.44C262.426 27.3709 260.776 27.6384 259.229 28.2263C257.682 28.8142 256.27 29.7102 255.08 30.86C252.767 33.14 251.323 36.3267 250.75 40.42H276.7C276.706 39.7495 276.649 39.0799 276.53 38.42C276.187 35.2996 274.744 32.4033 272.46 30.25C270.119 28.2898 267.13 27.2767 264.08 27.41V27.44Z" fill="#002C77"/>
<path d="M298.25 69.89V20H309.41L309.5 30.39C310.695 27.1528 312.795 24.3273 315.55 22.25C318.193 20.2674 321.416 19.2128 324.72 19.25C325.821 19.2603 326.921 19.3472 328.01 19.51C329.033 19.6269 330.039 19.8583 331.01 20.2V31.31C329.821 30.961 328.608 30.7003 327.38 30.53C326.007 30.3087 324.62 30.1917 323.23 30.18C318.897 30.18 315.593 31.58 313.32 34.38C311.05 37.17 309.91 41.23 309.91 46.53V69.89H298.25Z" fill="#002C77"/>
<path d="M362.69 71.44C357.83 71.5525 353.019 70.4527 348.69 68.24C344.783 66.1818 341.576 63.007 339.48 59.12C337.233 54.8419 336.114 50.0611 336.23 45.23C336.126 40.3555 337.272 35.5356 339.56 31.23C341.709 27.2967 344.917 24.0439 348.82 21.84C353.014 19.53 357.743 18.3675 362.53 18.47C364.956 18.4492 367.373 18.769 369.71 19.42C371.836 20.0262 373.917 20.7779 375.94 21.67V32.43C372.139 30.1689 367.812 28.9448 363.39 28.88C358.723 28.88 354.99 30.31 352.19 33.17C349.39 36.03 347.993 39.9066 348 44.8C348 49.9333 349.397 53.9333 352.19 56.8C354.983 59.6666 358.863 61.0933 363.83 61.08C365.784 61.0895 367.73 60.8441 369.62 60.35C371.782 59.7446 373.895 58.9757 375.94 58.05V68.35C373.99 69.3079 371.945 70.0618 369.84 70.6C367.502 71.1797 365.099 71.4619 362.69 71.44Z" fill="#002C77"/>
<path d="M411.82 71.44C406.842 71.5422 401.905 70.5166 397.38 68.44C393.263 66.5127 389.803 63.4178 387.43 59.54C385.01 55.6067 383.8 50.79 383.8 45.09C383.679 40.2706 384.779 35.499 387 31.22C389.087 27.3276 392.2 24.0805 396 21.83C399.961 19.5156 404.483 18.3359 409.07 18.42C413.352 18.3194 417.582 19.3802 421.31 21.49C424.776 23.5219 427.582 26.5117 429.39 30.1C431.38 34.1383 432.362 38.5992 432.25 43.1C432.25 43.79 432.25 44.47 432.16 45.1C432.07 45.73 432.02 46.76 431.9 48.1H395.22C395.731 51.938 397.714 55.4271 400.75 57.83C403.75 60.1567 407.787 61.3233 412.86 61.33C419.299 61.348 425.563 59.2388 430.68 55.33V65.56C427.952 67.418 424.962 68.8604 421.81 69.84C418.585 70.8948 415.213 71.4347 411.82 71.44ZM408.54 27.44C406.887 27.3732 405.237 27.6418 403.69 28.2296C402.144 28.8173 400.732 29.7121 399.54 30.86C397.233 33.14 395.793 36.3267 395.22 40.42H421.17C421.178 39.7489 421.118 39.0788 420.99 38.42C420.651 35.3007 419.211 32.4042 416.93 30.25C414.586 28.2891 411.593 27.2761 408.54 27.41V27.44Z" fill="#002C77"/>
<path d="M442.7 69.8899V19.9999H453.86L454 30.3599C455.181 27.129 457.263 24.3042 460 22.2199C462.643 20.2374 465.866 19.1828 469.17 19.2199C470.271 19.2303 471.371 19.3172 472.46 19.4799C473.483 19.5966 474.489 19.8281 475.46 20.1699V31.3099C474.267 30.9622 473.051 30.7015 471.82 30.5299C470.447 30.3087 469.06 30.1917 467.67 30.1799C463.35 30.1799 460.05 31.5799 457.77 34.3799C455.49 37.1699 454.35 41.2299 454.35 46.5299V69.8899H442.7Z" fill="#002C77"/>
<path d="M485.26 69.89V4.15002H498.06L520.73 39.44L543.65 4.15002H556.11V69.89H544.17V22.31L520.64 58.73L497.2 22.4V69.89H485.26Z" fill="#002C77"/>
<path d="M584.65 71.4399C579.463 71.4399 575.297 70.0133 572.15 67.1599C570.586 65.7211 569.354 63.9584 568.54 61.9947C567.727 60.031 567.351 57.9136 567.44 55.7899C567.362 52.6491 568.234 49.5579 569.94 46.9199C571.692 44.324 574.138 42.2727 577 40.9999C580.377 39.5223 584.035 38.7989 587.72 38.8799C592.227 38.8274 596.699 39.681 600.87 41.3899V41.2099C600.87 37.0099 599.76 33.7999 597.54 31.6099C595.32 29.4199 591.9 28.3299 587.29 28.3299C584.477 28.3675 581.684 28.8156 579 29.6599C576.159 30.525 573.462 31.8091 571 33.4699V23.1799C573.541 21.7768 576.223 20.6439 579 19.7999C582.083 18.867 585.289 18.4018 588.51 18.4199C595.89 18.4199 601.557 20.3233 605.51 24.1299C609.463 27.9366 611.463 33.3866 611.51 40.4799V69.8899H601.43L601.26 62.6199C599.796 65.4033 597.494 67.6561 594.68 69.0599C591.585 70.6715 588.139 71.4893 584.65 71.4399ZM578.33 55.0899C578.269 56.1718 578.456 57.2534 578.877 58.2518C579.298 59.2502 579.942 60.1389 580.76 60.8499C582.698 62.2951 585.087 63.004 587.5 62.8499C591.6 62.8499 594.773 61.6833 597.02 59.3499C599.267 57.0166 600.537 53.6266 600.83 49.1799C597.281 47.6519 593.443 46.9083 589.58 46.9999C585.887 46.9999 583.09 47.7066 581.19 49.1199C580.262 49.8061 579.517 50.7089 579.018 51.7495C578.52 52.7902 578.283 53.937 578.33 55.0899Z" fill="#002C77"/>
<path d="M623.92 69.89V20H635.08L635.17 30.39C636.365 27.1528 638.465 24.3273 641.22 22.25C643.863 20.2674 647.086 19.2128 650.39 19.25C651.491 19.2603 652.591 19.3472 653.68 19.51C654.703 19.6269 655.709 19.8583 656.68 20.2V31.31C655.491 30.961 654.278 30.7003 653.05 30.53C651.677 30.3087 650.29 30.1917 648.9 30.18C644.573 30.18 641.27 31.58 638.99 34.38C636.72 37.17 635.58 41.23 635.58 46.53V69.89H623.92Z" fill="#002C77"/>
<path d="M679.19 71.4399C677.226 71.4234 675.269 71.2056 673.35 70.7899C671.286 70.3648 669.263 69.766 667.3 68.9999C665.533 68.3355 663.838 67.4946 662.24 66.4899V56.2999C667 59.8139 672.754 61.7226 678.67 61.7499C682.08 61.7499 684.56 61.3399 686.11 60.4999C686.842 60.1434 687.454 59.5803 687.87 58.8802C688.286 58.18 688.487 57.3734 688.45 56.5599C688.451 55.7982 688.256 55.0491 687.885 54.3839C687.514 53.7187 686.978 53.1596 686.33 52.7599C684.92 51.7599 682.19 50.6499 678.16 49.3799C672.5 47.5999 668.5 45.5266 666.16 43.1599C663.82 40.7933 662.653 37.5933 662.66 33.5599C662.572 31.4402 662.99 29.3301 663.878 27.4036C664.767 25.477 666.101 23.7894 667.77 22.4799C671.17 19.7666 675.81 18.4133 681.69 18.4199C684.297 18.4721 686.885 18.8655 689.39 19.5899C692.017 20.2681 694.547 21.2761 696.92 22.5899V32.7799C694.794 31.2566 692.428 30.1006 689.92 29.3599C687.363 28.5114 684.693 28.053 682 27.9999C676.58 27.9999 673.87 29.6433 673.87 32.9299C673.837 33.8124 674.097 34.6809 674.61 35.3999C675.35 36.2532 676.282 36.9182 677.33 37.3399C679.171 38.1871 681.065 38.9152 683 39.5199C686.519 40.5775 689.902 42.0442 693.08 43.8899C695.262 45.1491 697.078 46.9551 698.35 49.1299C699.496 51.3427 700.063 53.8091 700 56.2999C700.05 58.4602 699.558 60.5987 698.57 62.5201C697.581 64.4416 696.127 66.0848 694.34 67.2999C690.527 70.0599 685.477 71.4399 679.19 71.4399Z" fill="#002C77"/>
<path d="M710.07 69.89V4.15002H721.75V27.15C723.151 24.433 725.326 22.192 728 20.71C730.86 19.1438 734.08 18.3542 737.34 18.42C743.107 18.42 747.547 20.25 750.66 23.91C753.773 27.57 755.33 32.8334 755.33 39.7V69.89H743.63V41.89C743.63 33.1767 740.297 28.8234 733.63 28.83C731.999 28.7475 730.37 29.0347 728.865 29.6702C727.36 30.3057 726.018 31.2731 724.94 32.5C722.827 34.96 721.773 38.4067 721.78 42.84V69.89H710.07Z" fill="#002C77"/>
<path d="M157.17 165.21V99.47H181.3C188.053 99.47 193.273 100.927 196.96 103.84C200.647 106.753 202.493 110.89 202.5 116.25C202.54 119.235 201.677 122.162 200.025 124.647C198.372 127.133 196.007 129.062 193.24 130.18C196.9 130.884 200.186 132.878 202.5 135.8C204.779 138.772 205.969 142.436 205.87 146.18C205.87 152.287 203.87 156.987 199.87 160.28C195.87 163.573 190.16 165.217 182.74 165.21H157.17ZM180.17 109.16H168.17V126.63H179.93C183.79 126.63 186.63 125.85 188.45 124.29C190.27 122.74 191.17 120.37 191.17 117.2C191.163 111.84 187.5 109.16 180.18 109.16H180.17ZM181.64 136.06H168.16V155.52H182.51C186.26 155.52 189.15 154.69 191.16 153.01C192.172 152.139 192.969 151.045 193.489 149.816C194.009 148.586 194.239 147.253 194.16 145.92C194.242 144.539 193.999 143.159 193.45 141.889C192.901 140.619 192.062 139.496 191 138.61C188.92 136.91 185.803 136.06 181.65 136.06H181.64Z" fill="#002C77"/>
<path d="M241.25 166.77C236.269 166.874 231.328 165.848 226.8 163.77C222.667 161.841 219.191 158.744 216.8 154.86C214.38 150.94 213.17 146.123 213.17 140.41C213.067 135.597 214.182 130.837 216.41 126.57C218.499 122.681 221.611 119.438 225.41 117.19C229.365 114.869 233.885 113.686 238.47 113.77C242.752 113.674 246.98 114.735 250.71 116.84C254.179 118.871 256.988 121.861 258.8 125.45C260.781 129.491 261.759 133.951 261.65 138.45C261.65 139.15 261.65 139.82 261.56 140.45C261.47 141.08 261.42 142.1 261.3 143.45H224.64C225.151 147.29 227.139 150.78 230.18 153.18C233.167 155.52 237.203 156.69 242.29 156.69C248.733 156.693 254.996 154.562 260.1 150.63V160.92C257.372 162.775 254.387 164.221 251.24 165.21C248.011 166.245 244.641 166.771 241.25 166.77ZM237.96 122.77C236.308 122.704 234.659 122.972 233.113 123.558C231.566 124.144 230.154 125.036 228.96 126.18C226.498 128.798 224.978 132.162 224.64 135.74H250.64C250.646 135.069 250.589 134.4 250.47 133.74C250.12 130.622 248.679 127.727 246.4 125.57C244.051 123.612 241.055 122.603 238 122.74L237.96 122.77Z" fill="#002C77"/>
<path d="M272.13 165.21V115.3H283.37L283.46 123.3C284.776 120.375 286.967 117.929 289.73 116.3C292.652 114.595 295.987 113.727 299.37 113.79C305.137 113.79 309.58 115.62 312.7 119.28C315.82 122.94 317.377 128.18 317.37 135V165.19H305.69V137.19C305.69 128.49 302.357 124.137 295.69 124.13C294.056 124.049 292.426 124.338 290.919 124.975C289.413 125.613 288.07 126.582 286.99 127.81C284.89 130.257 283.837 133.7 283.83 138.14V165.22L272.13 165.21Z" fill="#002C77"/>
<path d="M354.73 166.77C349.752 166.872 344.815 165.847 340.29 163.77C336.156 161.844 332.679 158.745 330.29 154.86C327.87 150.94 326.66 146.123 326.66 140.41C326.583 135.579 327.732 130.807 330 126.54C332.074 122.657 335.168 119.414 338.95 117.16C342.903 114.843 347.418 113.659 352 113.74C356.279 113.643 360.504 114.704 364.23 116.81C367.701 118.839 370.511 121.829 372.32 125.42C374.31 129.459 375.291 133.919 375.18 138.42C375.18 139.12 375.18 139.79 375.09 140.42C375 141.05 374.95 142.07 374.83 143.42H338.13C338.638 147.259 340.622 150.749 343.66 153.15C346.66 155.49 350.697 156.66 355.77 156.66C362.216 156.665 368.483 154.534 373.59 150.6V160.89C370.86 162.747 367.871 164.193 364.72 165.18C361.493 166.227 358.122 166.763 354.73 166.77ZM351.45 122.77C349.798 122.704 348.149 122.972 346.603 123.558C345.056 124.144 343.644 125.036 342.45 126.18C340.143 128.46 338.703 131.647 338.13 135.74H364.08C364.088 135.069 364.028 134.399 363.9 133.74C363.558 130.621 362.119 127.726 359.84 125.57C357.493 123.616 354.501 122.607 351.45 122.74V122.77Z" fill="#002C77"/>
<path d="M390.28 165.21V125.94H380.77V116.16H390.28C390.4 110.053 391.973 105.413 395 102.24C398.027 99.0666 402.393 97.48 408.1 97.48C409.537 97.4902 410.971 97.6072 412.39 97.83C413.98 98.0638 415.553 98.3978 417.1 98.83V108.26C415.87 107.791 414.592 107.455 413.29 107.26C412.087 107.093 410.874 107.006 409.66 107C408.583 106.926 407.503 107.103 406.506 107.516C405.508 107.929 404.62 108.567 403.91 109.38C402.483 111.312 401.776 113.682 401.91 116.08H417.1V125.86H402V165.13L390.28 165.21Z" fill="#002C77"/>
<path d="M437.69 103.19C437.718 104.137 437.555 105.08 437.212 105.963C436.868 106.846 436.351 107.651 435.69 108.33C434.28 109.642 432.426 110.371 430.5 110.371C428.574 110.371 426.72 109.642 425.31 108.33C424.03 106.922 423.321 105.088 423.321 103.185C423.321 101.282 424.03 99.448 425.31 98.04C426.723 96.7349 428.576 96.0101 430.5 96.0101C432.424 96.0101 434.277 96.7349 435.69 98.04C436.351 98.7208 436.869 99.5275 437.212 100.412C437.556 101.297 437.718 102.241 437.69 103.19ZM424.69 165.19V115.3H436.37V165.21L424.69 165.19Z" fill="#002C77"/>
<path d="M471.51 166.77C465.63 166.77 461.277 165.067 458.45 161.66C455.623 158.253 454.21 153.323 454.21 146.87V125.94H443.91V116.16H454.21V102.84H465.88V116.16H482.15V125.94H465.88V145.94C465.88 149.573 466.503 152.21 467.75 153.85C468.98 155.5 470.96 156.32 473.67 156.32C475.553 156.306 477.422 155.999 479.21 155.41C480.926 154.887 482.58 154.176 484.14 153.29V163.93C482.19 164.812 480.161 165.509 478.08 166.01C475.928 166.526 473.723 166.781 471.51 166.77Z" fill="#002C77"/>
<path d="M507.06 166.77C505.096 166.75 503.14 166.532 501.22 166.12C499.155 165.693 497.128 165.098 495.16 164.34C493.394 163.679 491.698 162.841 490.1 161.84V151.63C494.866 155.138 500.622 157.046 506.54 157.08C509.94 157.08 512.42 156.66 513.98 155.82C514.711 155.466 515.322 154.904 515.736 154.205C516.151 153.507 516.35 152.701 516.31 151.89C516.314 151.126 516.121 150.374 515.75 149.707C515.379 149.039 514.841 148.479 514.19 148.08C512.777 147.1 510.053 145.977 506.02 144.71C500.373 142.917 496.373 140.84 494.02 138.48C491.667 136.12 490.5 132.92 490.52 128.88C490.434 126.763 490.852 124.656 491.739 122.732C492.625 120.807 493.955 119.121 495.62 117.81C499.02 115.097 503.663 113.74 509.55 113.74C512.157 113.793 514.745 114.186 517.25 114.91C519.873 115.591 522.399 116.599 524.77 117.91V128.1C522.643 126.579 520.277 125.423 517.77 124.68C515.216 123.837 512.549 123.386 509.86 123.34C504.44 123.34 501.73 124.983 501.73 128.27C501.694 129.151 501.951 130.02 502.46 130.74C503.206 131.591 504.141 132.255 505.19 132.68C507.042 133.524 508.946 134.248 510.89 134.85C514.412 135.901 517.795 137.368 520.97 139.22C523.154 140.476 524.973 142.278 526.25 144.45C527.375 146.672 527.925 149.141 527.85 151.63C527.893 153.79 527.398 155.927 526.408 157.848C525.418 159.769 523.965 161.412 522.18 162.63C518.38 165.39 513.34 166.77 507.06 166.77Z" fill="#002C77"/>
<path d="M120.93 15.94L94.65 0.799969C93.6067 0.272659 92.454 -0.0020752 91.285 -0.0020752C90.116 -0.0020752 88.9633 0.272659 87.92 0.799969L15.4 42.57L55.53 11.83L36.38 0.799969C35.3367 0.272659 34.184 -0.0020752 33.015 -0.0020752C31.846 -0.0020752 30.6933 0.272659 29.65 0.799969L3.36 15.94C2.38369 16.5796 1.57109 17.4394 0.987528 18.4502C0.403965 19.461 0.0657237 20.5946 0 21.76L0 52C0.0657237 53.1653 0.403965 54.2989 0.987528 55.3097C1.57109 56.3206 2.38369 57.1803 3.36 57.82L29.65 73C30.6933 73.5273 31.846 73.802 33.015 73.802C34.184 73.802 35.3367 73.5273 36.38 73L108.9 31.23L68.77 62L87.92 73C88.9633 73.5273 90.116 73.802 91.285 73.802C92.454 73.802 93.6067 73.5273 94.65 73L120.93 57.86C121.915 57.2187 122.733 56.3534 123.319 55.3348C123.905 54.3163 124.241 53.1735 124.3 52V21.77C124.235 20.6019 123.897 19.4653 123.311 18.4525C122.726 17.4396 121.91 16.5789 120.93 15.94Z" fill="#002C77"/>
</g>
<defs>
<clipPath id="clip0_12_1414">
<rect width="755.31" height="166.77" fill="white"/>
</clipPath>
</defs>
</svg>
