<svg width="100" height="100" viewBox="0 0 100 100" fill="none" xmlns="http://www.w3.org/2000/svg">
<g clip-path="url(#clip0_238_213)">
<path d="M3.4375 45.3125C16.875 27.1875 40.9375 47.8125 67.1875 24.375C80 44.6875 96.875 45.625 96.875 45.625" stroke="#002C77" stroke-width="6" stroke-miterlimit="10" stroke-linecap="round" stroke-linejoin="round"/>
<path d="M50 96.875C75.8884 96.875 96.875 75.8884 96.875 50C96.875 24.1117 75.8884 3.125 50 3.125C24.1117 3.125 3.125 24.1117 3.125 50C3.125 75.8884 24.1117 96.875 50 96.875Z" stroke="#002C77" stroke-width="6" stroke-miterlimit="10" stroke-linecap="round" stroke-linejoin="round"/>
<path d="M28.125 62.5C29.8509 62.5 31.25 61.1009 31.25 59.375C31.25 57.6491 29.8509 56.25 28.125 56.25C26.3991 56.25 25 57.6491 25 59.375C25 61.1009 26.3991 62.5 28.125 62.5Z" stroke="#002C77" stroke-width="2" stroke-miterlimit="10" stroke-linecap="round" stroke-linejoin="round"/>
<path d="M71.875 62.5C73.6009 62.5 75 61.1009 75 59.375C75 57.6491 73.6009 56.25 71.875 56.25C70.1491 56.25 68.75 57.6491 68.75 59.375C68.75 61.1009 70.1491 62.5 71.875 62.5Z" stroke="#002C77" stroke-width="2" stroke-miterlimit="10" stroke-linecap="round" stroke-linejoin="round"/>
<path d="M28.125 62.5C29.8509 62.5 31.25 61.1009 31.25 59.375C31.25 57.6491 29.8509 56.25 28.125 56.25C26.3991 56.25 25 57.6491 25 59.375C25 61.1009 26.3991 62.5 28.125 62.5Z" fill="#002C77"/>
<path d="M74.5 59.375C74.5 60.8247 73.3247 62 71.875 62C70.4253 62 69.25 60.8247 69.25 59.375C69.25 57.9253 70.4253 56.75 71.875 56.75C73.3247 56.75 74.5 57.9253 74.5 59.375Z" fill="#002C77" stroke="#00267A"/>
</g>
<defs>
<clipPath id="clip0_238_213">
<rect width="100" height="100" fill="white"/>
</clipPath>
</defs>
</svg>
