<svg width="100" height="100" viewBox="0 0 100 100" fill="none" xmlns="http://www.w3.org/2000/svg">
<path fill-rule="evenodd" clip-rule="evenodd" d="M52.8025 23.6172C52.2762 22.5504 51.1897 21.875 50 21.875C48.8106 21.875 47.724 22.5504 47.1978 23.6172L41.834 34.4878L29.8378 36.2325C28.6609 36.4038 27.6831 37.2281 27.3155 38.3594C26.948 39.4906 27.2545 40.7322 28.1061 41.5625L36.7859 50.025L34.7359 61.9716C34.5347 63.1437 35.0165 64.3288 35.9787 65.0281C36.9412 65.7275 38.2172 65.8197 39.27 65.2659L50 59.6244L60.7303 65.2659C61.7831 65.8197 63.059 65.7275 64.0215 65.0281C64.9837 64.3288 65.4656 63.1437 65.2644 61.9716L63.2144 50.025L71.894 41.5625C72.7456 40.7322 73.0522 39.4906 72.6847 38.3594C72.3172 37.2281 71.3394 36.4038 70.1625 36.2325L58.1662 34.4878L52.8025 23.6172ZM46.7119 38.7266L50 32.0625L53.2884 38.7266C53.7434 39.6488 54.6231 40.2881 55.6409 40.4363L62.9987 41.5062L57.675 46.6969C56.9384 47.4147 56.6025 48.4494 56.7766 49.4628L58.0334 56.7869L51.4544 53.3278C50.5441 52.8491 49.4562 52.8491 48.5459 53.3278L41.9669 56.7869L43.2237 49.4628C43.3978 48.4494 43.0619 47.4147 42.3253 46.6969L37.0015 41.5062L44.3594 40.4363C45.3772 40.2881 46.2569 39.6488 46.7119 38.7266Z" fill="#002C77"/>
<path fill-rule="evenodd" clip-rule="evenodd" d="M50.8584 3.24525C50.2975 3.08492 49.7025 3.08492 49.1416 3.24525L5.3915 15.7452C4.04994 16.1285 3.125 17.3547 3.125 18.75C3.125 49.3 14.4146 68.8147 25.8769 80.6862C31.5809 86.5937 37.2894 90.5719 41.5894 93.0803C43.7409 94.3353 45.5453 95.2256 46.8281 95.8081C47.4697 96.0994 47.9816 96.3141 48.3422 96.4591C48.5225 96.5316 48.665 96.5869 48.7669 96.6256L48.8894 96.6712L48.9272 96.685L48.94 96.6897L48.945 96.6916C48.945 96.6916 48.9491 96.6928 50 93.75L48.9491 96.6928C49.6287 96.9356 50.3713 96.9356 51.0509 96.6928L50 93.75C51.0509 96.6928 51.055 96.6916 51.055 96.6916L51.06 96.6897L51.0728 96.685L51.1106 96.6712L51.2331 96.6256C51.335 96.5869 51.4775 96.5316 51.6578 96.4591C52.0184 96.3141 52.5303 96.0994 53.1719 95.8081C54.4547 95.2256 56.2591 94.3353 58.4106 93.0803C62.7106 90.5719 68.4191 86.5937 74.1231 80.6862C85.5853 68.8147 96.875 49.3 96.875 18.75C96.875 17.3547 95.95 16.1285 94.6084 15.7452L50.8584 3.24525ZM50.5878 90.1172C50.3725 90.215 50.1759 90.3019 50 90.3781C49.8241 90.3019 49.6275 90.215 49.4122 90.1172C48.3025 89.6134 46.6887 88.8191 44.7388 87.6816C40.8356 85.4047 35.6066 81.7656 30.3731 76.345C20.2463 65.8566 9.95628 48.5572 9.39872 21.1004L50 9.50006L90.6012 21.1004C90.0437 48.5572 79.7537 65.8566 69.6269 76.345C64.3934 81.7656 59.1644 85.4047 55.2612 87.6816C53.3112 88.8191 51.6975 89.6134 50.5878 90.1172Z" fill="#002C77"/>
</svg>
