<svg width="24" height="24" viewBox="0 0 24 24" fill="none" xmlns="http://www.w3.org/2000/svg">
<g clip-path="url(#clip0_1331_1365)">
<path fill-rule="evenodd" clip-rule="evenodd" d="M7.62893 0.96858C7.15848 0.741687 6.62276 0.689216 6.11724 0.820515L2.40474 1.78351L2.4036 1.78381C1.87944 1.92066 1.42371 2.24506 1.12278 2.69551C0.821845 3.14596 0.69664 3.69116 0.770883 4.22777L0.771093 4.22928C1.44523 9.02993 3.66394 13.4806 7.09182 16.9085C10.5197 20.3363 14.9704 22.5551 19.771 23.2292L19.7729 23.2295C20.3093 23.3034 20.8543 23.1781 21.3044 22.8772C21.7547 22.5763 22.0789 22.1207 22.2158 21.5968L22.2161 21.5956L23.1791 17.8829C23.31 17.3777 23.2574 16.8425 23.0307 16.3724C22.804 15.9024 22.4175 15.5279 21.9407 15.3158L17.5495 13.3658C17.1048 13.1682 16.6073 13.1232 16.1345 13.238C15.6615 13.3527 15.2398 13.6208 14.9351 14.0003L15.5201 14.4698L14.9344 14.0013L13.6363 15.6242C11.5224 14.2729 9.72743 12.4779 8.37608 10.364L9.99945 9.06563C10.3794 8.76128 10.6479 8.3397 10.763 7.86668C10.8782 7.3937 10.8335 6.89579 10.636 6.45085L8.68598 2.0596C8.47403 1.58216 8.0994 1.19551 7.62893 0.96858ZM14.3942 17.078L16.105 14.9392C16.2023 14.8182 16.3372 14.7323 16.4882 14.6957C16.6392 14.659 16.7986 14.6735 16.9407 14.7367L21.332 16.6867C21.4841 16.7545 21.6073 16.874 21.6797 17.024C21.752 17.1742 21.7688 17.3453 21.7271 17.5067L20.7644 21.2177L20.7641 21.2186C20.72 21.387 20.6156 21.5333 20.471 21.6301C20.3262 21.7268 20.151 21.7672 19.9785 21.7436C15.5009 21.1146 11.3498 19.0451 8.1525 15.8478C4.95516 12.6505 2.88561 8.49923 2.25664 4.02155C2.23292 3.84895 2.27326 3.67363 2.37005 3.52876C2.46687 3.38383 2.61391 3.2793 2.78252 3.23516L6.49422 2.27237C6.65576 2.23039 6.82696 2.24714 6.9773 2.31965C7.12764 2.39215 7.24739 2.51581 7.3151 2.66837L9.26513 7.05962C9.32813 7.20176 9.34238 7.36076 9.30563 7.51185C9.2688 7.66298 9.18308 7.79768 9.06165 7.89488L6.92233 9.60608C6.63117 9.83895 6.5553 10.2503 6.74422 10.5718C8.36693 13.3326 10.6677 15.6334 13.4285 17.2561C13.75 17.445 14.1614 17.3691 14.3942 17.078Z" fill="#6F6F6F"/>
<path d="M12.75 1.5C12.75 1.08579 13.0858 0.75 13.5 0.75C16.0858 0.75 18.5658 1.77723 20.3943 3.60571C22.2228 5.43418 23.25 7.91415 23.25 10.5C23.25 10.9142 22.9142 11.25 22.5 11.25C22.0858 11.25 21.75 10.9142 21.75 10.5C21.75 8.31195 20.8808 6.21355 19.3337 4.66637C17.7865 3.1192 15.688 2.25 13.5 2.25C13.0858 2.25 12.75 1.91421 12.75 1.5Z" fill="#6F6F6F"/>
<path d="M12.75 6C12.75 5.58579 13.0858 5.25 13.5 5.25C14.8924 5.25 16.2277 5.80313 17.2123 6.78769C18.1969 7.77225 18.75 9.10762 18.75 10.5C18.75 10.9142 18.4142 11.25 18 11.25C17.5858 11.25 17.25 10.9142 17.25 10.5C17.25 9.50543 16.8549 8.55158 16.1516 7.84838C15.4484 7.14509 14.4946 6.75 13.5 6.75C13.0858 6.75 12.75 6.41421 12.75 6Z" fill="#6F6F6F"/>
</g>
<defs>
<clipPath id="clip0_1331_1365">
<rect width="24" height="24" fill="white"/>
</clipPath>
</defs>
</svg>
