<svg width="100" height="100" viewBox="0 0 100 100" fill="none" xmlns="http://www.w3.org/2000/svg">
<path fill-rule="evenodd" clip-rule="evenodd" d="M46.875 71.875C50.9244 71.875 54.6741 70.5912 57.7391 68.4084L66.5403 77.2097C67.7606 78.43 69.7394 78.43 70.9597 77.2097C72.18 75.9894 72.18 74.0106 70.9597 72.7903L62.1584 63.9891C64.3412 60.9241 65.625 57.1744 65.625 53.125C65.625 42.7697 57.2303 34.375 46.875 34.375C36.5197 34.375 28.125 42.7697 28.125 53.125C28.125 63.4803 36.5197 71.875 46.875 71.875ZM46.875 40.625C39.9716 40.625 34.375 46.2216 34.375 53.125C34.375 60.0284 39.9716 65.625 46.875 65.625C50.2875 65.625 53.3806 64.2575 55.6363 62.0406C55.6609 62.0141 55.6862 61.9881 55.7122 61.9622C55.7381 61.9362 55.7641 61.9109 55.7906 61.8863C58.0075 59.6306 59.375 56.5375 59.375 53.125C59.375 46.2216 53.7784 40.625 46.875 40.625Z" fill="#CFCFCF"/>
<path fill-rule="evenodd" clip-rule="evenodd" d="M3.125 3.125C1.39911 3.125 0 4.52412 0 6.25V81.25C0 84.5653 1.31696 87.7447 3.66116 90.0887C6.00537 92.4331 9.18478 93.75 12.5 93.75H87.5C90.8153 93.75 93.9947 92.4331 96.3387 90.0887C98.6831 87.7447 100 84.5653 100 81.25V21.875C100 20.1491 98.6009 18.75 96.875 18.75H48.6444L40.1797 4.64219C39.615 3.70094 38.5978 3.125 37.5 3.125H3.125ZM6.25 81.25V9.375H35.7306L44.1953 23.4828C44.76 24.4241 45.7772 25 46.875 25H93.75V81.25C93.75 82.9075 93.0916 84.4972 91.9194 85.6694C90.7472 86.8416 89.1575 87.5 87.5 87.5H12.5C10.8424 87.5 9.25269 86.8416 8.08059 85.6694C6.90847 84.4972 6.25 82.9075 6.25 81.25Z" fill="#CFCFCF"/>
</svg>
