<svg id="Capa_1" data-name="Capa 1" xmlns="http://www.w3.org/2000/svg" viewBox="0 0 121.29 121.24"><title>Exercise_yesterday</title><path d="M82.85,30.14A13.86,13.86,0,1,0,69,16.28,13.87,13.87,0,0,0,82.85,30.14Z"/><path d="M105.64,26.15c-8,11.14-18.61,12.43-30.07,5.63-.78-.47-4.24-2.37-5-2.83C52.12,18,33.7,22.3,21.35,39.59,16.1,47,28.24,53.92,33.43,46.65c6.39-8.93,14.5-11.52,23.38-8.69-4.55,7.89-8.52,15.73-14.13,26.87s-18,20-29.88,13.08C4.21,72.89-3.53,85.22,5,90.22c16.24,9.49,35.28,3.67,45-8.67a7.65,7.65,0,0,0,1.08.48c7.94,2.76,18.35,10.13,21.53,12.74s8.62,15.91,11.85,22.59c3.93,8.11,16.6,2.21,12.66-5.94-3.66-7.58-9.82-22.71-14.62-26.54-3.85-3.07-11.33-8.78-17.68-12,4.3-8.31,8.76-16.53,13.47-24.61,15,4.59,29.24-.82,39.39-15C123,25.85,110.84,18.88,105.64,26.15Z"/></svg>