<svg width="100" height="101" viewBox="0 0 100 101" fill="none" xmlns="http://www.w3.org/2000/svg">
<path fill-rule="evenodd" clip-rule="evenodd" d="M87.5 28.125V87.5C87.5 94.4036 81.9036 100 75 100V93.75C78.4518 93.75 81.25 90.9518 81.25 87.5V28.125H68.75C63.5723 28.125 59.375 23.9277 59.375 18.75V6.25H25C21.5482 6.25 18.75 9.04822 18.75 12.5V68.75H12.5V12.5C12.5 5.59644 18.0964 0 25 0H59.375L87.5 28.125ZM63.999 78.9514C64.4751 79.9036 64.7681 80.929 64.8779 82.0276H60.0256C59.9036 81.4539 59.7021 80.9351 59.4214 80.4712C59.1406 80.0074 58.7866 79.6106 58.3594 79.281C57.9443 78.9392 57.4499 78.6768 56.8762 78.4937C56.3147 78.3106 55.6921 78.219 55.0085 78.219C53.2263 78.219 51.8408 78.8477 50.852 80.105C49.8755 81.3623 49.3872 83.1324 49.3872 85.4151V88.5279C49.3872 89.9927 49.5886 91.2744 49.9915 92.3731C50.4065 93.4717 51.0413 94.3323 51.8957 94.9549C52.7502 95.5652 53.8306 95.8704 55.1367 95.8704C56.2842 95.8704 57.2363 95.669 57.9932 95.2661C58.75 94.8511 59.3176 94.3018 59.696 93.6182C60.0745 92.9346 60.2637 92.1778 60.2637 91.3477V89.7547H55.1184V86.0742H64.9695V91.0547C64.9695 92.2632 64.7681 93.4107 64.3652 94.4971C63.9624 95.5713 63.352 96.5235 62.5342 97.3535C61.7163 98.1836 60.6848 98.8367 59.4397 99.3128C58.2068 99.7766 56.7541 100.009 55.0818 100.009C53.2873 100.009 51.7187 99.7339 50.376 99.1846C49.0454 98.6231 47.9346 97.8357 47.0435 96.8225C46.1523 95.8094 45.4871 94.6009 45.0476 93.1971C44.6082 91.7932 44.3884 90.243 44.3884 88.5462V85.3784C44.3884 83.1201 44.8035 81.1426 45.6335 79.4458C46.4758 77.7491 47.6904 76.4307 49.2773 75.4908C50.8765 74.5386 52.8052 74.0625 55.0635 74.0625C56.5527 74.0625 57.8772 74.2701 59.0369 74.6851C60.2087 75.1001 61.2097 75.6739 62.0398 76.4063C62.8699 77.1387 63.5229 77.9871 63.999 78.9514ZM9.99756 74.5386H0V99.5325H4.94385V91.1463H9.96094C11.7554 91.1463 13.2812 90.7862 14.5386 90.0659C15.8081 89.3335 16.7725 88.3448 17.4316 87.0996C18.103 85.8423 18.4387 84.4324 18.4387 82.8699C18.4387 81.3074 18.1091 79.8975 17.45 78.6402C16.7908 77.3828 15.8325 76.388 14.5752 75.6555C13.3301 74.9109 11.8042 74.5386 9.99756 74.5386ZM13.4033 82.8699C13.4033 83.7976 13.2263 84.5911 12.8723 85.2503C12.5305 85.8972 12.0361 86.3977 11.3892 86.7517C10.7422 87.0935 9.96094 87.2644 9.04541 87.2644H4.92554V78.4754H9.04541C10.4126 78.4754 11.4807 78.8538 12.2498 79.6106C13.0188 80.3675 13.4033 81.4539 13.4033 82.8699ZM25.6824 99.5325V82.815H25.8838L36.8884 99.5325H40.99V74.5386H36.3025V91.1646H36.1011L25.1514 74.5386H21.0132V99.5325H25.6824Z" fill="#002C77"/>
</svg>
