<svg width="100" height="100" viewBox="0 0 100 100" fill="none" xmlns="http://www.w3.org/2000/svg">
<path d="M96.25 28.125C95.625 26.875 95 25.9375 94.0625 25L75 5.9375C74.0625 5 73.125 4.375 71.875 4.0625C69.6875 3.125 66.875 3.125 64.6875 4.0625C63.4375 4.6875 62.5 5.3125 61.5625 5.9375L42.1875 25C41.25 25.9375 40.625 26.875 40 28.125C39.375 29.375 39.375 30.625 39.375 31.5625C39.375 32.5 39.6875 34.0625 40 35C40.625 36.25 41.25 37.1875 42.1875 38.125L44.0625 40C45.3125 41.25 47.1875 41.25 48.4375 40C49.6875 38.75 49.6875 36.875 48.4375 35.625L46.5625 33.75C46.25 33.4375 45.9375 33.125 45.9375 32.8125C45.9136 32.5981 45.861 32.3879 45.7812 32.1875C45.7031 31.9531 45.625 31.7188 45.625 31.5625C45.625 31.25 45.625 30.625 45.9375 30.3125C46.0937 30.1563 46.1719 30 46.25 29.8438C46.3281 29.6875 46.4062 29.5313 46.5625 29.375L65.9375 10C66.25 9.6875 66.5625 9.375 66.875 9.375C67.8125 9.375 68.75 9.375 69.375 9.6875C69.5313 9.84375 69.6875 9.92188 69.8438 10C70 10.0781 70.1562 10.1563 70.3125 10.3125L89.6875 29.6875C90 30 90.3125 30.3125 90.3125 30.625C90.625 30.9375 90.625 31.25 90.625 31.875C90.625 32.5 90.625 32.8125 90.3125 33.125C90.1562 33.2813 90.0781 33.4375 90 33.5938C89.9219 33.75 89.8438 33.9063 89.6875 34.0625L70.3125 53.125C70 53.4375 69.6875 53.75 69.375 53.75C68.75 54.0625 67.8125 54.0625 66.875 53.75C66.7187 53.5938 66.5625 53.5156 66.4062 53.4375C66.25 53.3594 66.0938 53.2813 65.9375 53.125L64.0625 51.25C62.8125 50 60.9375 50 59.6875 51.25C58.4375 52.5 58.4375 54.375 59.6875 55.625L61.5625 57.5C62.5 58.4375 63.4375 59.0625 64.6875 59.6875C65.9375 60.3125 67.1875 60.3125 68.125 60.3125C69.375 60.3125 70.625 60 71.5625 59.6875C72.8125 59.0625 73.75 58.4375 74.6875 57.5L94.0625 38.125C95 37.1875 95.625 36.25 96.25 35C96.875 33.75 96.875 32.5 96.875 31.5625C96.875 30.625 96.5625 29.375 96.25 28.125ZM57.8125 61.5625L55.9375 59.6875C54.6875 58.4375 52.8125 58.4375 51.5625 59.6875C50.3125 60.9375 50.3125 62.8125 51.5625 64.0625L53.4375 65.9375C53.75 66.25 54.0625 66.5625 54.0625 66.875C54.375 67.1875 54.375 67.8125 54.375 68.125C54.375 68.4375 54.375 69.0625 54.0625 69.375C53.9062 69.5313 53.8281 69.6875 53.75 69.8438C53.6719 70 53.5938 70.1563 53.4375 70.3125L34.0625 89.6875C33.75 90 33.4375 90.3125 33.125 90.3125C32.5 90.625 31.5625 90.625 30.625 90.3125C30.488 90.182 30.3294 90.0763 30.1562 90C30 89.9219 29.8438 89.8438 29.6875 89.6875L10.3125 70.3125C10 70 9.6875 69.6875 9.6875 69.375C9.375 69.0625 9.375 68.75 9.375 68.125C9.375 67.8125 9.375 67.1875 9.6875 66.875C9.84375 66.7188 9.92188 66.5625 10 66.4063C10.0781 66.25 10.1562 66.0938 10.3125 65.9375L29.6875 46.875C30 46.5625 30.3125 46.25 30.625 46.25C31.25 45.9375 32.1875 45.9375 33.125 46.25C33.2813 46.4063 33.4375 46.4844 33.5938 46.5625C33.75 46.6406 33.9062 46.7188 34.0625 46.875L35.9375 48.75C37.1875 50 39.0625 50 40.3125 48.75C41.5625 47.5 41.5625 45.625 40.3125 44.375L38.4375 42.5C37.5 41.5625 36.5625 40.9375 35.3125 40.3125C33.125 39.375 30.3125 39.375 28.125 40.3125C26.875 40.9375 25.9375 41.5625 25 42.5L5.625 61.875C4.6875 62.8125 4.0625 63.75 3.4375 65C3.4375 65.2594 3.38437 65.625 3.32187 66.0531C3.23125 66.6594 3.125 67.3938 3.125 68.125C3.125 69.375 3.4375 70.625 3.75 71.5625C4.375 72.8125 5 73.75 5.9375 74.6875L25.3125 94.0625C26.25 95 27.1875 95.625 28.4375 95.9375C29.6875 96.5625 30.9375 96.5625 31.875 96.5625C32.8125 96.5625 34.375 96.25 35.3125 95.9375C36.5625 95.3125 37.5 94.6875 38.4375 93.75L57.8125 74.375C58.75 73.4375 59.375 72.5 60 71.25C60.625 70 60.625 68.75 60.625 67.8125C60.625 66.5625 60.3125 65.3125 60 64.375C59.6875 63.9063 59.2969 63.4375 58.9063 62.9688C58.5156 62.5 58.125 62.0313 57.8125 61.5625Z" fill="#DADADA"/>
<path d="M34.375 68.75C33.75 68.75 32.8125 68.4375 32.1875 67.8125C30.9375 66.5625 30.9375 64.6875 32.1875 63.4375L63.4375 32.1875C64.6875 30.9375 66.5625 30.9375 67.8125 32.1875C69.0625 33.4375 69.0625 35.3125 67.8125 36.5625L36.5625 67.8125C35.9375 68.4375 35 68.75 34.375 68.75Z" fill="#DADADA"/>
</svg>
