<svg width="100" height="100" viewBox="0 0 100 100" fill="none" xmlns="http://www.w3.org/2000/svg">
<path fill-rule="evenodd" clip-rule="evenodd" d="M45.3125 3.125C21.0632 3.125 0 18.5261 0 39.0625L0.000626406 39.125C0.0870728 43.4419 1.05405 47.6956 2.8423 51.6256C4.43522 55.1263 6.64991 58.3044 9.375 61.0075V81.25C9.375 82.3331 9.93581 83.3391 10.8572 83.9084C11.7785 84.4778 12.929 84.5294 13.8977 84.045L34.2116 73.8866C37.8641 74.6225 41.5812 74.9956 45.3088 75H45.3125C69.5619 75 90.625 59.5991 90.625 39.0625C90.625 18.5261 69.5619 3.125 45.3125 3.125ZM8.53106 49.0372C7.09953 45.8913 6.32347 42.4869 6.25003 39.0312C6.27209 23.3304 22.9766 9.375 45.3125 9.375C67.6631 9.375 84.375 23.3489 84.375 39.0625C84.375 54.7753 67.665 68.7484 45.3162 68.75C41.6675 68.7456 38.0303 68.3441 34.4688 67.5525C33.7678 67.3969 33.035 67.4872 32.3928 67.8081L15.625 76.1934V59.6656C15.625 58.7841 15.2526 57.9434 14.5997 57.3512C12.032 55.0219 9.96691 52.1925 8.53106 49.0372Z" fill="#002C77"/>
<path d="M97.2281 51.6358C96.4053 50.1186 94.5085 49.5558 92.9913 50.3786C91.4744 51.2014 90.9113 53.0983 91.7341 54.6155C93.0403 57.0236 93.7325 59.7164 93.7497 62.4558C93.6472 65.3945 92.8713 68.2705 91.4813 70.8624C90.0828 73.4705 88.1003 75.7199 85.6888 77.4352C84.8644 78.0214 84.375 78.9705 84.375 79.9817V88.2317L76.3763 83.4333C75.6541 82.9999 74.7872 82.8764 73.9725 83.0911C70.7378 83.9433 67.4069 84.3752 64.0622 84.3755L64.0225 84.3758C56.9597 84.4658 50.0278 82.4658 44.0981 78.6274C42.6494 77.6892 40.7147 78.1036 39.7766 79.5524C38.8388 81.0011 39.2528 82.9358 40.7016 83.8739C47.6603 88.3786 55.7941 90.7274 64.0825 90.6255C67.5122 90.6236 70.9291 90.2311 74.2672 89.4564L85.8925 96.4302C86.8578 97.0095 88.06 97.0245 89.0397 96.4698C90.0194 95.9152 90.625 94.8764 90.625 93.7505V81.5283C93.2313 79.407 95.396 76.787 96.9894 73.8164C98.8431 70.3595 99.8731 66.5211 99.9985 62.6005C99.9997 62.5639 100 62.5274 100 62.4911C99.9885 58.6989 99.036 54.9689 97.2281 51.6358Z" fill="#002C77"/>
</svg>
