<svg width="24" height="24" viewBox="0 0 24 24" fill="none" xmlns="http://www.w3.org/2000/svg">
<path d="M1.91188 5.57143L1.96442 6.6903C1.62801 7.16505 1.45261 7.7526 1.51113 8.37567L2.35639 17.3757C2.48078 18.7002 3.62804 19.7143 5.00201 19.7143H13.2021V18.4286H5.00201C4.31502 18.4286 3.74139 17.9215 3.6792 17.2593L2.83394 8.25926C2.76322 7.50633 3.37569 6.85714 4.15675 6.85714H19.591C20.3721 6.85714 20.9845 7.50632 20.9138 8.25926L20.5625 12H21.8963L22.2366 8.37566C22.3781 6.86979 21.1531 5.57143 19.591 5.57143H14.3025C13.598 5.57143 12.9223 5.30051 12.4241 4.81828L11.3237 3.75315C10.8255 3.27092 10.1498 3 9.44524 3H4.56841C3.10125 3 1.91188 4.15127 1.91188 5.57143ZM9.44524 4.28571C9.79751 4.28571 10.1354 4.42117 10.3845 4.66229L11.3237 5.57143H4.15675C3.83701 5.57143 3.5314 5.62582 3.24874 5.72526L3.24038 5.54716C3.25374 4.84828 3.84321 4.28571 4.56841 4.28571H9.44524Z" fill="#002C77"/>
<path d="M19.1793 14.5714C19.5461 14.5714 19.8435 14.8592 19.8435 15.2143V17.1429H21.8359C22.2027 17.1429 22.5 17.4307 22.5 17.7857C22.5 18.1408 22.2027 18.4286 21.8359 18.4286H19.8435V20.3571C19.8435 20.7122 19.5461 21 19.1793 21C18.8125 21 18.5152 20.7122 18.5152 20.3571V18.4286H16.5228C16.156 18.4286 15.8587 18.1408 15.8587 17.7857C15.8587 17.4307 16.156 17.1429 16.5228 17.1429H18.5152V15.2143C18.5152 14.8592 18.8125 14.5714 19.1793 14.5714Z" fill="#002C77"/>
</svg>
