<svg width="100" height="100" viewBox="0 0 100 100" fill="none" xmlns="http://www.w3.org/2000/svg">
<g clip-path="url(#clip0_238_182)">
<path d="M50 37.5C51.7259 37.5 53.125 38.8991 53.125 40.625V75C53.125 76.7259 51.7259 78.125 50 78.125C48.2741 78.125 46.875 76.7259 46.875 75V40.625C46.875 38.8991 48.2741 37.5 50 37.5Z" fill="#002C77"/>
<path d="M54.6875 23.4375C54.6875 26.0263 52.5887 28.125 50 28.125C47.4112 28.125 45.3125 26.0263 45.3125 23.4375C45.3125 20.8487 47.4112 18.75 50 18.75C52.5887 18.75 54.6875 20.8487 54.6875 23.4375Z" fill="#002C77"/>
<path fill-rule="evenodd" clip-rule="evenodd" d="M0 50C0 22.3857 22.3857 0 50 0C77.6144 0 100 22.3857 100 50C100 77.6144 77.6144 100 50 100C22.3857 100 0 77.6144 0 50ZM50 6.25C25.8375 6.25 6.25 25.8375 6.25 50C6.25 74.1625 25.8375 93.75 50 93.75C74.1625 93.75 93.75 74.1625 93.75 50C93.75 25.8375 74.1625 6.25 50 6.25Z" fill="#002C77"/>
</g>
<defs>
<clipPath id="clip0_238_182">
<rect width="100" height="100" fill="white"/>
</clipPath>
</defs>
</svg>
