<svg width="100" height="100" viewBox="0 0 100 100" fill="none" xmlns="http://www.w3.org/2000/svg">
<path fill-rule="evenodd" clip-rule="evenodd" d="M87.5 28.125V87.5C87.5 94.4036 81.9036 100 75 100H68.75V93.75H75C78.4518 93.75 81.25 90.9518 81.25 87.5V28.125H68.75C63.5723 28.125 59.375 23.9277 59.375 18.75V6.25H25C21.5482 6.25 18.75 9.04822 18.75 12.5V68.75H12.5V12.5C12.5 5.59644 18.0964 0 25 0H59.375L87.5 28.125ZM9.99756 74.0625H0V99.0564H4.94385V90.6702H9.96094C11.7554 90.6702 13.2812 90.3101 14.5386 89.5899C15.8081 88.8575 16.7725 87.8687 17.4316 86.6236C18.103 85.3662 18.4387 83.9563 18.4387 82.3938C18.4387 80.8313 18.1091 79.4214 17.45 78.1641C16.7908 76.9068 15.8325 75.9119 14.5752 75.1795C13.3301 74.4348 11.8042 74.0625 9.99756 74.0625ZM13.4033 82.3938C13.4033 83.3216 13.2263 84.115 12.8723 84.7742C12.5305 85.4212 12.0361 85.9217 11.3892 86.2757C10.7422 86.6175 9.96094 86.7884 9.04541 86.7884H4.92554V77.9993H9.04541C10.4126 77.9993 11.4807 78.3777 12.2498 79.1346C13.0188 79.8914 13.4033 80.9778 13.4033 82.3938ZM31.0107 74.0625H21.0132V99.0564H25.957V90.6702H30.9741C32.7686 90.6702 34.2944 90.3101 35.5518 89.5899C36.8213 88.8575 37.7856 87.8687 38.4448 86.6236C39.1162 85.3662 39.4519 83.9563 39.4519 82.3938C39.4519 80.8313 39.1223 79.4214 38.4631 78.1641C37.804 76.9068 36.8457 75.9119 35.5884 75.1795C34.3433 74.4348 32.8174 74.0625 31.0107 74.0625ZM34.4165 82.3938C34.4165 83.3216 34.2395 84.115 33.8855 84.7742C33.5437 85.4212 33.0493 85.9217 32.4023 86.2757C31.7554 86.6175 30.9741 86.7884 30.0586 86.7884H25.9387V77.9993H30.0586C31.4258 77.9993 32.4939 78.3777 33.2629 79.1346C34.032 79.8914 34.4165 80.9778 34.4165 82.3938ZM51.7126 78.2007V99.0564H46.7505V78.2007H39.6643V74.0625H58.8171V78.2007H51.7126Z" fill="#002C77"/>
</svg>
