<svg width="100" height="100" viewBox="0 0 100 100" fill="none" xmlns="http://www.w3.org/2000/svg">
<path fill-rule="evenodd" clip-rule="evenodd" d="M37.8938 9.375C39.2813 3.98341 44.175 0 50 0C55.825 0 60.7188 3.98341 62.1063 9.375H68.75C70.4759 9.375 71.875 10.7741 71.875 12.5V25C71.875 26.7259 70.4759 28.125 68.75 28.125H31.25C29.5241 28.125 28.125 26.7259 28.125 25V12.5C28.125 10.7741 29.5241 9.375 31.25 9.375H37.8938ZM50 6.25C46.5478 6.25 43.75 9.04775 43.75 12.5C43.75 14.2259 42.3509 15.625 40.625 15.625H34.375V21.875H65.625V15.625H59.375C57.6491 15.625 56.25 14.2259 56.25 12.5C56.25 9.04775 53.4522 6.25 50 6.25ZM28.125 43.75C28.125 42.0241 29.5241 40.625 31.25 40.625H68.75C70.4759 40.625 71.875 42.0241 71.875 43.75C71.875 45.4759 70.4759 46.875 68.75 46.875H31.25C29.5241 46.875 28.125 45.4759 28.125 43.75ZM28.125 59.375C28.125 57.6491 29.5241 56.25 31.25 56.25H68.75C70.4759 56.25 71.875 57.6491 71.875 59.375C71.875 61.1009 70.4759 62.5 68.75 62.5H31.25C29.5241 62.5 28.125 61.1009 28.125 59.375ZM31.25 71.875C29.5241 71.875 28.125 73.2741 28.125 75C28.125 76.7259 29.5241 78.125 31.25 78.125H46.875C48.6009 78.125 50 76.7259 50 75C50 73.2741 48.6009 71.875 46.875 71.875H31.25ZM12.5 12.5C10.7741 12.5 9.375 13.8991 9.375 15.625V96.875C9.375 98.6009 10.7741 100 12.5 100H87.5C89.2259 100 90.625 98.6009 90.625 96.875V15.625C90.625 13.8991 89.2259 12.5 87.5 12.5H81.25C79.5241 12.5 78.125 13.8991 78.125 15.625C78.125 17.3509 79.5241 18.75 81.25 18.75H84.375V93.75H15.625V18.75H18.75C20.4759 18.75 21.875 17.3509 21.875 15.625C21.875 13.8991 20.4759 12.5 18.75 12.5H12.5Z" fill="#002C77"/>
</svg>
