<svg width="100" height="100" viewBox="0 0 100 100" fill="none" xmlns="http://www.w3.org/2000/svg">
<path fill-rule="evenodd" clip-rule="evenodd" d="M87.5 28.125V87.5C87.5 94.4036 81.9036 100 75 100H62.5V93.75H75C78.4518 93.75 81.25 90.9518 81.25 87.5V28.125H68.75C63.5723 28.125 59.375 23.9277 59.375 18.75V6.25H25C21.5482 6.25 18.75 9.04822 18.75 12.5V68.75H12.5V12.5C12.5 5.59644 18.0964 0 25 0H59.375L87.5 28.125ZM12.0483 99.0564V78.2007H19.1528V74.0625H0V78.2007H7.08618V99.0564H12.0483ZM41.3562 74.0625H35.7715L30.6262 83.053H30.4065L25.2063 74.0625H19.3835L27.0557 86.4587L19.3103 99.0564H24.6936L30.022 90.2124H30.2417L35.5518 99.0564H41.228L33.3911 86.6052L41.3562 74.0625ZM53.4155 78.2007V99.0564H48.4534V78.2007H41.3672V74.0625H60.52V78.2007H53.4155Z" fill="#002C77"/>
</svg>
