<svg width="100" height="100" viewBox="0 0 100 100" fill="none" xmlns="http://www.w3.org/2000/svg">
<path fill-rule="evenodd" clip-rule="evenodd" d="M87.5 87.5V28.125L59.375 0H25C18.0964 0 12.5 5.59644 12.5 12.5V68.75H18.75V12.5C18.75 9.04822 21.5482 6.25 25 6.25H59.375V18.75C59.375 23.9277 63.5723 28.125 68.75 28.125H81.25V87.5C81.25 90.9518 78.4518 93.75 75 93.75H68.75V100H75C81.9036 100 87.5 94.4036 87.5 87.5Z" fill="#002C77"/>
<path d="M57.4895 81.9651C57.3796 80.8665 57.0867 79.8411 56.6106 78.8889C56.1345 77.9246 55.4814 77.0762 54.6514 76.3438C53.8213 75.6113 52.8203 75.0376 51.6484 74.6226C50.4888 74.2075 49.1643 74 47.675 74C45.4167 74 43.488 74.4761 41.8889 75.4282C40.302 76.3682 39.0874 77.6865 38.2451 79.3833C37.415 81.0801 37 83.0576 37 85.3159V88.4836C37 90.1804 37.2197 91.7307 37.6592 93.1345C38.0986 94.5383 38.7639 95.7468 39.655 96.76C40.5461 97.7732 41.657 98.5605 42.9875 99.1221C44.3303 99.6714 45.8989 99.946 47.6934 99.946C49.3657 99.946 50.8184 99.7141 52.0513 99.2502C53.2964 98.7742 54.3279 98.1211 55.1457 97.291C55.9636 96.4609 56.574 95.5088 56.9768 94.4346C57.3796 93.3481 57.5811 92.2007 57.5811 90.9922V86.0117H47.73V89.6921H52.8752V91.2852C52.8752 92.1152 52.686 92.8721 52.3076 93.5557C51.9292 94.2393 51.3616 94.7886 50.6047 95.2036C49.8479 95.6064 48.8957 95.8079 47.7483 95.8079C46.4421 95.8079 45.3618 95.5027 44.5073 94.8923C43.6528 94.2698 43.0181 93.4092 42.603 92.3105C42.2002 91.2119 41.9988 89.9302 41.9988 88.4653V85.3525C41.9988 83.0698 42.4871 81.2998 43.4636 80.0425C44.4524 78.7852 45.8379 78.1565 47.6201 78.1565C48.3037 78.1565 48.9263 78.248 49.4878 78.4312C50.0615 78.6143 50.5559 78.8767 50.9709 79.2185C51.3982 79.5481 51.7522 79.9448 52.033 80.4087C52.3137 80.8726 52.5151 81.3914 52.6372 81.9651H57.4895Z" fill="#002C77"/>
<path d="M13.4128 99.9939V83.3679H13.6509L19.6018 96.8628H22.8245L28.7388 83.3679H28.9768V99.9939H33.4446V75H28.4458L21.323 91.2231H21.1582L14.0354 75H9V99.9939H13.4128Z" fill="#002C77"/>
<rect y="75" width="5" height="25" fill="#002C77"/>
</svg>
