<svg width="100" height="100" viewBox="0 0 100 100" fill="none" xmlns="http://www.w3.org/2000/svg">
<path d="M96.2499 28.13C95.6299 26.88 94.9999 25.94 94.0599 25L74.9999 5.94C74.0599 5 73.1299 4.38 71.8799 4.06C69.6899 3.13 66.8799 3.13 64.6899 4.06C63.4399 4.69 62.4999 5.31 61.5599 5.94L42.1899 25C41.2499 25.94 40.6299 26.88 39.9999 28.13C39.3799 29.38 39.3799 30.63 39.3799 31.56C39.3799 32.5 39.6899 34.06 39.9999 35C40.6299 36.25 41.2499 37.19 42.1899 38.13L44.0599 40C45.3099 41.25 47.1899 41.25 48.4399 40C49.6899 38.75 49.6899 36.88 48.4399 35.63L46.5599 33.75C46.2499 33.44 45.9399 33.13 45.9399 32.81C45.9099 32.6 45.8599 32.39 45.7799 32.19C45.6999 31.95 45.6299 31.72 45.6299 31.56C45.6299 31.25 45.6299 30.63 45.9399 30.31C46.0899 30.16 46.1699 30 46.2499 29.84C46.3299 29.69 46.4099 29.53 46.5599 29.38L65.9399 10C66.2499 9.69 66.5599 9.38 66.8799 9.38C67.8099 9.38 68.7499 9.38 69.3799 9.69C69.5299 9.84 69.6899 9.92 69.8399 10C69.9999 10.08 70.1599 10.16 70.3099 10.31L89.6899 29.69C89.9999 30 90.3099 30.31 90.3099 30.63C90.6299 30.94 90.6299 31.25 90.6299 31.88C90.6299 32.5 90.6299 32.81 90.3099 33.13C90.1599 33.28 90.0799 33.44 89.9999 33.59C89.9199 33.75 89.8399 33.91 89.6899 34.06L70.3099 53.13C69.9999 53.44 69.6899 53.75 69.3799 53.75C68.7499 54.06 67.8099 54.06 66.8799 53.75C66.7199 53.59 66.5599 53.52 66.4099 53.44C66.2499 53.36 66.0899 53.28 65.9399 53.13L64.0599 51.25C62.8099 50 60.9399 50 59.6899 51.25C58.4399 52.5 58.4399 54.38 59.6899 55.63L61.5599 57.5C62.4999 58.44 63.4399 59.06 64.6899 59.69C65.9399 60.31 67.1899 60.31 68.1299 60.31C69.3799 60.31 70.6299 60 71.5599 59.69C72.8099 59.06 73.7499 58.44 74.6899 57.5L94.0599 38.13C94.9999 37.19 95.6299 36.25 96.2499 35C96.8799 33.75 96.8799 32.5 96.8799 31.56C96.8799 30.63 96.5599 29.38 96.2499 28.13ZM57.8099 61.56L55.9399 59.69C54.6899 58.44 52.8099 58.44 51.5599 59.69C50.3099 60.94 50.3099 62.81 51.5599 64.06L53.4399 65.94C53.7499 66.25 54.0599 66.56 54.0599 66.88C54.3799 67.19 54.3799 67.81 54.3799 68.13C54.3799 68.44 54.3799 69.06 54.0599 69.38C53.9099 69.53 53.8299 69.69 53.7499 69.84C53.6699 70 53.5899 70.16 53.4399 70.31L34.0599 89.69C33.7499 90 33.4399 90.31 33.1299 90.31C32.4999 90.63 31.5599 90.63 30.6299 90.31C30.4899 90.18 30.3299 90.08 30.1599 90C29.9999 89.92 29.8399 89.84 29.6899 89.69L10.3099 70.31C9.99988 70 9.68988 69.69 9.68988 69.38C9.37988 69.06 9.37988 68.75 9.37988 68.13C9.37988 67.81 9.37988 67.19 9.68988 66.88C9.83988 66.72 9.91988 66.56 9.99988 66.41C10.0799 66.25 10.1599 66.09 10.3099 65.94L29.6899 46.88C29.9999 46.56 30.3099 46.25 30.6299 46.25C31.2499 45.94 32.1899 45.94 33.1299 46.25C33.2799 46.41 33.4399 46.48 33.5899 46.56C33.7499 46.64 33.9099 46.72 34.0599 46.88L35.9399 48.75C37.1899 50 39.0599 50 40.3099 48.75C41.5599 47.5 41.5599 45.63 40.3099 44.38L38.4399 42.5C37.4999 41.56 36.5599 40.94 35.3099 40.31C33.1299 39.38 30.3099 39.38 28.1299 40.31C26.8799 40.94 25.9399 41.56 24.9999 42.5L5.62988 61.88C4.68988 62.81 4.05988 63.75 3.43988 65C3.43988 65.26 3.37988 65.63 3.31988 66.05C3.22988 66.66 3.12988 67.39 3.12988 68.13C3.12988 69.38 3.43988 70.63 3.74988 71.56C4.37988 72.81 4.99988 73.75 5.93988 74.69L25.3099 94.06C26.2499 95 27.1899 95.63 28.4399 95.94C29.6899 96.56 30.9399 96.56 31.8799 96.56C32.8099 96.56 34.3799 96.25 35.3099 95.94C36.5599 95.31 37.4999 94.69 38.4399 93.75L57.8099 74.38C58.7499 73.44 59.3799 72.5 59.9999 71.25C60.6299 70 60.6299 68.75 60.6299 67.81C60.6299 66.56 60.3099 65.31 59.9999 64.38C59.6899 63.91 59.2999 63.44 58.9099 62.97C58.5199 62.5 58.1299 62.03 57.8099 61.56Z" fill="#CFCFCF"/>
<path d="M34.3799 68.75C33.7499 68.75 32.8099 68.44 32.1899 67.81C30.9399 66.56 30.9399 64.69 32.1899 63.44L63.4399 32.19C64.6899 30.94 66.5599 30.94 67.8099 32.19C69.0599 33.44 69.0599 35.31 67.8099 36.56L36.5599 67.81C35.9399 68.44 34.9999 68.75 34.3799 68.75Z" fill="#CFCFCF"/>
</svg>
