<svg width="100" height="101" viewBox="0 0 100 101" fill="none" xmlns="http://www.w3.org/2000/svg">
<g opacity="0.7">
<path fill-rule="evenodd" clip-rule="evenodd" d="M65.625 13V9.875C65.625 8.14911 67.0241 6.75 68.75 6.75C70.4759 6.75 71.875 8.14911 71.875 9.875V13H81.25C81.25 13 83.8388 13 85.6694 14.8306C85.6694 14.8306 87.5 16.6612 87.5 19.25V81.75C87.5 81.75 87.5 84.3388 85.6694 86.1694C85.6694 86.1694 83.8388 88 81.25 88H18.75C18.75 88 16.1612 88 14.3306 86.1694C14.3306 86.1694 12.5 84.3388 12.5 81.75V19.25C12.5 19.25 12.5 16.6612 14.3306 14.8306C14.3306 14.8306 16.1612 13 18.75 13H28.125V9.875C28.125 8.14911 29.5241 6.75 31.25 6.75C32.9759 6.75 34.375 8.14911 34.375 9.875V13H65.625ZM18.75 38V81.75H81.25V38H18.75ZM81.25 31.75H18.75V19.25H28.125V22.375C28.125 24.1009 29.5241 25.5 31.25 25.5C32.9759 25.5 34.375 24.1009 34.375 22.375V19.25H65.625V22.375C65.625 24.1009 67.0241 25.5 68.75 25.5C70.4759 25.5 71.875 24.1009 71.875 22.375V19.25H81.25V31.75Z" fill="#CFCFCF"/>
</g>
</svg>
