<svg width="100" height="100" viewBox="0 0 100 100" fill="none" xmlns="http://www.w3.org/2000/svg">
<path fill-rule="evenodd" clip-rule="evenodd" d="M87.5 28.125V87.5C87.5 94.4036 81.9036 100 75 100H68.75V93.75H75C78.4518 93.75 81.25 90.9518 81.25 87.5V28.125H68.75C63.5723 28.125 59.375 23.9277 59.375 18.75V6.25H25C21.5482 6.25 18.75 9.04822 18.75 12.5V68.75H12.5V12.5C12.5 5.59644 18.0964 0 25 0H59.375L87.5 28.125ZM9.99756 74.0625H0V99.0564H4.94385V90.6702H9.96094C11.7554 90.6702 13.2812 90.3101 14.5386 89.5899C15.8081 88.8575 16.7725 87.8687 17.4316 86.6236C18.103 85.3662 18.4387 83.9563 18.4387 82.3938C18.4387 80.8313 18.1091 79.4214 17.45 78.1641C16.7908 76.9068 15.8325 75.9119 14.5752 75.1795C13.3301 74.4348 11.8042 74.0625 9.99756 74.0625ZM13.4033 82.3938C13.4033 83.3216 13.2263 84.115 12.8723 84.7742C12.5305 85.4212 12.0361 85.9217 11.3892 86.2757C10.7422 86.6175 9.96094 86.7884 9.04541 86.7884H4.92554V77.9993H9.04541C10.4126 77.9993 11.4807 78.3777 12.2498 79.1346C13.0188 79.8914 13.4033 80.9778 13.4033 82.3938ZM21.0132 74.0625V99.0564H30.1318C32.6465 99.0564 34.7278 98.562 36.3757 97.5733C38.0359 96.5845 39.2749 95.1502 40.0928 93.2703C40.9106 91.3904 41.3196 89.1321 41.3196 86.4954C41.3196 83.8709 40.9106 81.6309 40.0928 79.7754C39.2871 77.92 38.0603 76.5039 36.4124 75.5274C34.7644 74.5508 32.6709 74.0625 30.1318 74.0625H21.0132ZM25.957 78.0909H29.4727C31.0229 78.0909 32.2925 78.4082 33.2812 79.043C34.2822 79.6778 35.0208 80.6238 35.4968 81.8811C35.9851 83.1385 36.2292 84.7071 36.2292 86.5869C36.2292 88.003 36.0889 89.2359 35.8081 90.2857C35.5396 91.3355 35.1306 92.2144 34.5813 92.9224C34.0442 93.6182 33.3484 94.1431 32.4939 94.4971C31.6394 94.8389 30.6323 95.0098 29.4727 95.0098H25.957V78.0909ZM49.3506 89.1138V99.0564H44.4067V74.0625H60.3369V78.1458H49.3506V85.1221H59.3848V89.1138H49.3506Z" fill="#002C77"/>
</svg>
