<svg width="100" height="100" viewBox="0 0 100 100" fill="none" xmlns="http://www.w3.org/2000/svg">
<path fill-rule="evenodd" clip-rule="evenodd" d="M39.8308 15.875C40.9963 11.3461 45.107 8 50 8C54.893 8 59.0038 11.3461 60.1693 15.875H65.75C67.1998 15.875 68.375 17.0503 68.375 18.5V29C68.375 30.4497 67.1998 31.625 65.75 31.625H34.25C32.8003 31.625 31.625 30.4497 31.625 29V18.5C31.625 17.0503 32.8003 15.875 34.25 15.875H39.8308ZM50 13.25C47.1002 13.25 44.75 15.6001 44.75 18.5C44.75 19.9497 43.5748 21.125 42.125 21.125H36.875V26.375H63.125V21.125H57.875C56.4252 21.125 55.25 19.9497 55.25 18.5C55.25 15.6001 52.8998 13.25 50 13.25ZM31.625 44.75C31.625 43.3002 32.8003 42.125 34.25 42.125H65.75C67.1998 42.125 68.375 43.3002 68.375 44.75C68.375 46.1998 67.1998 47.375 65.75 47.375H34.25C32.8003 47.375 31.625 46.1998 31.625 44.75ZM31.625 57.875C31.625 56.4252 32.8003 55.25 34.25 55.25H65.75C67.1998 55.25 68.375 56.4252 68.375 57.875C68.375 59.3248 67.1998 60.5 65.75 60.5H34.25C32.8003 60.5 31.625 59.3248 31.625 57.875ZM34.25 68.375C32.8003 68.375 31.625 69.5502 31.625 71C31.625 72.4498 32.8003 73.625 34.25 73.625H47.375C48.8248 73.625 50 72.4498 50 71C50 69.5502 48.8248 68.375 47.375 68.375H34.25Z" fill="#D9D9D9"/>
<path d="M20.264 22H25.08C26.3171 22 27.32 23.0029 27.32 24.24C27.32 25.4771 26.3171 26.4799 25.08 26.4799H23.12V86.9599H64V92H18.7C18.5895 92 18.5 91.9105 18.5 91.8V23.764C18.5 22.7898 19.2898 22 20.264 22Z" fill="#D9D9D9"/>
<path d="M81.5001 64H77.3007V26.4799H74.6807C73.5761 26.4799 72.6807 25.5845 72.6807 24.4799V24C72.6807 22.8954 73.5761 22 74.6807 22H80.5001C81.0524 22 81.5001 22.4477 81.5001 23V64Z" fill="#D9D9D9"/>
<path d="M85.6367 75.2424C82.7239 73.3136 78.7612 73.6316 76.1964 76.1964C73.6316 78.7612 73.3136 82.7239 75.2424 85.6367L85.6367 75.2424ZM87.7576 77.3633L77.3633 87.7576C80.2761 89.6864 84.2388 89.3684 86.8036 86.8036C89.3684 84.2388 89.6864 80.2761 87.7576 77.3633ZM74.0755 74.0755C78.1762 69.9748 84.8238 69.9748 88.9245 74.0755C93.0252 78.1762 93.0252 84.8238 88.9245 88.9245C84.8238 93.0252 78.1762 93.0252 74.0755 88.9245C69.9748 84.8238 69.9748 78.1762 74.0755 74.0755Z" fill="#D9D9D9"/>
</svg>
