<svg width="55" height="30" viewBox="0 0 55 30" fill="none" xmlns="http://www.w3.org/2000/svg">
<path d="M0 8C0 3.58172 3.58172 0 8 0H55V30H8C3.58172 30 0 26.4183 0 22V8Z" fill="#002C77"/>
<path d="M12.47 15.43C12.8433 15.4967 13.16 15.6933 13.42 16.02C13.68 16.3467 13.81 16.7167 13.81 17.13C13.81 17.4833 13.7167 17.8033 13.53 18.09C13.35 18.37 13.0867 18.5933 12.74 18.76C12.3933 18.92 11.99 19 11.53 19H8.75V12.05H11.4C11.8733 12.05 12.28 12.13 12.62 12.29C12.96 12.45 13.2167 12.6667 13.39 12.94C13.5633 13.2067 13.65 13.5067 13.65 13.84C13.65 14.24 13.5433 14.5733 13.33 14.84C13.1167 15.1067 12.83 15.3033 12.47 15.43ZM9.89 14.97H11.3C11.6733 14.97 11.9633 14.8867 12.17 14.72C12.3833 14.5467 12.49 14.3 12.49 13.98C12.49 13.6667 12.3833 13.4233 12.17 13.25C11.9633 13.07 11.6733 12.98 11.3 12.98H9.89V14.97ZM11.43 18.07C11.8167 18.07 12.12 17.9767 12.34 17.79C12.56 17.6033 12.67 17.3433 12.67 17.01C12.67 16.67 12.5533 16.4 12.32 16.2C12.0867 16 11.7767 15.9 11.39 15.9H9.89V18.07H11.43ZM16.6888 14.29C16.8555 14.01 17.0755 13.7933 17.3488 13.64C17.6288 13.48 17.9588 13.4 18.3388 13.4V14.58H18.0488C17.6022 14.58 17.2622 14.6933 17.0288 14.92C16.8022 15.1467 16.6888 15.54 16.6888 16.1V19H15.5488V13.49H16.6888V14.29ZM22.2767 19.09C21.7567 19.09 21.2867 18.9733 20.8667 18.74C20.4467 18.5 20.1167 18.1667 19.8767 17.74C19.6367 17.3067 19.5167 16.8067 19.5167 16.24C19.5167 15.68 19.6401 15.1833 19.8867 14.75C20.1334 14.3167 20.4701 13.9833 20.8967 13.75C21.3234 13.5167 21.8001 13.4 22.3267 13.4C22.8534 13.4 23.3301 13.5167 23.7567 13.75C24.1834 13.9833 24.5201 14.3167 24.7667 14.75C25.0134 15.1833 25.1367 15.68 25.1367 16.24C25.1367 16.8 25.0101 17.2967 24.7567 17.73C24.5034 18.1633 24.1567 18.5 23.7167 18.74C23.2834 18.9733 22.8034 19.09 22.2767 19.09ZM22.2767 18.1C22.5701 18.1 22.8434 18.03 23.0967 17.89C23.3567 17.75 23.5667 17.54 23.7267 17.26C23.8867 16.98 23.9667 16.64 23.9667 16.24C23.9667 15.84 23.8901 15.5033 23.7367 15.23C23.5834 14.95 23.3801 14.74 23.1267 14.6C22.8734 14.46 22.6001 14.39 22.3067 14.39C22.0134 14.39 21.7401 14.46 21.4867 14.6C21.2401 14.74 21.0434 14.95 20.8967 15.23C20.7501 15.5033 20.6767 15.84 20.6767 16.24C20.6767 16.8333 20.8267 17.2933 21.1267 17.62C21.4334 17.94 21.8167 18.1 22.2767 18.1ZM34.1637 13.49L32.4537 19H31.2537L30.1437 14.93L29.0337 19H27.8337L26.1137 13.49H27.2737L28.4237 17.92L29.5937 13.49H30.7837L31.9037 17.9L33.0437 13.49H34.1637ZM37.5156 19.09C37.0823 19.09 36.6923 19.0133 36.3456 18.86C36.0056 18.7 35.7356 18.4867 35.5356 18.22C35.3356 17.9467 35.229 17.6433 35.2156 17.31H36.3956C36.4156 17.5433 36.5256 17.74 36.7256 17.9C36.9323 18.0533 37.189 18.13 37.4956 18.13C37.8156 18.13 38.0623 18.07 38.2356 17.95C38.4156 17.8233 38.5056 17.6633 38.5056 17.47C38.5056 17.2633 38.4056 17.11 38.2056 17.01C38.0123 16.91 37.7023 16.8 37.2756 16.68C36.8623 16.5667 36.5256 16.4567 36.2656 16.35C36.0056 16.2433 35.779 16.08 35.5856 15.86C35.399 15.64 35.3056 15.35 35.3056 14.99C35.3056 14.6967 35.3923 14.43 35.5656 14.19C35.739 13.9433 35.9856 13.75 36.3056 13.61C36.6323 13.47 37.0056 13.4 37.4256 13.4C38.0523 13.4 38.5556 13.56 38.9356 13.88C39.3223 14.1933 39.529 14.6233 39.5556 15.17H38.4156C38.3956 14.9233 38.2956 14.7267 38.1156 14.58C37.9356 14.4333 37.6923 14.36 37.3856 14.36C37.0856 14.36 36.8556 14.4167 36.6956 14.53C36.5356 14.6433 36.4556 14.7933 36.4556 14.98C36.4556 15.1267 36.509 15.25 36.6156 15.35C36.7223 15.45 36.8523 15.53 37.0056 15.59C37.159 15.6433 37.3856 15.7133 37.6856 15.8C38.0856 15.9067 38.4123 16.0167 38.6656 16.13C38.9256 16.2367 39.149 16.3967 39.3356 16.61C39.5223 16.8233 39.619 17.1067 39.6256 17.46C39.6256 17.7733 39.539 18.0533 39.3656 18.3C39.1923 18.5467 38.9456 18.74 38.6256 18.88C38.3123 19.02 37.9423 19.09 37.5156 19.09ZM46.4074 16.11C46.4074 16.3167 46.3941 16.5033 46.3674 16.67H42.1574C42.1908 17.11 42.3541 17.4633 42.6474 17.73C42.9408 17.9967 43.3008 18.13 43.7274 18.13C44.3408 18.13 44.7741 17.8733 45.0274 17.36H46.2574C46.0908 17.8667 45.7874 18.2833 45.3474 18.61C44.9141 18.93 44.3741 19.09 43.7274 19.09C43.2008 19.09 42.7274 18.9733 42.3074 18.74C41.8941 18.5 41.5674 18.1667 41.3274 17.74C41.0941 17.3067 40.9774 16.8067 40.9774 16.24C40.9774 15.6733 41.0908 15.1767 41.3174 14.75C41.5508 14.3167 41.8741 13.9833 42.2874 13.75C42.7074 13.5167 43.1874 13.4 43.7274 13.4C44.2474 13.4 44.7108 13.5133 45.1174 13.74C45.5241 13.9667 45.8408 14.2867 46.0674 14.7C46.2941 15.1067 46.4074 15.5767 46.4074 16.11ZM45.2174 15.75C45.2108 15.33 45.0608 14.9933 44.7674 14.74C44.4741 14.4867 44.1108 14.36 43.6774 14.36C43.2841 14.36 42.9474 14.4867 42.6674 14.74C42.3874 14.9867 42.2208 15.3233 42.1674 15.75H45.2174Z" fill="white"/>
</svg>
