<svg width="100" height="100" viewBox="0 0 100 100" fill="none" xmlns="http://www.w3.org/2000/svg">
<g clip-path="url(#clip0_238_221)">
<path d="M35.9375 59.375C38.5263 59.375 40.625 57.2763 40.625 54.6875C40.625 52.0987 38.5263 50 35.9375 50C33.3487 50 31.25 52.0987 31.25 54.6875C31.25 57.2763 33.3487 59.375 35.9375 59.375Z" fill="#002C77"/>
<path d="M64.0625 59.375C66.6513 59.375 68.75 57.2763 68.75 54.6875C68.75 52.0987 66.6513 50 64.0625 50C61.4737 50 59.375 52.0987 59.375 54.6875C59.375 57.2763 61.4737 59.375 64.0625 59.375Z" fill="#002C77"/>
<path d="M50 3.125C24.0625 3.125 3.125 24.0625 3.125 50V84.375C3.125 84.375 15.625 96.875 50 96.875C84.375 96.875 96.875 84.375 96.875 84.375V50C96.875 24.0625 75.9375 3.125 50 3.125Z" stroke="#002C77" stroke-width="6" stroke-miterlimit="10" stroke-linecap="round" stroke-linejoin="round"/>
<path d="M65.3125 19.0625C56.5625 30.3125 43.125 37.5 28.125 37.5C24.6875 37.5 21.5625 37.1875 18.4375 36.5625C16.5625 40.625 15.625 45.3125 15.625 50C15.625 69.0625 30.9375 84.375 50 84.375C69.0625 84.375 84.375 69.0625 84.375 50C84.375 36.5625 76.5625 24.6875 65.3125 19.0625Z" stroke="#002C77" stroke-width="6" stroke-miterlimit="10" stroke-linecap="round" stroke-linejoin="round"/>
</g>
<defs>
<clipPath id="clip0_238_221">
<rect width="100" height="100" fill="white"/>
</clipPath>
</defs>
</svg>
