<svg width="100" height="100" viewBox="0 0 100 100" fill="none" xmlns="http://www.w3.org/2000/svg">
<path d="M28.125 25C26.3991 25 25 26.3991 25 28.125C25 29.8509 26.3991 31.25 28.125 31.25H31.25C32.9759 31.25 34.375 29.8509 34.375 28.125C34.375 26.3991 32.9759 25 31.25 25H28.125Z" fill="#002C77"/>
<path d="M43.75 25C42.0241 25 40.625 26.3991 40.625 28.125C40.625 29.8509 42.0241 31.25 43.75 31.25H71.875C73.6009 31.25 75 29.8509 75 28.125C75 26.3991 73.6009 25 71.875 25H43.75Z" fill="#002C77"/>
<path d="M25 50C25 48.2741 26.3991 46.875 28.125 46.875H31.25C32.9759 46.875 34.375 48.2741 34.375 50C34.375 51.7259 32.9759 53.125 31.25 53.125H28.125C26.3991 53.125 25 51.7259 25 50Z" fill="#002C77"/>
<path d="M43.75 46.875C42.0241 46.875 40.625 48.2741 40.625 50C40.625 51.7259 42.0241 53.125 43.75 53.125H71.875C73.6009 53.125 75 51.7259 75 50C75 48.2741 73.6009 46.875 71.875 46.875H43.75Z" fill="#002C77"/>
<path d="M25 71.875C25 70.1491 26.3991 68.75 28.125 68.75H31.25C32.9759 68.75 34.375 70.1491 34.375 71.875C34.375 73.6009 32.9759 75 31.25 75H28.125C26.3991 75 25 73.6009 25 71.875Z" fill="#002C77"/>
<path d="M43.75 68.75C42.0241 68.75 40.625 70.1491 40.625 71.875C40.625 73.6009 42.0241 75 43.75 75H53.125C54.8509 75 56.25 73.6009 56.25 71.875C56.25 70.1491 54.8509 68.75 53.125 68.75H43.75Z" fill="#002C77"/>
<path fill-rule="evenodd" clip-rule="evenodd" d="M9.375 0C7.64912 0 6.25 1.39911 6.25 3.125V96.875C6.25 98.6009 7.64912 100 9.375 100H65.625C66.4641 100 67.2256 99.6694 67.7872 99.1312C67.8031 99.1159 67.8191 99.1003 67.8347 99.0847L92.8347 74.0847C92.8503 74.0691 92.8659 74.0531 92.8812 74.0372C93.4194 73.4756 93.75 72.7141 93.75 71.875V3.125C93.75 1.39911 92.3509 0 90.625 0H9.375ZM87.5 68.75V6.25H12.5V93.75H62.5V71.875C62.5 70.1491 63.8991 68.75 65.625 68.75H87.5ZM68.75 89.3306L83.0806 75H68.75V89.3306Z" fill="#002C77"/>
</svg>
