<svg width="130" height="30" viewBox="0 0 130 30" fill="none" xmlns="http://www.w3.org/2000/svg">
<g clip-path="url(#clip0_134_139)">
<path d="M27.0513 12.5725V0.746582H29.2595L33.1596 7.09485L37.1011 0.746582H39.2422V12.5725H37.1906V4.01336L33.1407 10.5649L29.1063 4.02955V12.5725H27.0513Z" fill="white"/>
<path d="M46.0183 12.8513C45.161 12.87 44.3107 12.6855 43.5313 12.3117C42.8231 11.965 42.2281 11.4082 41.8205 10.7107C41.3825 9.92278 41.1654 9.02201 41.194 8.11128C41.1767 7.24538 41.3691 6.38896 41.7533 5.62162C42.1097 4.92222 42.6425 4.33808 43.2938 3.93247C43.9751 3.51646 44.7527 3.30425 45.5416 3.31905C46.2786 3.30095 47.0066 3.49179 47.6483 3.87131C48.2458 4.23623 48.7294 4.77417 49.0407 5.42015C49.3816 6.14713 49.5499 6.9493 49.5312 7.7587C49.5312 7.88282 49.5312 8.00514 49.5174 8.11847C49.5037 8.2318 49.4916 8.41709 49.4727 8.65814H43.1595C43.2481 9.34877 43.59 9.97639 44.113 10.4085C44.6294 10.827 45.3242 11.0369 46.1973 11.0381C47.3056 11.0413 48.3838 10.6619 49.2644 9.95873V11.7936C48.7946 12.1275 48.2802 12.3869 47.7378 12.5635C47.1826 12.753 46.6024 12.8501 46.0183 12.8513ZM45.4521 4.93625C45.1675 4.92382 44.8834 4.97194 44.6172 5.07769C44.3509 5.18344 44.1079 5.34463 43.9031 5.55146C43.5049 5.96161 43.2565 6.53485 43.1578 7.2712H47.6242C47.6252 7.15058 47.6154 7.03012 47.5949 6.91142C47.5359 6.35009 47.2876 5.82907 46.8944 5.44173C46.4916 5.08911 45.977 4.90686 45.4521 4.93085V4.93625Z" fill="white"/>
<path d="M51.3333 12.5726V3.59798H53.2541L53.2695 5.46702C53.4752 4.8847 53.8366 4.37642 54.3108 4.00273C54.7657 3.64608 55.3205 3.45638 55.8891 3.46306C56.0787 3.46492 56.2679 3.48055 56.4554 3.50983C56.6314 3.53086 56.8046 3.5725 56.9717 3.63396V5.63252C56.7671 5.56973 56.5582 5.52283 56.347 5.4922C56.1107 5.4524 55.872 5.43135 55.6327 5.42924C54.8869 5.42924 54.3183 5.68109 53.927 6.18477C53.5363 6.68666 53.3401 7.41701 53.3401 8.37042V12.5726H51.3333Z" fill="white"/>
<path d="M62.4243 12.8511C61.5878 12.8713 60.7597 12.6735 60.0147 12.2755C59.3421 11.9052 58.7903 11.3341 58.4295 10.6349C58.0427 9.8653 57.8501 9.00529 57.8701 8.13623C57.8522 7.25936 58.0495 6.39232 58.4433 5.61779C58.8132 4.91024 59.3653 4.32509 60.037 3.92863C60.7589 3.51309 61.5728 3.30398 62.3967 3.32241C62.8143 3.31867 63.2303 3.3762 63.6325 3.4933C63.9984 3.60235 64.3567 3.73759 64.7048 3.89805V5.83365C64.0507 5.42691 63.3058 5.2067 62.5448 5.19505C61.7416 5.19505 61.099 5.45229 60.6171 5.96677C60.1352 6.48125 59.8948 7.17862 59.8959 8.05887C59.8959 8.9823 60.1363 9.70186 60.6171 10.2175C61.0978 10.7332 61.7657 10.9899 62.6205 10.9875C62.9567 10.9892 63.2917 10.945 63.617 10.8561C63.9891 10.7472 64.3528 10.6089 64.7048 10.4424V12.2952C64.3691 12.4676 64.0173 12.6032 63.6549 12.7C63.2524 12.8043 62.8389 12.8551 62.4243 12.8511Z" fill="white"/>
<path d="M70.8803 12.8514C70.0235 12.8697 69.1739 12.6852 68.395 12.3117C67.6863 11.965 67.0908 11.4083 66.6824 10.7107C66.2659 10.0031 66.0577 9.13667 66.0577 8.1113C66.0367 7.24436 66.2262 6.38599 66.6084 5.61625C66.9677 4.91606 67.5034 4.33193 68.1575 3.9271C68.8392 3.51077 69.6175 3.29855 70.407 3.31368C71.1441 3.29557 71.872 3.48641 72.5137 3.86594C73.1103 4.23146 73.5932 4.76929 73.9044 5.41478C74.247 6.14122 74.4159 6.94368 74.3966 7.75333C74.3966 7.87745 74.3966 7.99977 74.3811 8.1131C74.3656 8.22643 74.357 8.41172 74.3364 8.65277H68.0232C68.1112 9.34318 68.4525 9.97082 68.975 10.4031C69.4913 10.8216 70.1861 11.0315 71.0593 11.0327C72.1675 11.0359 73.2457 10.6565 74.1264 9.95336V11.7936C73.6568 12.1279 73.1423 12.3873 72.5997 12.5635C72.0446 12.7533 71.4644 12.8504 70.8803 12.8514ZM70.3158 4.93627C70.0312 4.92426 69.7473 4.97257 69.4811 5.07831C69.2148 5.18404 68.9719 5.345 68.7667 5.55149C68.3697 5.96164 68.1219 6.53488 68.0232 7.27122H72.4896C72.491 7.15051 72.4806 7.02996 72.4586 6.91145C72.4002 6.35032 72.1525 5.82928 71.7598 5.44176C71.3564 5.08902 70.8413 4.90678 70.3158 4.93088V4.93627Z" fill="white"/>
<path d="M76.1952 12.5726V3.598H78.116L78.1401 5.46165C78.3434 4.88044 78.7017 4.37229 79.1728 3.99736C79.6277 3.64071 80.1825 3.451 80.7511 3.45769C80.9406 3.45955 81.1298 3.47518 81.3173 3.50446C81.4933 3.52545 81.6666 3.56708 81.8337 3.62858V5.63254C81.6284 5.56998 81.419 5.52309 81.2072 5.49223C80.9709 5.45242 80.7322 5.43138 80.4929 5.42927C79.7494 5.42927 79.1814 5.68111 78.789 6.1848C78.3965 6.68669 78.2003 7.41704 78.2003 8.37044V12.5726H76.1952Z" fill="white"/>
<path d="M83.5204 12.5725V0.746582H85.7235L89.6253 7.09485L93.5702 0.746582H95.7147V12.5725H93.6597V4.01336L89.6098 10.5649L85.5754 4.02955V12.5725H83.5204Z" fill="white"/>
<path d="M100.627 12.8513C99.7342 12.8513 99.017 12.5946 98.4754 12.0813C98.2062 11.8225 97.9942 11.5054 97.8542 11.1522C97.7142 10.7989 97.6495 10.418 97.6648 10.036C97.6514 9.47101 97.8014 8.91493 98.0951 8.44039C98.3966 7.97341 98.8177 7.6044 99.3102 7.37545C99.8914 7.10965 100.521 6.9795 101.155 6.99409C101.931 6.98464 102.701 7.13818 103.419 7.44561V7.41323C103.419 6.65769 103.228 6.08025 102.845 5.6863C102.463 5.29234 101.875 5.09626 101.081 5.09626C100.597 5.10302 100.116 5.18362 99.6544 5.33551C99.1654 5.49113 98.7013 5.72213 98.2775 6.02089V4.16984C98.7149 3.91742 99.1764 3.71364 99.6544 3.56181C100.185 3.39399 100.737 3.31031 101.291 3.31357C102.561 3.31357 103.537 3.65596 104.217 4.34073C104.898 5.02551 105.242 6.0059 105.25 7.28191V12.5724H103.515L103.486 11.2646C103.234 11.7653 102.838 12.1706 102.353 12.4231C101.821 12.713 101.227 12.8601 100.627 12.8513ZM99.5391 9.91008C99.5286 10.1047 99.5607 10.2993 99.6332 10.4789C99.7057 10.6585 99.8166 10.8183 99.9574 10.9462C100.291 11.2062 100.702 11.3337 101.117 11.306C101.823 11.306 102.369 11.0961 102.756 10.6764C103.143 10.2567 103.361 9.64684 103.412 8.84694C102.801 8.57206 102.14 8.43829 101.475 8.45478C100.84 8.45478 100.358 8.5819 100.031 8.83614C99.8717 8.95958 99.7434 9.12198 99.6576 9.30918C99.5717 9.49637 99.5311 9.70268 99.5391 9.91008Z" fill="white"/>
<path d="M107.386 12.5726V3.59798H109.307L109.322 5.46702C109.528 4.8847 109.889 4.37642 110.363 4.00273C110.818 3.64608 111.373 3.45638 111.942 3.46306C112.131 3.46492 112.321 3.48055 112.508 3.50983C112.684 3.53086 112.857 3.5725 113.024 3.63396V5.63252C112.82 5.56973 112.611 5.52283 112.4 5.4922C112.163 5.4524 111.925 5.43135 111.685 5.42924C110.941 5.42924 110.372 5.68109 109.98 6.18477C109.589 6.68666 109.393 7.41701 109.393 8.37042V12.5726H107.386Z" fill="white"/>
<path d="M116.899 12.8512C116.561 12.8482 116.224 12.809 115.893 12.7342C115.538 12.6578 115.19 12.55 114.852 12.4122C114.548 12.2927 114.256 12.1414 113.981 11.9607V10.1277C114.8 10.7598 115.791 11.1031 116.809 11.108C117.396 11.108 117.823 11.0343 118.09 10.8832C118.216 10.8191 118.321 10.7178 118.393 10.5918C118.464 10.4659 118.499 10.3208 118.492 10.1744C118.492 10.0374 118.459 9.90264 118.395 9.78297C118.331 9.66331 118.239 9.56274 118.128 9.49085C117.885 9.31096 117.415 9.11129 116.721 8.88283C115.747 8.56263 115.059 8.18966 114.656 7.76392C114.253 7.33819 114.052 6.76254 114.054 6.03699C114.038 5.65568 114.11 5.27608 114.263 4.92953C114.416 4.58297 114.646 4.27939 114.933 4.04383C115.518 3.55573 116.317 3.31228 117.329 3.31348C117.778 3.32286 118.223 3.39362 118.654 3.52395C119.106 3.64594 119.542 3.82727 119.95 4.06362V5.89668C119.584 5.62265 119.177 5.4147 118.745 5.28146C118.305 5.12882 117.846 5.04635 117.382 5.03681C116.449 5.03681 115.983 5.33243 115.983 5.92366C115.977 6.0824 116.022 6.23863 116.11 6.36799C116.238 6.52148 116.398 6.6411 116.578 6.71697C116.895 6.86936 117.221 7.00035 117.554 7.10913C118.16 7.29938 118.742 7.56322 119.289 7.89524C119.665 8.12175 119.977 8.44663 120.196 8.83786C120.393 9.2359 120.491 9.67958 120.48 10.1277C120.489 10.5163 120.404 10.9009 120.234 11.2466C120.064 11.5922 119.814 11.8878 119.506 12.1064C118.85 12.6029 117.981 12.8512 116.899 12.8512Z" fill="white"/>
<path d="M122.214 12.5725V0.746582H124.224V4.88402C124.465 4.39525 124.839 3.99212 125.3 3.72554C125.792 3.44379 126.346 3.30175 126.907 3.31359C127.9 3.31359 128.664 3.64279 129.2 4.30118C129.735 4.95957 130.003 5.90638 130.003 7.14162V12.5725H127.99V7.53557C127.99 5.96814 127.416 5.18503 126.269 5.18623C125.988 5.17138 125.707 5.22305 125.448 5.33737C125.189 5.45169 124.958 5.62571 124.773 5.84642C124.409 6.28895 124.228 6.90896 124.229 7.70647V12.5725H122.214Z" fill="white"/>
<path d="M27.0513 29.7194V17.8936H31.2044C32.3667 17.8936 33.2652 18.1556 33.8997 18.6797C34.5342 19.2037 34.8521 19.9479 34.8532 20.9121C34.8601 21.449 34.7116 21.9755 34.4272 22.4227C34.1428 22.8699 33.7358 23.2168 33.2595 23.4179C33.8894 23.5445 34.455 23.9033 34.8532 24.4289C35.2455 24.9635 35.4502 25.6227 35.4333 26.2961C35.4333 27.3947 35.089 28.2401 34.4006 28.8326C33.7121 29.425 32.7293 29.7206 31.4522 29.7194H27.0513ZM31.0099 19.6367H28.9445V22.7793H30.9686C31.633 22.7793 32.1218 22.639 32.435 22.3584C32.7483 22.0796 32.9032 21.6532 32.9032 21.083C32.902 20.1188 32.2715 19.6367 31.0116 19.6367H31.0099ZM31.2629 24.4757H28.9428V27.9763H31.4127C32.0581 27.9763 32.5538 27.827 32.9015 27.5248C33.0756 27.368 33.2128 27.1714 33.3023 26.9502C33.3919 26.729 33.4314 26.4892 33.4178 26.2494C33.4319 26.001 33.39 25.7526 33.2956 25.5242C33.2011 25.2959 33.0567 25.0938 32.8739 24.9344C32.5159 24.6286 31.9795 24.4757 31.2646 24.4757H31.2629Z" fill="white"/>
<path d="M41.5227 30C40.6653 30.0187 39.8151 29.8342 39.0356 29.4603C38.3244 29.1134 37.726 28.5561 37.3145 27.8575C36.898 27.1524 36.6897 26.2859 36.6897 25.2581C36.672 24.3924 36.8639 23.536 37.2474 22.7685C37.6069 22.069 38.1425 21.4855 38.7964 21.0811C39.4772 20.6636 40.255 20.4507 41.0442 20.4659C41.7812 20.4487 42.509 20.6395 43.1509 21.0182C43.748 21.3836 44.2315 21.9214 44.5433 22.567C44.8843 23.294 45.0525 24.0962 45.0338 24.9056C45.0338 25.0315 45.0338 25.152 45.0184 25.2653C45.0029 25.3787 44.9943 25.5622 44.9736 25.805H38.6639C38.7519 26.4958 39.0939 27.1236 39.6174 27.5553C40.1314 27.9763 40.8262 28.1867 41.7017 28.1867C42.8107 28.1873 43.8886 27.804 44.7671 27.0966V28.9477C44.2976 29.2814 43.7838 29.5414 43.2421 29.7194C42.6864 29.9056 42.1063 30.0002 41.5227 30ZM40.9564 22.0849C40.6721 22.0731 40.3883 22.1213 40.1221 22.2267C39.856 22.3321 39.6129 22.4925 39.4074 22.6983C38.9836 23.1693 38.722 23.7744 38.6639 24.4181H43.1389C43.1399 24.2974 43.1301 24.177 43.1096 24.0583C43.0494 23.4973 42.8013 22.9767 42.4091 22.5886C42.0048 22.2364 41.4891 22.0548 40.9633 22.0795L40.9564 22.0849Z" fill="white"/>
<path d="M46.8376 29.7192V20.741H48.7722L48.7876 22.1801C49.0142 21.6539 49.3912 21.2139 49.8668 20.9208C50.3698 20.6142 50.9438 20.458 51.526 20.4693C52.5185 20.4693 53.2833 20.7985 53.8203 21.4569C54.3573 22.1153 54.6252 23.0579 54.6241 24.2848V29.7156H52.6138V24.6787C52.6138 23.1137 52.04 22.3306 50.8926 22.3294C50.6114 22.3149 50.3308 22.3669 50.0715 22.4815C49.8122 22.5961 49.5811 22.7704 49.3952 22.9914C49.0338 23.4315 48.8525 24.0509 48.8513 24.8496V29.721L46.8376 29.7192Z" fill="white"/>
<path d="M61.0543 30C60.1975 30.0184 59.3478 29.8339 58.569 29.4604C57.8574 29.1138 57.2589 28.5565 56.8478 27.8576C56.4313 27.1524 56.223 26.2859 56.223 25.2582C56.2098 24.3891 56.4076 23.5306 56.7979 22.7631C57.1548 22.0646 57.6875 21.4812 58.3383 21.0758C59.0187 20.6589 59.7959 20.4461 60.5844 20.4605C61.3214 20.4433 62.0492 20.6341 62.6911 21.0128C63.2877 21.3783 63.7706 21.9161 64.0818 22.5616C64.4243 23.2881 64.5932 24.0906 64.574 24.9002C64.574 25.0261 64.574 25.1466 64.5586 25.26C64.5431 25.3733 64.5345 25.5568 64.5138 25.7996H58.1972C58.2846 26.4902 58.626 27.1181 59.149 27.5499C59.6653 27.9709 60.3601 28.1814 61.2333 28.1814C62.3428 28.1822 63.4214 27.7988 64.3004 27.0912V28.9423C63.8305 29.2764 63.3161 29.5364 62.7737 29.714C62.2183 29.9023 61.6382 29.9988 61.0543 30ZM60.4898 22.0849C60.2054 22.0731 59.9216 22.1213 59.6555 22.2267C59.3893 22.3321 59.1462 22.4925 58.9407 22.6984C58.5437 23.1085 58.2959 23.6817 58.1972 24.4181H62.6636C62.665 24.2974 62.6546 24.1768 62.6326 24.0583C62.5738 23.4973 62.3261 22.9764 61.9338 22.5886C61.5298 22.2371 61.0149 22.0556 60.4898 22.0795V22.0849Z" fill="white"/>
<path d="M67.1729 29.7195V22.6553H65.5361V20.896H67.1729C67.1936 19.7974 67.4644 18.9628 67.9853 18.3919C68.5063 17.8211 69.2578 17.5356 70.24 17.5356C70.4873 17.5375 70.7341 17.5585 70.9784 17.5986C71.252 17.6407 71.5227 17.7007 71.7891 17.7785V19.4748C71.5773 19.3904 71.3574 19.3301 71.1333 19.295C70.9263 19.2649 70.7176 19.2493 70.5085 19.2482C70.3232 19.235 70.1374 19.2667 69.9657 19.341C69.794 19.4153 69.6411 19.53 69.5189 19.6763C69.2733 20.0239 69.1516 20.4502 69.1746 20.8816H71.7891V22.6409H69.1901V29.7051L67.1729 29.7195Z" fill="white"/>
<path d="M75.3329 18.5626C75.3377 18.7329 75.3098 18.9026 75.2506 19.0614C75.1915 19.2202 75.1024 19.365 74.9887 19.4872C74.746 19.7231 74.4268 19.8543 74.0954 19.8543C73.764 19.8543 73.4448 19.7231 73.2021 19.4872C72.9819 19.2339 72.8599 18.9039 72.8599 18.5617C72.8599 18.2194 72.9819 17.8894 73.2021 17.6361C73.4454 17.4014 73.7643 17.271 74.0954 17.271C74.4265 17.271 74.7454 17.4014 74.9887 17.6361C75.1025 17.7586 75.1916 17.9037 75.2507 18.0629C75.3098 18.222 75.3378 18.3919 75.3329 18.5626ZM73.0954 29.7156V20.741H75.1057V29.7192L73.0954 29.7156Z" fill="white"/>
<path d="M81.1538 29.9998C80.1418 29.9998 79.3925 29.6934 78.906 29.0806C78.4195 28.4677 78.1762 27.5809 78.1762 26.42V22.6549H76.4034V20.8956H78.1762V18.4995H80.1848V20.8956H82.9851V22.6549H80.1848V26.2527C80.1848 26.9063 80.2921 27.3806 80.5067 27.6756C80.7184 27.9724 81.0591 28.1199 81.5256 28.1199C81.8496 28.1175 82.1713 28.0622 82.4791 27.9562C82.7745 27.8622 83.0591 27.7343 83.3276 27.5749V29.4889C82.992 29.6476 82.6427 29.7729 82.2846 29.8631C81.9143 29.9558 81.5346 30.0017 81.1538 29.9998Z" fill="white"/>
<path d="M87.2725 29.9999C86.9346 29.9963 86.5978 29.9571 86.2674 29.883C85.9119 29.8063 85.5631 29.6992 85.2244 29.5628C84.9203 29.4439 84.6286 29.2932 84.3535 29.1131V27.2764C85.1738 27.9076 86.1644 28.2508 87.183 28.2568C87.7682 28.2568 88.1951 28.1813 88.4636 28.0302C88.5894 27.9664 88.6945 27.8654 88.7658 27.7397C88.8371 27.614 88.8715 27.4692 88.8646 27.3232C88.8653 27.1858 88.8321 27.0505 88.7682 26.9305C88.7043 26.8104 88.6118 26.7096 88.4997 26.6378C88.2564 26.4615 87.7877 26.2595 87.0935 26.0316C86.1216 25.709 85.4332 25.3354 85.0281 24.9109C84.6231 24.4864 84.4223 23.9107 84.4257 23.184C84.411 22.8031 84.4829 22.4241 84.6355 22.0779C84.7881 21.7318 85.017 21.4284 85.3035 21.1926C85.8887 20.7045 86.6879 20.4604 87.7011 20.4604C88.1497 20.47 88.5953 20.5407 89.0264 20.6709C89.4777 20.7934 89.9126 20.9747 90.3207 21.2106V23.0436C89.9546 22.77 89.5474 22.562 89.1159 22.4284C88.6763 22.2769 88.2173 22.1956 87.7544 22.1874C86.8216 22.1874 86.3552 22.483 86.3552 23.0742C86.349 23.2328 86.3932 23.389 86.4808 23.5186C86.6092 23.6716 86.7701 23.7911 86.9507 23.8675C87.2694 24.0193 87.5971 24.1497 87.9317 24.2579C88.5378 24.447 89.1202 24.7109 89.6666 25.044C90.0425 25.2699 90.3557 25.5941 90.5754 25.9848C90.769 26.3846 90.8636 26.8286 90.8508 27.2764C90.8583 27.665 90.773 28.0495 90.6026 28.395C90.4322 28.7405 90.1821 29.0361 89.8749 29.2552C89.2209 29.7517 88.3534 29.9999 87.2725 29.9999Z" fill="white"/>
<path d="M20.8138 2.8673L16.2907 0.14379C16.1111 0.0489332 15.9127 -0.000488281 15.7115 -0.000488281C15.5103 -0.000488281 15.3119 0.0489332 15.1323 0.14379L2.65057 7.65773L9.55753 2.12796L6.26154 0.14379C6.08196 0.0489332 5.88357 -0.000488281 5.68237 -0.000488281C5.48116 -0.000488281 5.28278 0.0489332 5.1032 0.14379L0.580027 2.8673C0.411481 2.98195 0.27114 3.13648 0.17037 3.31837C0.0696 3.50026 0.0112344 3.7044 0 3.91425L0 9.35408C0.0112344 9.56393 0.0696 9.76807 0.17037 9.94996C0.27114 10.1319 0.411481 10.2864 0.580027 10.401L5.1032 13.1317C5.28278 13.2266 5.48116 13.276 5.68237 13.276C5.88357 13.276 6.08196 13.2266 6.26154 13.1317L18.7433 5.6178L11.8363 11.153L15.1323 13.1317C15.3119 13.2266 15.5103 13.276 15.7115 13.276C15.9127 13.276 16.1111 13.2266 16.2907 13.1317L20.8138 10.4082C20.9833 10.2929 21.1242 10.1372 21.225 9.95398C21.3258 9.77075 21.3837 9.56518 21.3939 9.35408V3.91605C21.3828 3.70592 21.3245 3.50148 21.2237 3.31927C21.1229 3.13707 20.9825 2.98224 20.8138 2.8673Z" fill="white"/>
</g>
<defs>
<clipPath id="clip0_134_139">
<rect width="130" height="30" fill="white"/>
</clipPath>
</defs>
</svg>
