<svg width="100" height="100" viewBox="0 0 100 100" fill="none" xmlns="http://www.w3.org/2000/svg">
<path d="M49.3876 17.7618C47.684 14.8111 48.695 11.0381 51.6456 9.33458C54.5963 7.63101 58.3693 8.64198 60.0729 11.5926L82.6932 50.7721C84.3967 53.7228 83.3857 57.4958 80.4351 59.1993C77.4844 60.9029 73.7114 59.8919 72.0078 56.9413L71.5683 56.1799C61.3155 56.2045 51.7856 58.8452 42.6646 62.9722L49.6837 71.7999C51.3632 73.7484 50.8607 76.7536 48.6235 78.0453L46.6696 79.1734C45.2522 79.9917 43.4886 79.8901 42.1766 78.9249L28.4103 70.2948C28.1682 70.4297 27.9263 70.5651 27.6846 70.7009C23.7457 72.914 18.7255 71.5857 16.4511 67.6464L12.3383 60.5228C10.0645 56.5843 11.4206 51.5723 15.2935 49.2554C17.9526 47.6646 21.1856 45.694 23.983 43.8847C34.5068 37.0779 44.1361 28.2181 49.8255 18.5204L49.3876 17.7618ZM52.9493 15.7054L75.5696 54.8849C76.1375 55.8684 77.3951 56.2054 78.3787 55.6376C79.3622 55.0697 79.6992 53.812 79.1314 52.8285L56.5111 13.649C55.9433 12.6655 54.6856 12.3285 53.702 12.8963C52.7185 13.4642 52.3815 14.7219 52.9493 15.7054ZM52.1627 22.5685C46.2926 31.6847 37.3997 39.8412 27.8495 46.2613L36.5538 61.3374C37.2173 61.0062 37.8793 60.6809 38.5396 60.3619C48.0771 55.7546 58.2131 52.541 69.2215 52.1152L52.1627 22.5685ZM32.8871 63.2122L24.3942 48.502C22.0259 49.9974 19.5254 51.5163 17.4049 52.7848C15.43 53.9663 14.7668 56.5036 15.9001 58.4664L20.0129 65.59C21.1456 67.552 23.6683 68.24 25.6701 67.1153C26.273 66.7765 26.8772 66.4405 27.4827 66.107C29.2737 65.1204 31.0756 64.1564 32.8871 63.2122ZM32.5527 68.0375L44.5283 75.5451L44.6132 75.6116L46.5671 74.4835L46.5294 74.4411L38.8533 64.7872C38.1327 65.1442 37.409 65.509 36.6825 65.8809C35.2993 66.5888 33.9225 67.3073 32.5527 68.0375Z" fill="#CFCFCF"/>
<path d="M82.0546 70.3418C81.7875 70.3221 81.5191 70.3122 81.25 70.3122V68.7497C81.5576 68.7497 81.8643 68.761 82.1696 68.7835L82.0546 70.3418ZM85.1864 71.0451C84.6852 70.8518 84.1705 70.6956 83.6464 70.5779L83.9888 69.0534C84.5877 69.1879 85.176 69.3663 85.7487 69.5873L85.1864 71.0451ZM87.3266 72.1555C87.1028 72.006 86.8741 71.8651 86.6411 71.7331L87.4112 70.3736C87.6776 70.5245 87.9389 70.6854 88.1946 70.8563C88.4504 71.0272 88.6991 71.207 88.9404 71.3953L87.9791 72.6271C87.768 72.4624 87.5503 72.305 87.3266 72.1555ZM90.1923 74.9518C89.8831 74.5126 89.5418 74.0968 89.1715 73.7078L90.3031 72.6304C90.7264 73.075 91.1163 73.5502 91.4698 74.0521L90.1923 74.9518ZM91.3549 77.0641C91.2519 76.8154 91.1401 76.5713 91.0196 76.332L92.4153 75.6295C92.5529 75.903 92.6808 76.182 92.7985 76.4661C92.9162 76.7503 93.0231 77.038 93.1191 77.3287L91.6355 77.8188C91.5515 77.5645 91.4579 77.3127 91.3549 77.0641ZM92.1842 80.9813C92.171 80.4443 92.1183 79.909 92.0265 79.3798L93.566 79.1127C93.6709 79.7175 93.7312 80.3292 93.7462 80.9429L92.1842 80.9813ZM91.9773 83.3835C92.0298 83.1195 92.0725 82.8544 92.1053 82.5885L93.656 82.7798C93.6185 83.0836 93.5698 83.3867 93.5098 83.6883C93.4498 83.99 93.3788 84.2886 93.2972 84.5836L91.7913 84.1669C91.8627 83.9087 91.9248 83.6474 91.9773 83.3835ZM90.4906 87.1012C90.7779 86.6474 91.0315 86.1731 91.2492 85.682L92.6776 86.3152C92.4289 86.8764 92.1391 87.4185 91.8107 87.9371L90.4906 87.1012ZM88.984 88.9837C89.1743 88.7934 89.357 88.5966 89.532 88.3938L90.7151 89.4143C90.5152 89.6461 90.3063 89.871 90.0888 90.0885L88.984 88.9837Z" fill="#CFCFCF"/>
<path d="M81.25 70.3122C79.4513 70.3122 77.6804 70.7558 76.0941 71.6037C74.5078 72.4516 73.1551 73.6776 72.1558 75.1731C71.1565 76.6687 70.5415 78.3876 70.3652 80.1776C70.1889 81.9676 70.4567 83.7735 71.1451 85.4353C71.8334 87.097 72.9209 88.5634 74.3113 89.7045C75.7017 90.8456 77.3521 91.6261 79.1162 91.977C80.8803 92.3279 82.7038 92.2383 84.425 91.7162C86.1462 91.1941 87.7121 90.2555 88.984 88.9837L90.0888 90.0885C88.6353 91.5421 86.8457 92.6147 84.8786 93.2114C82.9114 93.8082 80.8275 93.9105 78.8114 93.5095C76.7952 93.1085 74.9091 92.2164 73.3201 90.9123C71.7311 89.6082 70.4882 87.9324 69.7015 86.0332C68.9149 84.1341 68.6087 82.0702 68.8102 80.0245C69.0117 77.9787 69.7146 76.0143 70.8566 74.3051C71.9987 72.5959 73.5446 71.1947 75.3575 70.2257C77.1705 69.2566 79.1944 68.7497 81.25 68.7497V70.3122Z" fill="#CFCFCF"/>
<path d="M80.4688 73.4372C80.9002 73.4372 81.25 73.787 81.25 74.2184V82.3588L86.3251 85.2589C86.6997 85.4729 86.8299 85.9502 86.6158 86.3248C86.4017 86.6994 85.9245 86.8296 85.5499 86.6155L80.0811 83.4905C79.8377 83.3514 79.6875 83.0925 79.6875 82.8122V74.2184C79.6875 73.787 80.0373 73.4372 80.4688 73.4372Z" fill="#CFCFCF"/>
</svg>
