<svg width="100" height="100" viewBox="0 0 100 100" fill="none" xmlns="http://www.w3.org/2000/svg">
<path d="M78.125 15.625V28.125" stroke="#002C77" stroke-width="4" stroke-miterlimit="10" stroke-linecap="round" stroke-linejoin="round"/>
<path d="M71.875 21.875H84.375" stroke="#002C77" stroke-width="4" stroke-miterlimit="10" stroke-linecap="round" stroke-linejoin="round"/>
<path d="M78.125 3.125C67.8125 3.125 59.375 11.5625 59.375 21.875C59.375 24.6875 60 27.5 61.25 30L59.375 40.625L70.3125 38.75C79.6875 43.125 90.9375 39.0625 95.3125 29.6875C99.6875 20.3125 95.625 9.0625 86.25 4.6875C83.75 3.75 80.9375 3.125 78.125 3.125Z" stroke="#002C77" stroke-width="5" stroke-miterlimit="10" stroke-linecap="round" stroke-linejoin="round"/>
<path fill-rule="evenodd" clip-rule="evenodd" d="M31.6622 3.91189C29.702 2.96651 27.4698 2.74788 25.3635 3.29496L9.89476 7.30746L9.88998 7.30871C7.70601 7.87889 5.80711 9.23055 4.55323 11.1074C3.29936 12.9843 2.77767 15.256 3.08701 17.4919L3.08789 17.4981C5.89679 37.5008 15.1414 56.0452 29.4242 70.328C43.7069 84.6108 62.2516 93.8555 82.2541 96.6646L82.2619 96.6655C84.4972 96.9736 86.7678 96.4515 88.6435 95.1977C90.5194 93.944 91.8703 92.0455 92.4406 89.8627L92.4419 89.8577L96.4544 74.388C97 72.2833 96.7809 70.053 95.8363 68.0946C94.8916 66.1361 93.2813 64.5755 91.2947 63.6918L72.9978 55.5668C71.145 54.7436 69.0722 54.5561 67.1019 55.0343C65.1313 55.5124 63.3741 56.6293 62.1047 58.2105L64.5419 60.1668L62.1016 58.2149L56.6928 64.9771C47.885 59.3465 40.406 51.8674 34.7753 43.0596L41.5394 37.6496C43.1225 36.3815 44.2413 34.6249 44.721 32.654C45.201 30.6832 45.0147 28.6086 44.1916 26.7547L36.0666 8.4578C35.1835 6.46849 33.6225 4.85742 31.6622 3.91189ZM59.851 71.0343L66.9791 62.1227C67.3844 61.6186 67.9466 61.2605 68.5756 61.108C69.205 60.9552 69.8691 61.0158 70.4613 61.279L88.7581 69.404C89.3919 69.6865 89.9053 70.1846 90.2069 70.8096C90.5084 71.4352 90.5781 72.148 90.4044 72.8205L86.3934 88.2833L86.3922 88.2871C86.2081 88.9886 85.7735 89.5983 85.1706 90.0015C84.5675 90.4046 83.8375 90.5727 83.1188 90.4746C64.4619 87.8536 47.1656 79.2305 33.8438 65.9086C20.5215 52.5865 11.8984 35.2896 9.27767 16.6326C9.17882 15.9135 9.34692 15.183 9.7502 14.5793C10.1536 13.9754 10.7663 13.5399 11.4688 13.356L26.9342 9.34436C27.6073 9.16942 28.3207 9.23924 28.9471 9.54136C29.5735 9.84346 30.0725 10.3587 30.3546 10.9944L38.4797 29.2912C38.7422 29.8835 38.8016 30.546 38.6484 31.1755C38.495 31.8052 38.1378 32.3665 37.6319 32.7715L28.718 39.9015C27.5049 40.8718 27.1887 42.5858 27.9759 43.9252C34.7372 55.4286 44.3238 65.0152 55.8272 71.7765C57.1666 72.5636 58.8806 72.2474 59.851 71.0343Z" fill="#002C77"/>
</svg>
