<svg width="100" height="100" viewBox="0 0 100 100" fill="none" xmlns="http://www.w3.org/2000/svg">
<path fill-rule="evenodd" clip-rule="evenodd" d="M6.82968 19.3297C3.92531 46.0491 12.3655 65.9556 22.5375 79.2625C27.7614 86.0963 33.439 91.19 38.2693 94.5962C40.6827 96.2981 42.9196 97.6031 44.8191 98.4975C46.5741 99.3237 48.4519 100 50 100C51.5482 100 53.4259 99.3237 55.181 98.4975C57.0804 97.6031 59.3172 96.2981 61.7307 94.5962C65.0787 92.235 68.8344 89.0631 72.5631 85.0631L67.9062 80.4062C64.4825 84.0869 61.0527 86.9812 58.0415 89.1044C55.8787 90.6294 53.9667 91.7325 52.4644 92.44C51.7122 92.7937 51.097 93.0325 50.6297 93.1775C50.2449 93.2962 50.0471 93.3244 50 93.3312C49.953 93.3244 49.7551 93.2962 49.3702 93.1775C48.903 93.0325 48.2879 92.7937 47.5357 92.44C46.0332 91.7325 44.1212 90.6294 41.9585 89.1044C37.6364 86.0569 32.4519 81.42 27.6602 75.1519C19.0787 63.9256 11.7467 47.4634 12.872 25.372L6.82968 19.3297ZM24.8804 12.3804L19.554 7.054C23.1714 5.92863 27.4444 4.65083 31.6979 3.49783C38.4836 1.65839 45.6907 0 50 0C54.3093 0 61.5164 1.65839 68.3019 3.49782C75.24 5.37854 82.23 7.59131 86.3419 8.933C89.7731 10.0528 92.3687 13.0849 92.8675 16.8256C95.8869 39.4876 90.7906 57.3952 83.1731 70.6731L78.3637 65.8638C84.8725 53.8938 89.1125 37.9332 86.42 17.7274C86.2725 16.6198 85.4869 15.6506 84.3675 15.2853C80.2994 13.9578 73.4256 11.7826 66.6381 9.94275C59.6981 8.06156 53.3178 6.66669 50 6.66669C46.6822 6.66669 40.3019 8.06156 33.3621 9.94275C30.4764 10.725 27.5751 11.5678 24.8804 12.3804Z" fill="#DADADA"/>
<path fill-rule="evenodd" clip-rule="evenodd" d="M85.2906 89.7094L4.04053 8.45956L8.45994 4.04014L89.71 85.29L85.2906 89.7094Z" fill="#DADADA"/>
</svg>
