<svg width="100" height="100" viewBox="0 0 100 100" fill="none" xmlns="http://www.w3.org/2000/svg">
<rect width="100" height="100" rx="50" fill="url(#paint0_linear_393_18)"/>
<path fill-rule="evenodd" clip-rule="evenodd" d="M38.4152 70.9597C37.1949 69.7393 37.1949 67.7606 38.4152 66.5403L54.9555 50L38.4152 33.4597C37.1949 32.2394 37.1949 30.2606 38.4152 29.0403C39.6355 27.82 41.6143 27.82 42.8346 29.0403L61.5846 47.7903C62.8049 49.0106 62.8049 50.9894 61.5846 52.2097L42.8346 70.9597C41.6143 72.1801 39.6355 72.1801 38.4152 70.9597Z" fill="white"/>
<path fill-rule="evenodd" clip-rule="evenodd" d="M38.4152 70.9597C37.1949 69.7393 37.1949 67.7606 38.4152 66.5403L54.9555 50L38.4152 33.4597C37.1949 32.2394 37.1949 30.2606 38.4152 29.0403C39.6355 27.82 41.6143 27.82 42.8346 29.0403L61.5846 47.7903C62.8049 49.0106 62.8049 50.9894 61.5846 52.2097L42.8346 70.9597C41.6143 72.1801 39.6355 72.1801 38.4152 70.9597Z" fill="white"/>
<defs>
<linearGradient id="paint0_linear_393_18" x1="16" y1="84" x2="90.5" y2="14" gradientUnits="userSpaceOnUse">
<stop stop-color="#009DE0"/>
<stop offset="0.41855" stop-color="#456FC6"/>
<stop offset="1" stop-color="#8246AF"/>
</linearGradient>
</defs>
</svg>
