<svg width="250" height="250" viewBox="0 0 250 250" fill="none" xmlns="http://www.w3.org/2000/svg">
<path d="M94 125C106.465 125 118.42 120.048 127.234 111.234C136.048 102.42 141 90.4652 141 78C141 65.5348 136.048 53.5802 127.234 44.766C118.42 35.9518 106.465 31 94 31C81.5348 31 69.5802 35.9518 60.766 44.766C51.9518 53.5802 47 65.5348 47 78C47 90.4652 51.9518 102.42 60.766 111.234C69.5802 120.048 81.5348 125 94 125V125ZM125.333 78C125.333 86.3101 122.032 94.2799 116.156 100.156C110.28 106.032 102.31 109.333 94 109.333C85.6899 109.333 77.7201 106.032 71.844 100.156C65.9678 94.2799 62.6667 86.3101 62.6667 78C62.6667 69.6899 65.9678 61.7201 71.844 55.844C77.7201 49.9678 85.6899 46.6667 94 46.6667C102.31 46.6667 110.28 49.9678 116.156 55.844C122.032 61.7201 125.333 69.6899 125.333 78V78ZM188 203.333C188 219 172.333 219 172.333 219H15.6667C15.6667 219 0 219 0 203.333C0 187.667 15.6667 140.667 94 140.667C172.333 140.667 188 187.667 188 203.333ZM172.333 203.271C172.318 199.417 169.921 187.823 159.299 177.201C149.084 166.987 129.861 156.333 94 156.333C58.1233 156.333 38.916 166.987 28.7013 177.201C18.0793 187.823 15.698 199.417 15.6667 203.271H172.333Z" fill="#002C77"/>
<path fill-rule="evenodd" clip-rule="evenodd" d="M211 78C213.069 78 215.053 78.8218 216.515 80.2846C217.978 81.7474 218.8 83.7313 218.8 85.8V109.2H242.2C244.269 109.2 246.253 110.022 247.715 111.485C249.178 112.947 250 114.931 250 117C250 119.069 249.178 121.053 247.715 122.515C246.253 123.978 244.269 124.8 242.2 124.8H218.8V148.2C218.8 150.269 217.978 152.253 216.515 153.715C215.053 155.178 213.069 156 211 156C208.931 156 206.947 155.178 205.485 153.715C204.022 152.253 203.2 150.269 203.2 148.2V124.8H179.8C177.731 124.8 175.747 123.978 174.285 122.515C172.822 121.053 172 119.069 172 117C172 114.931 172.822 112.947 174.285 111.485C175.747 110.022 177.731 109.2 179.8 109.2H203.2V85.8C203.2 83.7313 204.022 81.7474 205.485 80.2846C206.947 78.8218 208.931 78 211 78Z" fill="#002C77"/>
</svg>
