<svg width="250" height="250" viewBox="0 0 250 250" fill="none" xmlns="http://www.w3.org/2000/svg">
<g clip-path="url(#clip0_292_11)">
<path d="M94 125C106.465 125 118.42 120.048 127.234 111.234C136.048 102.42 141 90.4652 141 78C141 65.5348 136.048 53.5802 127.234 44.766C118.42 35.9518 106.465 31 94 31C81.5348 31 69.5802 35.9518 60.766 44.766C51.9518 53.5802 47 65.5348 47 78C47 90.4652 51.9518 102.42 60.766 111.234C69.5802 120.048 81.5348 125 94 125V125ZM125.333 78C125.333 86.3101 122.032 94.2799 116.156 100.156C110.28 106.032 102.31 109.333 94 109.333C85.6899 109.333 77.7201 106.032 71.844 100.156C65.9678 94.2799 62.6667 86.3101 62.6667 78C62.6667 69.6899 65.9678 61.7201 71.844 55.844C77.7201 49.9678 85.6899 46.6667 94 46.6667C102.31 46.6667 110.28 49.9678 116.156 55.844C122.032 61.7201 125.333 69.6899 125.333 78V78ZM188 203.333C188 219 172.333 219 172.333 219H15.6667C15.6667 219 0 219 0 203.333C0 187.667 15.6667 140.667 94 140.667C172.333 140.667 188 187.667 188 203.333ZM172.333 203.271C172.318 199.417 169.921 187.823 159.299 177.201C149.084 166.987 129.861 156.333 94 156.333C58.1233 156.333 38.916 166.987 28.7013 177.201C18.0793 187.823 15.698 199.417 15.6667 203.271H172.333Z" fill="#002C77"/>
<path d="M215.543 81.5441C214.359 76.8154 207.646 76.8154 206.456 81.5441L206.11 82.9384C205.908 83.7486 205.492 84.4899 204.907 85.0854C204.321 85.6808 203.587 86.1086 202.78 86.3245C201.973 86.5404 201.123 86.5364 200.318 86.313C199.514 86.0897 198.783 85.655 198.203 85.0541L197.204 84.0255C193.816 80.5204 188 83.8792 189.34 88.5641L189.73 89.9486C189.96 90.7508 189.97 91.5996 189.761 92.4072C189.552 93.2149 189.131 93.9519 188.541 94.5421C187.951 95.1322 187.215 95.554 186.407 95.7638C185.6 95.9736 184.751 95.9637 183.949 95.7352L182.564 95.3404C177.884 93.9997 174.52 99.8156 178.025 103.204L179.054 104.203C179.655 104.783 180.09 105.514 180.313 106.318C180.536 107.123 180.54 107.973 180.325 108.78C180.109 109.587 179.681 110.321 179.085 110.907C178.49 111.492 177.749 111.908 176.938 112.11L175.544 112.456C170.815 113.641 170.815 120.354 175.544 121.543L176.938 121.89C177.749 122.092 178.49 122.508 179.085 123.093C179.681 123.679 180.109 124.413 180.325 125.22C180.54 126.027 180.536 126.877 180.313 127.682C180.09 128.486 179.655 129.217 179.054 129.797L178.025 130.796C174.52 134.184 177.879 140 182.564 138.66L183.949 138.27C184.751 138.04 185.601 138.029 186.409 138.239C187.217 138.448 187.955 138.87 188.545 139.46C189.135 140.05 189.557 140.788 189.766 141.596C189.976 142.404 189.965 143.254 189.735 144.056L189.34 145.436C188 150.116 193.816 153.48 197.204 149.974L198.203 148.946C198.783 148.345 199.514 147.91 200.318 147.687C201.123 147.464 201.973 147.46 202.78 147.675C203.587 147.891 204.321 148.319 204.907 148.915C205.492 149.51 205.908 150.251 206.11 151.062L206.456 152.456C207.641 157.185 214.354 157.185 215.543 152.456L215.89 151.062C216.092 150.251 216.508 149.51 217.093 148.915C217.679 148.319 218.413 147.891 219.22 147.675C220.027 147.46 220.877 147.464 221.682 147.687C222.486 147.91 223.217 148.345 223.797 148.946L224.796 149.974C228.184 153.48 234 150.121 232.66 145.436L232.27 144.051C232.04 143.249 232.029 142.399 232.239 141.591C232.448 140.783 232.87 140.045 233.46 139.455C234.05 138.865 234.788 138.443 235.596 138.234C236.404 138.024 237.254 138.035 238.056 138.265L239.436 138.66C244.116 140 247.48 134.184 243.974 130.796L242.946 129.797C242.345 129.217 241.91 128.486 241.687 127.682C241.464 126.877 241.46 126.027 241.675 125.22C241.891 124.413 242.319 123.679 242.915 123.093C243.51 122.508 244.251 122.092 245.062 121.89L246.456 121.543C251.185 120.359 251.185 113.646 246.456 112.456L245.062 112.11C244.251 111.908 243.51 111.492 242.915 110.907C242.319 110.321 241.891 109.587 241.675 108.78C241.46 107.973 241.464 107.123 241.687 106.318C241.91 105.514 242.345 104.783 242.946 104.203L243.974 103.204C247.48 99.8156 244.121 93.9997 239.436 95.3404L238.051 95.7304C237.249 95.9595 236.4 95.9701 235.593 95.761C234.785 95.5519 234.048 95.1307 233.458 94.5411C232.868 93.9514 232.446 93.2147 232.236 92.4073C232.026 91.5998 232.036 90.751 232.265 89.9486L232.66 88.5641C234 83.8841 228.184 80.5204 224.796 84.0255L223.797 85.0541C223.217 85.655 222.486 86.0897 221.682 86.313C220.877 86.5364 220.027 86.5404 219.22 86.3245C218.413 86.1086 217.679 85.6808 217.093 85.0854C216.508 84.4899 216.092 83.7486 215.89 82.9384L215.543 81.5441ZM211 141.36C207.772 141.406 204.566 140.81 201.571 139.606C198.575 138.402 195.848 136.615 193.549 134.348C191.25 132.081 189.424 129.38 188.178 126.401C186.932 123.423 186.29 120.226 186.29 116.998C186.29 113.769 186.932 110.572 188.178 107.594C189.424 104.615 191.25 101.914 193.549 99.6473C195.848 97.3805 198.575 95.5932 201.571 94.3894C204.566 93.1855 207.772 92.5891 211 92.6347C217.462 92.6347 223.659 95.2018 228.229 99.7712C232.798 104.341 235.365 110.538 235.365 117C235.365 123.462 232.798 129.659 228.229 134.229C223.659 138.798 217.462 141.365 211 141.365V141.36Z" fill="#002C77"/>
</g>
<defs>
<clipPath id="clip0_292_11">
<rect width="250" height="250" fill="white"/>
</clipPath>
</defs>
</svg>
