<svg width="100" height="100" viewBox="0 0 100 100" fill="none" xmlns="http://www.w3.org/2000/svg">
<g clip-path="url(#clip0_1254_1394)">
<path d="M66.4062 80.4688H17.1875V70.625C17.1875 68.75 18.3594 67.1094 20 66.4062C24.6875 64.2969 32.8906 61.7188 45.3125 61.7188C49.2969 61.7188 53.0469 61.9531 56.7969 62.4219C57.9687 62.6562 59.375 61.7187 59.375 60.3125C59.375 58.9062 58.6719 57.7344 57.2656 57.7344C53.5156 57.2656 49.5312 57.0312 45.3125 57.0312C32.1875 57.0312 23.2813 59.8438 18.125 61.9531C14.6094 63.5938 12.5 66.875 12.5 70.625V82.8125C12.5 84.2188 13.4375 85.1562 14.8438 85.1562H66.4062C67.8125 85.1562 68.75 84.2188 68.75 82.8125C68.75 81.4062 67.8125 80.4688 66.4062 80.4688Z" fill="#CFCFCF"/>
<path d="M45.3125 52.3438C56.0937 52.3438 64.0625 41.0937 64.0625 31.25C64.0625 20.9375 55.625 12.5 45.3125 12.5C35 12.5 26.5625 20.9375 26.5625 31.25C26.5625 41.0937 34.5313 52.3438 45.3125 52.3438ZM45.3125 17.1875C53.0469 17.1875 59.375 23.5156 59.375 31.25C59.375 38.75 53.2813 47.6562 45.3125 47.6562C37.3437 47.6562 31.25 38.75 31.25 31.25C31.25 23.5156 37.5781 17.1875 45.3125 17.1875Z" fill="#CFCFCF"/>
<path d="M74.7724 56.0284C74.516 56.0095 74.2584 56 74 56V54.5C74.2953 54.5 74.5897 54.5109 74.8828 54.5325L74.7724 56.0284ZM77.7789 56.7036C77.2978 56.518 76.8037 56.3681 76.3006 56.2551L76.6292 54.7916C77.2042 54.9207 77.7689 55.092 78.3187 55.3041L77.7789 56.7036ZM79.8335 57.7696C79.6187 57.626 79.3992 57.4908 79.1754 57.3641L79.9148 56.059C80.1705 56.2038 80.4213 56.3583 80.6669 56.5224C80.9124 56.6864 81.1511 56.859 81.3828 57.0398L80.46 58.2224C80.2573 58.0642 80.0483 57.9131 79.8335 57.7696ZM82.5847 60.454C82.2877 60.0324 81.9602 59.6333 81.6046 59.2598L82.691 58.2255C83.0973 58.6523 83.4717 59.1085 83.811 59.5903L82.5847 60.454ZM83.7007 62.4818C83.6019 62.2431 83.4945 62.0087 83.3789 61.7791L84.7187 61.1047C84.8508 61.3671 84.9736 61.635 85.0866 61.9078C85.1996 62.1806 85.3022 62.4568 85.3944 62.7358L83.9701 63.2063C83.8894 62.9622 83.7996 62.7205 83.7007 62.4818ZM84.4968 66.2423C84.4842 65.7268 84.4336 65.213 84.3454 64.7049L85.8233 64.4485C85.9241 65.0291 85.9819 65.6164 85.9964 66.2055L84.4968 66.2423ZM84.2983 68.5484C84.3487 68.295 84.3896 68.0405 84.421 67.7853L85.9098 67.9689C85.8738 68.2606 85.827 68.5515 85.7694 68.8411C85.7118 69.1307 85.6437 69.4173 85.5653 69.7006L84.1197 69.3005C84.1882 69.0527 84.2478 68.8019 84.2983 68.5484ZM82.871 72.1175C83.1468 71.6818 83.3903 71.2264 83.5992 70.755L84.9705 71.3629C84.7317 71.9016 84.4535 72.4221 84.1383 72.92L82.871 72.1175ZM81.4246 73.9246C81.6073 73.7419 81.7828 73.553 81.9507 73.3583L83.0865 74.3381C82.8946 74.5606 82.6941 74.7765 82.4853 74.9853L81.4246 73.9246Z" fill="#CFCFCF"/>
<path d="M74 56C72.2733 56 70.5732 56.4258 69.0503 57.2398C67.5275 58.0538 66.2289 59.2308 65.2696 60.6665C64.3102 62.1022 63.7198 63.7524 63.5506 65.4708C63.3813 67.1892 63.6385 68.9229 64.2993 70.5182C64.9601 72.1135 66.0041 73.5212 67.3389 74.6166C68.6737 75.712 70.258 76.4614 71.9516 76.7982C73.6451 77.1351 75.3956 77.0491 77.048 76.5479C78.7004 76.0466 80.2036 75.1456 81.4246 73.9246L82.4853 74.9853C81.0899 76.3807 79.3719 77.4104 77.4834 77.9833C75.595 78.5561 73.5944 78.6544 71.6589 78.2694C69.7234 77.8844 67.9128 77.028 66.3873 75.7761C64.8618 74.5242 63.6686 72.9154 62.9134 71.0922C62.1583 69.269 61.8644 67.2877 62.0578 65.3238C62.2512 63.3599 62.926 61.474 64.0224 59.8332C65.1187 58.1923 66.6028 56.8472 68.3432 55.9169C70.0836 54.9867 72.0266 54.5 74 54.5V56Z" fill="#CFCFCF"/>
<path d="M73.25 59C73.6642 59 74 59.3358 74 59.75V67.5648L78.8721 70.3488C79.2317 70.5543 79.3567 71.0125 79.1512 71.3721C78.9457 71.7317 78.4875 71.8567 78.1279 71.6512L72.8779 68.6512C72.6442 68.5177 72.5 68.2691 72.5 68V59.75C72.5 59.3358 72.8358 59 73.25 59Z" fill="#CFCFCF"/>
<path d="M74.7724 56.0284L74.7541 56.2778L75.0034 56.2962L75.0218 56.0468L74.7724 56.0284ZM74.8828 54.5325L75.1321 54.5509L75.1505 54.3016L74.9012 54.2832L74.8828 54.5325ZM76.3006 56.2551L76.0566 56.2003L76.0019 56.4443L76.2458 56.499L76.3006 56.2551ZM77.7789 56.7036L77.6889 56.9368L77.9222 57.0268L78.0122 56.7935L77.7789 56.7036ZM76.6292 54.7916L76.684 54.5476L76.4401 54.4929L76.3853 54.7368L76.6292 54.7916ZM78.3187 55.3041L78.552 55.3941L78.642 55.1608L78.4087 55.0708L78.3187 55.3041ZM79.1754 57.3641L78.9579 57.2409L78.8347 57.4584L79.0522 57.5816L79.1754 57.3641ZM79.8335 57.7696L79.9724 57.5617L79.9724 57.5617L79.8335 57.7696ZM79.9148 56.059L80.038 55.8414L79.8205 55.7182L79.6973 55.9357L79.9148 56.059ZM80.6669 56.5224L80.8057 56.3145L80.8057 56.3145L80.6669 56.5224ZM81.3828 57.0398L81.5799 57.1936L81.7337 56.9966L81.5366 56.8427L81.3828 57.0398ZM80.46 58.2224L80.3061 58.4195L80.5032 58.5733L80.657 58.3762L80.46 58.2224ZM81.6046 59.2598L81.4322 59.0788L81.2512 59.2511L81.4235 59.4322L81.6046 59.2598ZM82.5847 60.454L82.3803 60.598L82.5242 60.8024L82.7286 60.6584L82.5847 60.454ZM82.691 58.2255L82.872 58.0531L82.6997 57.8721L82.5186 58.0445L82.691 58.2255ZM83.811 59.5903L83.955 59.7947L84.1594 59.6507L84.0154 59.4463L83.811 59.5903ZM83.3789 61.7791L83.2665 61.5558L83.0432 61.6682L83.1556 61.8915L83.3789 61.7791ZM84.7187 61.1047L84.942 60.9923L84.8296 60.769L84.6063 60.8814L84.7187 61.1047ZM85.3944 62.7358L85.4728 62.9732L85.7102 62.8948L85.6317 62.6574L85.3944 62.7358ZM83.9701 63.2063L83.7327 63.2848L83.8111 63.5222L84.0485 63.4437L83.9701 63.2063ZM84.3454 64.7049L84.3027 64.4586L84.0564 64.5013L84.0991 64.7476L84.3454 64.7049ZM84.4968 66.2423L84.2469 66.2485L84.2531 66.4984L84.503 66.4922L84.4968 66.2423ZM85.8233 64.4485L86.0697 64.4057L86.0269 64.1594L85.7806 64.2021L85.8233 64.4485ZM85.9964 66.2055L86.0025 66.4554L86.2525 66.4493L86.2463 66.1994L85.9964 66.2055ZM84.421 67.7853L84.4517 67.5372L84.2035 67.5066L84.1729 67.7547L84.421 67.7853ZM84.2983 68.5484L84.0531 68.4997L84.0531 68.4997L84.2983 68.5484ZM85.9098 67.9689L86.1579 67.9995L86.1885 67.7514L85.9404 67.7208L85.9098 67.9689ZM85.7694 68.8411L86.0146 68.8899L86.0146 68.8899L85.7694 68.8411ZM85.5653 69.7006L85.4987 69.9415L85.7396 70.0082L85.8063 69.7672L85.5653 69.7006ZM84.1197 69.3005L83.8787 69.2338L83.812 69.4748L84.053 69.5414L84.1197 69.3005ZM83.5992 70.755L83.7005 70.5265L83.472 70.4252L83.3707 70.6537L83.5992 70.755ZM82.871 72.1175L82.6598 71.9837L82.526 72.1949L82.7372 72.3287L82.871 72.1175ZM84.9705 71.3629L85.1991 71.4642L85.3004 71.2357L85.0718 71.1344L84.9705 71.3629ZM84.1383 72.92L84.0045 73.1312L84.2157 73.2649L84.3495 73.0537L84.1383 72.92ZM81.9507 73.3583L82.114 73.169L81.9247 73.0057L81.7614 73.195L81.9507 73.3583ZM81.4246 73.9246L81.2479 73.7478L81.2479 73.7478L81.4246 73.9246ZM83.0865 74.3381L83.2758 74.5014L83.4391 74.3121L83.2498 74.1488L83.0865 74.3381ZM82.4853 74.9853L82.6621 75.1621L82.6621 75.1621L82.4853 74.9853ZM69.0503 57.2398L69.1682 57.4603L69.0503 57.2398ZM63.5506 65.4708L63.3018 65.4463L63.3018 65.4463L63.5506 65.4708ZM64.2993 70.5182L64.0683 70.6138L64.0683 70.6138L64.2993 70.5182ZM77.048 76.5479L77.1206 76.7871L77.1206 76.7871L77.048 76.5479ZM77.4834 77.9833L77.556 78.2225L77.556 78.2225L77.4834 77.9833ZM66.3873 75.7761L66.5459 75.5829L66.5459 75.5829L66.3873 75.7761ZM62.9134 71.0922L63.1444 70.9965L63.1444 70.9965L62.9134 71.0922ZM62.0578 65.3238L62.3066 65.3483L62.3066 65.3483L62.0578 65.3238ZM64.0224 59.8332L64.2302 59.972L64.2302 59.972L64.0224 59.8332ZM68.3432 55.9169L68.2254 55.6965L68.2254 55.6965L68.3432 55.9169ZM74 67.5648H73.75C73.75 67.6545 73.7981 67.7373 73.876 67.7818L74 67.5648ZM78.8721 70.3488L78.7481 70.5659L78.7481 70.5659L78.8721 70.3488ZM79.1512 71.3721L78.9341 71.2481L78.9341 71.2481L79.1512 71.3721ZM78.1279 71.6512L78.2519 71.4341L78.2519 71.4341L78.1279 71.6512ZM72.8779 68.6512L72.7539 68.8682L72.7539 68.8682L72.8779 68.6512ZM74 56.25C74.2522 56.25 74.5037 56.2593 74.7541 56.2778L74.7908 55.7791C74.5283 55.7598 74.2645 55.75 74 55.75V56.25ZM73.75 54.5V56H74.25V54.5H73.75ZM74.9012 54.2832C74.602 54.2611 74.3014 54.25 74 54.25V54.75C74.2891 54.75 74.5774 54.7607 74.8644 54.7818L74.9012 54.2832ZM75.0218 56.0468L75.1321 54.5509L74.6335 54.5141L74.5231 56.0101L75.0218 56.0468ZM76.2458 56.499C76.7369 56.6093 77.2193 56.7557 77.6889 56.9368L77.8689 56.4703C77.3763 56.2803 76.8704 56.1269 76.3553 56.0112L76.2458 56.499ZM76.3853 54.7368L76.0566 56.2003L76.5445 56.3099L76.8732 54.8463L76.3853 54.7368ZM78.4087 55.0708C77.8474 54.8543 77.271 54.6795 76.684 54.5476L76.5745 55.0355C77.1375 55.1619 77.6904 55.3297 78.2288 55.5373L78.4087 55.0708ZM78.0122 56.7935L78.552 55.3941L78.0855 55.2141L77.5457 56.6136L78.0122 56.7935ZM79.0522 57.5816C79.2706 57.7053 79.4849 57.8373 79.6946 57.9774L79.9724 57.5617C79.7524 57.4147 79.5277 57.2763 79.2987 57.1466L79.0522 57.5816ZM79.6973 55.9357L78.9579 57.2409L79.393 57.4873L80.1323 56.1822L79.6973 55.9357ZM80.8057 56.3145C80.5551 56.147 80.299 55.9893 80.038 55.8414L79.7916 56.2765C80.0419 56.4183 80.2876 56.5696 80.528 56.7302L80.8057 56.3145ZM81.5366 56.8427C81.3001 56.6582 81.0564 56.482 80.8057 56.3145L80.528 56.7302C80.7684 56.8909 81.0021 57.0599 81.229 57.2369L81.5366 56.8427ZM80.657 58.3762L81.5799 57.1936L81.1857 56.886L80.2629 58.0686L80.657 58.3762ZM79.6946 57.9774C79.9043 58.1176 80.1083 58.265 80.3061 58.4195L80.6138 58.0253C80.4062 57.8633 80.1923 57.7087 79.9724 57.5617L79.6946 57.9774ZM81.4235 59.4322C81.7706 59.7968 82.0904 60.1864 82.3803 60.598L82.789 60.3101C82.4851 59.8784 82.1497 59.4698 81.7857 59.0874L81.4235 59.4322ZM82.5186 58.0445L81.4322 59.0788L81.777 59.4409L82.8634 58.4066L82.5186 58.0445ZM84.0154 59.4463C83.669 58.9545 83.2869 58.4888 82.872 58.0531L82.5099 58.3979C82.9078 58.8158 83.2744 59.2625 83.6066 59.7342L84.0154 59.4463ZM82.7286 60.6584L83.955 59.7947L83.6671 59.3859L82.4407 60.2496L82.7286 60.6584ZM83.1556 61.8915C83.2684 62.1157 83.3733 62.3445 83.4698 62.5775L83.9317 62.3862C83.8305 62.1418 83.7205 61.9018 83.6022 61.6667L83.1556 61.8915ZM84.6063 60.8814L83.2665 61.5558L83.4913 62.0024L84.8311 61.328L84.6063 60.8814ZM85.3175 61.8121C85.2022 61.5337 85.0769 61.2602 84.942 60.9923L84.4954 61.2171C84.6248 61.4741 84.745 61.7364 84.8556 62.0035L85.3175 61.8121ZM85.6317 62.6574C85.5376 62.3726 85.4329 62.0906 85.3175 61.8121L84.8556 62.0035C84.9662 62.2706 85.0667 62.541 85.157 62.8142L85.6317 62.6574ZM84.0485 63.4437L85.4728 62.9732L85.3159 62.4984L83.8916 62.969L84.0485 63.4437ZM83.4698 62.5775C83.5663 62.8105 83.6539 63.0464 83.7327 63.2848L84.2074 63.1279C84.1249 62.878 84.0329 62.6305 83.9317 62.3862L83.4698 62.5775ZM84.0991 64.7476C84.1852 65.2436 84.2346 65.7452 84.2469 66.2485L84.7468 66.2362C84.7338 65.7084 84.682 65.1823 84.5917 64.6622L84.0991 64.7476ZM85.7806 64.2021L84.3027 64.4586L84.3882 64.9512L85.8661 64.6948L85.7806 64.2021ZM86.2463 66.1994C86.2316 65.598 86.1725 64.9984 86.0697 64.4057L85.577 64.4912C85.6757 65.0597 85.7323 65.6348 85.7465 66.2116L86.2463 66.1994ZM84.503 66.4922L86.0025 66.4554L85.9903 65.9556L84.4907 65.9924L84.503 66.4922ZM84.1729 67.7547C84.1422 68.0038 84.1023 68.2523 84.0531 68.4997L84.5434 68.5972C84.5951 68.3378 84.6369 68.0772 84.6692 67.8159L84.1729 67.7547ZM85.9404 67.7208L84.4517 67.5372L84.3904 68.0334L85.8792 68.2171L85.9404 67.7208ZM86.0146 68.8899C86.0734 68.5942 86.1212 68.2973 86.1579 67.9995L85.6616 67.9383C85.6264 68.2239 85.5806 68.5088 85.5242 68.7923L86.0146 68.8899ZM85.8063 69.7672C85.8863 69.4781 85.9558 69.1855 86.0146 68.8899L85.5242 68.7923C85.4678 69.0759 85.4011 69.3566 85.3244 69.6339L85.8063 69.7672ZM84.053 69.5414L85.4987 69.9415L85.632 69.4596L84.1863 69.0595L84.053 69.5414ZM84.0531 68.4997C84.0039 68.7471 83.9457 68.9919 83.8787 69.2338L84.3606 69.3672C84.4308 69.1135 84.4918 68.8567 84.5434 68.5972L84.0531 68.4997ZM83.3707 70.6537C83.1667 71.1139 82.9291 71.5585 82.6598 71.9837L83.0822 72.2512C83.3646 71.8052 83.6138 71.339 83.8278 70.8563L83.3707 70.6537ZM85.0718 71.1344L83.7005 70.5265L83.4979 70.9836L84.8692 71.5915L85.0718 71.1344ZM84.3495 73.0537C84.6713 72.5455 84.9553 72.0142 85.1991 71.4642L84.742 71.2616C84.5081 71.7891 84.2357 72.2987 83.927 72.7862L84.3495 73.0537ZM82.7372 72.3287L84.0045 73.1312L84.272 72.7088L83.0047 71.9063L82.7372 72.3287ZM81.7614 73.195C81.5975 73.3851 81.4262 73.5695 81.2479 73.7478L81.6014 74.1014C81.7884 73.9144 81.9681 73.7209 82.14 73.5216L81.7614 73.195ZM83.2498 74.1488L82.114 73.169L81.7874 73.5476L82.9232 74.5274L83.2498 74.1488ZM82.6621 75.1621C82.8752 74.9489 83.0799 74.7285 83.2758 74.5014L82.8972 74.1748C82.7093 74.3927 82.5129 74.6041 82.3085 74.8085L82.6621 75.1621ZM81.2479 74.1014L82.3085 75.1621L82.6621 74.8085L81.6014 73.7478L81.2479 74.1014ZM69.1682 57.4603C70.6548 56.6657 72.3144 56.25 74 56.25V55.75C72.2322 55.75 70.4916 56.186 68.9325 57.0193L69.1682 57.4603ZM65.4774 60.8054C66.4139 59.4039 67.6816 58.2549 69.1682 57.4603L68.9325 57.0193C67.3734 57.8527 66.0439 59.0577 65.0617 60.5276L65.4774 60.8054ZM63.7994 65.4953C63.9646 63.8178 64.541 62.2069 65.4774 60.8054L65.0617 60.5276C64.0795 61.9975 63.475 63.687 63.3018 65.4463L63.7994 65.4953ZM64.5302 70.4225C63.8852 68.8652 63.6341 67.1728 63.7994 65.4953L63.3018 65.4463C63.1285 67.2057 63.3918 68.9806 64.0683 70.6138L64.5302 70.4225ZM67.4975 74.4234C66.1945 73.354 65.1753 71.9798 64.5302 70.4225L64.0683 70.6138C64.7448 72.2471 65.8137 73.6884 67.1803 74.8099L67.4975 74.4234ZM72.0003 76.553C70.3471 76.2242 68.8005 75.4927 67.4975 74.4234L67.1803 74.8099C68.5468 75.9314 70.1689 76.6986 71.9028 77.0434L72.0003 76.553ZM76.9754 76.3086C75.3624 76.7979 73.6536 76.8819 72.0003 76.553L71.9028 77.0434C73.6367 77.3883 75.4288 77.3003 77.1206 76.7871L76.9754 76.3086ZM81.2479 73.7478C80.0559 74.9398 78.5885 75.8193 76.9754 76.3086L77.1206 76.7871C78.8123 76.2739 80.3513 75.3515 81.6014 74.1014L81.2479 73.7478ZM77.556 78.2225C79.4838 77.6377 81.2376 76.5865 82.6621 75.1621L82.3085 74.8085C80.9422 76.1748 79.2599 77.1831 77.4109 77.744L77.556 78.2225ZM71.6101 78.5146C73.586 78.9076 75.6282 78.8073 77.556 78.2225L77.4109 77.744C75.5618 78.305 73.6029 78.4012 71.7077 78.0242L71.6101 78.5146ZM66.2287 75.9694C67.7859 77.2474 69.6343 78.1216 71.6101 78.5146L71.7077 78.0242C69.8125 77.6473 68.0396 76.8087 66.5459 75.5829L66.2287 75.9694ZM62.6825 71.1879C63.4534 73.0491 64.6714 74.6914 66.2287 75.9694L66.5459 75.5829C65.0522 74.357 63.8839 72.7817 63.1444 70.9965L62.6825 71.1879ZM61.809 65.2993C61.6115 67.3041 61.9116 69.3267 62.6825 71.1879L63.1444 70.9965C62.405 69.2113 62.1172 67.2713 62.3066 65.3483L61.809 65.2993ZM63.8145 59.6943C62.6953 61.3693 62.0064 63.2945 61.809 65.2993L62.3066 65.3483C62.496 63.4253 63.1567 61.5787 64.2302 59.972L63.8145 59.6943ZM68.2254 55.6965C66.4487 56.6461 64.9337 58.0192 63.8145 59.6943L64.2302 59.972C65.3038 58.3654 66.757 57.0483 68.4611 56.1374L68.2254 55.6965ZM74 54.25C71.9855 54.25 70.002 54.7468 68.2254 55.6965L68.4611 56.1374C70.1652 55.2265 72.0677 54.75 74 54.75V54.25ZM74.25 59.75C74.25 59.1977 73.8023 58.75 73.25 58.75V59.25C73.5261 59.25 73.75 59.4739 73.75 59.75H74.25ZM74.25 67.5648V59.75H73.75V67.5648H74.25ZM78.9961 70.1318L74.124 67.3477L73.876 67.7818L78.7481 70.5659L78.9961 70.1318ZM79.3683 71.4961C79.6423 71.0166 79.4757 70.4058 78.9961 70.1318L78.7481 70.5659C78.9878 70.7029 79.0711 71.0083 78.9341 71.2481L79.3683 71.4961ZM78.0039 71.8682C78.4834 72.1423 79.0942 71.9757 79.3683 71.4961L78.9341 71.2481C78.7971 71.4878 78.4917 71.5711 78.2519 71.4341L78.0039 71.8682ZM72.7539 68.8682L78.0039 71.8682L78.2519 71.4341L73.0019 68.4341L72.7539 68.8682ZM72.25 68C72.25 68.3589 72.4423 68.6902 72.7539 68.8682L73.0019 68.4341C72.8461 68.3451 72.75 68.1794 72.75 68H72.25ZM72.25 59.75V68H72.75V59.75H72.25ZM73.25 58.75C72.6977 58.75 72.25 59.1977 72.25 59.75H72.75C72.75 59.4739 72.9739 59.25 73.25 59.25V58.75Z" fill="#CFCFCF"/>
</g>
<g clip-path="url(#clip1_1254_1394)">
<path d="M66.4062 80.4688H17.1875V70.625C17.1875 68.75 18.3594 67.1094 20 66.4062C24.6875 64.2969 32.8906 61.7188 45.3125 61.7188C49.2969 61.7188 53.0469 61.9531 56.7969 62.4219C57.9687 62.6562 59.375 61.7187 59.375 60.3125C59.375 58.9062 58.6719 57.7344 57.2656 57.7344C53.5156 57.2656 49.5312 57.0312 45.3125 57.0312C32.1875 57.0312 23.2813 59.8438 18.125 61.9531C14.6094 63.5938 12.5 66.875 12.5 70.625V82.8125C12.5 84.2188 13.4375 85.1562 14.8438 85.1562H66.4062C67.8125 85.1562 68.75 84.2188 68.75 82.8125C68.75 81.4062 67.8125 80.4688 66.4062 80.4688Z" fill="#CFCFCF"/>
<path d="M45.3125 52.3438C56.0937 52.3438 64.0625 41.0937 64.0625 31.25C64.0625 20.9375 55.625 12.5 45.3125 12.5C35 12.5 26.5625 20.9375 26.5625 31.25C26.5625 41.0937 34.5313 52.3438 45.3125 52.3438ZM45.3125 17.1875C53.0469 17.1875 59.375 23.5156 59.375 31.25C59.375 38.75 53.2813 47.6562 45.3125 47.6562C37.3437 47.6562 31.25 38.75 31.25 31.25C31.25 23.5156 37.5781 17.1875 45.3125 17.1875Z" fill="#CFCFCF"/>
<path d="M74.7724 56.0284C74.516 56.0095 74.2584 56 74 56V54.5C74.2953 54.5 74.5897 54.5109 74.8828 54.5325L74.7724 56.0284ZM77.7789 56.7036C77.2978 56.518 76.8037 56.3681 76.3006 56.2551L76.6292 54.7916C77.2042 54.9207 77.7689 55.092 78.3187 55.3041L77.7789 56.7036ZM79.8335 57.7696C79.6187 57.626 79.3992 57.4908 79.1754 57.3641L79.9148 56.059C80.1705 56.2038 80.4213 56.3583 80.6669 56.5224C80.9124 56.6864 81.1511 56.859 81.3828 57.0398L80.46 58.2224C80.2573 58.0642 80.0483 57.9131 79.8335 57.7696ZM82.5847 60.454C82.2877 60.0324 81.9602 59.6333 81.6046 59.2598L82.691 58.2255C83.0973 58.6523 83.4717 59.1085 83.811 59.5903L82.5847 60.454ZM83.7007 62.4818C83.6019 62.2431 83.4945 62.0087 83.3789 61.7791L84.7187 61.1047C84.8508 61.3671 84.9736 61.635 85.0866 61.9078C85.1996 62.1806 85.3022 62.4568 85.3944 62.7358L83.9701 63.2063C83.8894 62.9622 83.7996 62.7205 83.7007 62.4818ZM84.4968 66.2423C84.4842 65.7268 84.4336 65.213 84.3454 64.7049L85.8233 64.4485C85.9241 65.0291 85.9819 65.6164 85.9964 66.2055L84.4968 66.2423ZM84.2983 68.5484C84.3487 68.295 84.3896 68.0405 84.421 67.7853L85.9098 67.9689C85.8738 68.2606 85.827 68.5515 85.7694 68.8411C85.7118 69.1307 85.6437 69.4173 85.5653 69.7006L84.1197 69.3005C84.1882 69.0527 84.2478 68.8019 84.2983 68.5484ZM82.871 72.1175C83.1468 71.6818 83.3903 71.2264 83.5992 70.755L84.9705 71.3629C84.7317 71.9016 84.4535 72.4221 84.1383 72.92L82.871 72.1175ZM81.4246 73.9246C81.6073 73.7419 81.7828 73.553 81.9507 73.3583L83.0865 74.3381C82.8946 74.5606 82.6941 74.7765 82.4853 74.9853L81.4246 73.9246Z" fill="#CFCFCF"/>
<path d="M74 56C72.2733 56 70.5732 56.4258 69.0503 57.2398C67.5275 58.0538 66.2289 59.2308 65.2696 60.6665C64.3102 62.1022 63.7198 63.7524 63.5506 65.4708C63.3813 67.1892 63.6385 68.9229 64.2993 70.5182C64.9601 72.1135 66.0041 73.5212 67.3389 74.6166C68.6737 75.712 70.258 76.4614 71.9516 76.7982C73.6451 77.1351 75.3956 77.0491 77.048 76.5479C78.7004 76.0466 80.2036 75.1456 81.4246 73.9246L82.4853 74.9853C81.0899 76.3807 79.3719 77.4104 77.4834 77.9833C75.595 78.5561 73.5944 78.6544 71.6589 78.2694C69.7234 77.8844 67.9128 77.028 66.3873 75.7761C64.8618 74.5242 63.6686 72.9154 62.9134 71.0922C62.1583 69.269 61.8644 67.2877 62.0578 65.3238C62.2512 63.3599 62.926 61.474 64.0224 59.8332C65.1187 58.1923 66.6028 56.8472 68.3432 55.9169C70.0836 54.9867 72.0266 54.5 74 54.5V56Z" fill="#CFCFCF"/>
<path d="M73.25 59C73.6642 59 74 59.3358 74 59.75V67.5648L78.8721 70.3488C79.2317 70.5543 79.3567 71.0125 79.1512 71.3721C78.9457 71.7317 78.4875 71.8567 78.1279 71.6512L72.8779 68.6512C72.6442 68.5177 72.5 68.2691 72.5 68V59.75C72.5 59.3358 72.8358 59 73.25 59Z" fill="#CFCFCF"/>
<path d="M74.7724 56.0284L74.7541 56.2778L75.0034 56.2962L75.0218 56.0468L74.7724 56.0284ZM74.8828 54.5325L75.1321 54.5509L75.1505 54.3016L74.9012 54.2832L74.8828 54.5325ZM76.3006 56.2551L76.0566 56.2003L76.0019 56.4443L76.2458 56.499L76.3006 56.2551ZM77.7789 56.7036L77.6889 56.9368L77.9222 57.0268L78.0122 56.7935L77.7789 56.7036ZM76.6292 54.7916L76.684 54.5476L76.4401 54.4929L76.3853 54.7368L76.6292 54.7916ZM78.3187 55.3041L78.552 55.3941L78.642 55.1608L78.4087 55.0708L78.3187 55.3041ZM79.1754 57.3641L78.9579 57.2409L78.8347 57.4584L79.0522 57.5816L79.1754 57.3641ZM79.8335 57.7696L79.9724 57.5617L79.9724 57.5617L79.8335 57.7696ZM79.9148 56.059L80.038 55.8414L79.8205 55.7182L79.6973 55.9357L79.9148 56.059ZM80.6669 56.5224L80.8057 56.3145L80.8057 56.3145L80.6669 56.5224ZM81.3828 57.0398L81.5799 57.1936L81.7337 56.9966L81.5366 56.8427L81.3828 57.0398ZM80.46 58.2224L80.3061 58.4195L80.5032 58.5733L80.657 58.3762L80.46 58.2224ZM81.6046 59.2598L81.4322 59.0788L81.2512 59.2511L81.4235 59.4322L81.6046 59.2598ZM82.5847 60.454L82.3803 60.598L82.5242 60.8024L82.7286 60.6584L82.5847 60.454ZM82.691 58.2255L82.872 58.0531L82.6997 57.8721L82.5186 58.0445L82.691 58.2255ZM83.811 59.5903L83.955 59.7947L84.1594 59.6507L84.0154 59.4463L83.811 59.5903ZM83.3789 61.7791L83.2665 61.5558L83.0432 61.6682L83.1556 61.8915L83.3789 61.7791ZM84.7187 61.1047L84.942 60.9923L84.8296 60.769L84.6063 60.8814L84.7187 61.1047ZM85.3944 62.7358L85.4728 62.9732L85.7102 62.8948L85.6317 62.6574L85.3944 62.7358ZM83.9701 63.2063L83.7327 63.2848L83.8111 63.5222L84.0485 63.4437L83.9701 63.2063ZM84.3454 64.7049L84.3027 64.4586L84.0564 64.5013L84.0991 64.7476L84.3454 64.7049ZM84.4968 66.2423L84.2469 66.2485L84.2531 66.4984L84.503 66.4922L84.4968 66.2423ZM85.8233 64.4485L86.0697 64.4057L86.0269 64.1594L85.7806 64.2021L85.8233 64.4485ZM85.9964 66.2055L86.0025 66.4554L86.2525 66.4493L86.2463 66.1994L85.9964 66.2055ZM84.421 67.7853L84.4517 67.5372L84.2035 67.5066L84.1729 67.7547L84.421 67.7853ZM84.2983 68.5484L84.0531 68.4997L84.0531 68.4997L84.2983 68.5484ZM85.9098 67.9689L86.1579 67.9995L86.1885 67.7514L85.9404 67.7208L85.9098 67.9689ZM85.7694 68.8411L86.0146 68.8899L86.0146 68.8899L85.7694 68.8411ZM85.5653 69.7006L85.4987 69.9415L85.7396 70.0082L85.8063 69.7672L85.5653 69.7006ZM84.1197 69.3005L83.8787 69.2338L83.812 69.4748L84.053 69.5414L84.1197 69.3005ZM83.5992 70.755L83.7005 70.5265L83.472 70.4252L83.3707 70.6537L83.5992 70.755ZM82.871 72.1175L82.6598 71.9837L82.526 72.1949L82.7372 72.3287L82.871 72.1175ZM84.9705 71.3629L85.1991 71.4642L85.3004 71.2357L85.0718 71.1344L84.9705 71.3629ZM84.1383 72.92L84.0045 73.1312L84.2157 73.2649L84.3495 73.0537L84.1383 72.92ZM81.9507 73.3583L82.114 73.169L81.9247 73.0057L81.7614 73.195L81.9507 73.3583ZM81.4246 73.9246L81.2479 73.7478L81.2479 73.7478L81.4246 73.9246ZM83.0865 74.3381L83.2758 74.5014L83.4391 74.3121L83.2498 74.1488L83.0865 74.3381ZM82.4853 74.9853L82.6621 75.1621L82.6621 75.1621L82.4853 74.9853ZM69.0503 57.2398L69.1682 57.4603L69.0503 57.2398ZM63.5506 65.4708L63.3018 65.4463L63.3018 65.4463L63.5506 65.4708ZM64.2993 70.5182L64.0683 70.6138L64.0683 70.6138L64.2993 70.5182ZM77.048 76.5479L77.1206 76.7871L77.1206 76.7871L77.048 76.5479ZM77.4834 77.9833L77.556 78.2225L77.556 78.2225L77.4834 77.9833ZM66.3873 75.7761L66.5459 75.5829L66.5459 75.5829L66.3873 75.7761ZM62.9134 71.0922L63.1444 70.9965L63.1444 70.9965L62.9134 71.0922ZM62.0578 65.3238L62.3066 65.3483L62.3066 65.3483L62.0578 65.3238ZM64.0224 59.8332L64.2302 59.972L64.2302 59.972L64.0224 59.8332ZM68.3432 55.9169L68.2254 55.6965L68.2254 55.6965L68.3432 55.9169ZM74 67.5648H73.75C73.75 67.6545 73.7981 67.7373 73.876 67.7818L74 67.5648ZM78.8721 70.3488L78.7481 70.5659L78.7481 70.5659L78.8721 70.3488ZM79.1512 71.3721L78.9341 71.2481L78.9341 71.2481L79.1512 71.3721ZM78.1279 71.6512L78.2519 71.4341L78.2519 71.4341L78.1279 71.6512ZM72.8779 68.6512L72.7539 68.8682L72.7539 68.8682L72.8779 68.6512ZM74 56.25C74.2522 56.25 74.5037 56.2593 74.7541 56.2778L74.7908 55.7791C74.5283 55.7598 74.2645 55.75 74 55.75V56.25ZM73.75 54.5V56H74.25V54.5H73.75ZM74.9012 54.2832C74.602 54.2611 74.3014 54.25 74 54.25V54.75C74.2891 54.75 74.5774 54.7607 74.8644 54.7818L74.9012 54.2832ZM75.0218 56.0468L75.1321 54.5509L74.6335 54.5141L74.5231 56.0101L75.0218 56.0468ZM76.2458 56.499C76.7369 56.6093 77.2193 56.7557 77.6889 56.9368L77.8689 56.4703C77.3763 56.2803 76.8704 56.1269 76.3553 56.0112L76.2458 56.499ZM76.3853 54.7368L76.0566 56.2003L76.5445 56.3099L76.8732 54.8463L76.3853 54.7368ZM78.4087 55.0708C77.8474 54.8543 77.271 54.6795 76.684 54.5476L76.5745 55.0355C77.1375 55.1619 77.6904 55.3297 78.2288 55.5373L78.4087 55.0708ZM78.0122 56.7935L78.552 55.3941L78.0855 55.2141L77.5457 56.6136L78.0122 56.7935ZM79.0522 57.5816C79.2706 57.7053 79.4849 57.8373 79.6946 57.9774L79.9724 57.5617C79.7524 57.4147 79.5277 57.2763 79.2987 57.1466L79.0522 57.5816ZM79.6973 55.9357L78.9579 57.2409L79.393 57.4873L80.1323 56.1822L79.6973 55.9357ZM80.8057 56.3145C80.5551 56.147 80.299 55.9893 80.038 55.8414L79.7916 56.2765C80.0419 56.4183 80.2876 56.5696 80.528 56.7302L80.8057 56.3145ZM81.5366 56.8427C81.3001 56.6582 81.0564 56.482 80.8057 56.3145L80.528 56.7302C80.7684 56.8909 81.0021 57.0599 81.229 57.2369L81.5366 56.8427ZM80.657 58.3762L81.5799 57.1936L81.1857 56.886L80.2629 58.0686L80.657 58.3762ZM79.6946 57.9774C79.9043 58.1176 80.1083 58.265 80.3061 58.4195L80.6138 58.0253C80.4062 57.8633 80.1923 57.7087 79.9724 57.5617L79.6946 57.9774ZM81.4235 59.4322C81.7706 59.7968 82.0904 60.1864 82.3803 60.598L82.789 60.3101C82.4851 59.8784 82.1497 59.4698 81.7857 59.0874L81.4235 59.4322ZM82.5186 58.0445L81.4322 59.0788L81.777 59.4409L82.8634 58.4066L82.5186 58.0445ZM84.0154 59.4463C83.669 58.9545 83.2869 58.4888 82.872 58.0531L82.5099 58.3979C82.9078 58.8158 83.2744 59.2625 83.6066 59.7342L84.0154 59.4463ZM82.7286 60.6584L83.955 59.7947L83.6671 59.3859L82.4407 60.2496L82.7286 60.6584ZM83.1556 61.8915C83.2684 62.1157 83.3733 62.3445 83.4698 62.5775L83.9317 62.3862C83.8305 62.1418 83.7205 61.9018 83.6022 61.6667L83.1556 61.8915ZM84.6063 60.8814L83.2665 61.5558L83.4913 62.0024L84.8311 61.328L84.6063 60.8814ZM85.3175 61.8121C85.2022 61.5337 85.0769 61.2602 84.942 60.9923L84.4954 61.2171C84.6248 61.4741 84.745 61.7364 84.8556 62.0035L85.3175 61.8121ZM85.6317 62.6574C85.5376 62.3726 85.4329 62.0906 85.3175 61.8121L84.8556 62.0035C84.9662 62.2706 85.0667 62.541 85.157 62.8142L85.6317 62.6574ZM84.0485 63.4437L85.4728 62.9732L85.3159 62.4984L83.8916 62.969L84.0485 63.4437ZM83.4698 62.5775C83.5663 62.8105 83.6539 63.0464 83.7327 63.2848L84.2074 63.1279C84.1249 62.878 84.0329 62.6305 83.9317 62.3862L83.4698 62.5775ZM84.0991 64.7476C84.1852 65.2436 84.2346 65.7452 84.2469 66.2485L84.7468 66.2362C84.7338 65.7084 84.682 65.1823 84.5917 64.6622L84.0991 64.7476ZM85.7806 64.2021L84.3027 64.4586L84.3882 64.9512L85.8661 64.6948L85.7806 64.2021ZM86.2463 66.1994C86.2316 65.598 86.1725 64.9984 86.0697 64.4057L85.577 64.4912C85.6757 65.0597 85.7323 65.6348 85.7465 66.2116L86.2463 66.1994ZM84.503 66.4922L86.0025 66.4554L85.9903 65.9556L84.4907 65.9924L84.503 66.4922ZM84.1729 67.7547C84.1422 68.0038 84.1023 68.2523 84.0531 68.4997L84.5434 68.5972C84.5951 68.3378 84.6369 68.0772 84.6692 67.8159L84.1729 67.7547ZM85.9404 67.7208L84.4517 67.5372L84.3904 68.0334L85.8792 68.2171L85.9404 67.7208ZM86.0146 68.8899C86.0734 68.5942 86.1212 68.2973 86.1579 67.9995L85.6616 67.9383C85.6264 68.2239 85.5806 68.5088 85.5242 68.7923L86.0146 68.8899ZM85.8063 69.7672C85.8863 69.4781 85.9558 69.1855 86.0146 68.8899L85.5242 68.7923C85.4678 69.0759 85.4011 69.3566 85.3244 69.6339L85.8063 69.7672ZM84.053 69.5414L85.4987 69.9415L85.632 69.4596L84.1863 69.0595L84.053 69.5414ZM84.0531 68.4997C84.0039 68.7471 83.9457 68.9919 83.8787 69.2338L84.3606 69.3672C84.4308 69.1135 84.4918 68.8567 84.5434 68.5972L84.0531 68.4997ZM83.3707 70.6537C83.1667 71.1139 82.9291 71.5585 82.6598 71.9837L83.0822 72.2512C83.3646 71.8052 83.6138 71.339 83.8278 70.8563L83.3707 70.6537ZM85.0718 71.1344L83.7005 70.5265L83.4979 70.9836L84.8692 71.5915L85.0718 71.1344ZM84.3495 73.0537C84.6713 72.5455 84.9553 72.0142 85.1991 71.4642L84.742 71.2616C84.5081 71.7891 84.2357 72.2987 83.927 72.7862L84.3495 73.0537ZM82.7372 72.3287L84.0045 73.1312L84.272 72.7088L83.0047 71.9063L82.7372 72.3287ZM81.7614 73.195C81.5975 73.3851 81.4262 73.5695 81.2479 73.7478L81.6014 74.1014C81.7884 73.9144 81.9681 73.7209 82.14 73.5216L81.7614 73.195ZM83.2498 74.1488L82.114 73.169L81.7874 73.5476L82.9232 74.5274L83.2498 74.1488ZM82.6621 75.1621C82.8752 74.9489 83.0799 74.7285 83.2758 74.5014L82.8972 74.1748C82.7093 74.3927 82.5129 74.6041 82.3085 74.8085L82.6621 75.1621ZM81.2479 74.1014L82.3085 75.1621L82.6621 74.8085L81.6014 73.7478L81.2479 74.1014ZM69.1682 57.4603C70.6548 56.6657 72.3144 56.25 74 56.25V55.75C72.2322 55.75 70.4916 56.186 68.9325 57.0193L69.1682 57.4603ZM65.4774 60.8054C66.4139 59.4039 67.6816 58.2549 69.1682 57.4603L68.9325 57.0193C67.3734 57.8527 66.0439 59.0577 65.0617 60.5276L65.4774 60.8054ZM63.7994 65.4953C63.9646 63.8178 64.541 62.2069 65.4774 60.8054L65.0617 60.5276C64.0795 61.9975 63.475 63.687 63.3018 65.4463L63.7994 65.4953ZM64.5302 70.4225C63.8852 68.8652 63.6341 67.1728 63.7994 65.4953L63.3018 65.4463C63.1285 67.2057 63.3918 68.9806 64.0683 70.6138L64.5302 70.4225ZM67.4975 74.4234C66.1945 73.354 65.1753 71.9798 64.5302 70.4225L64.0683 70.6138C64.7448 72.2471 65.8137 73.6884 67.1803 74.8099L67.4975 74.4234ZM72.0003 76.553C70.3471 76.2242 68.8005 75.4927 67.4975 74.4234L67.1803 74.8099C68.5468 75.9314 70.1689 76.6986 71.9028 77.0434L72.0003 76.553ZM76.9754 76.3086C75.3624 76.7979 73.6536 76.8819 72.0003 76.553L71.9028 77.0434C73.6367 77.3883 75.4288 77.3003 77.1206 76.7871L76.9754 76.3086ZM81.2479 73.7478C80.0559 74.9398 78.5885 75.8193 76.9754 76.3086L77.1206 76.7871C78.8123 76.2739 80.3513 75.3515 81.6014 74.1014L81.2479 73.7478ZM77.556 78.2225C79.4838 77.6377 81.2376 76.5865 82.6621 75.1621L82.3085 74.8085C80.9422 76.1748 79.2599 77.1831 77.4109 77.744L77.556 78.2225ZM71.6101 78.5146C73.586 78.9076 75.6282 78.8073 77.556 78.2225L77.4109 77.744C75.5618 78.305 73.6029 78.4012 71.7077 78.0242L71.6101 78.5146ZM66.2287 75.9694C67.7859 77.2474 69.6343 78.1216 71.6101 78.5146L71.7077 78.0242C69.8125 77.6473 68.0396 76.8087 66.5459 75.5829L66.2287 75.9694ZM62.6825 71.1879C63.4534 73.0491 64.6714 74.6914 66.2287 75.9694L66.5459 75.5829C65.0522 74.357 63.8839 72.7817 63.1444 70.9965L62.6825 71.1879ZM61.809 65.2993C61.6115 67.3041 61.9116 69.3267 62.6825 71.1879L63.1444 70.9965C62.405 69.2113 62.1172 67.2713 62.3066 65.3483L61.809 65.2993ZM63.8145 59.6943C62.6953 61.3693 62.0064 63.2945 61.809 65.2993L62.3066 65.3483C62.496 63.4253 63.1567 61.5787 64.2302 59.972L63.8145 59.6943ZM68.2254 55.6965C66.4487 56.6461 64.9337 58.0192 63.8145 59.6943L64.2302 59.972C65.3038 58.3654 66.757 57.0483 68.4611 56.1374L68.2254 55.6965ZM74 54.25C71.9855 54.25 70.002 54.7468 68.2254 55.6965L68.4611 56.1374C70.1652 55.2265 72.0677 54.75 74 54.75V54.25ZM74.25 59.75C74.25 59.1977 73.8023 58.75 73.25 58.75V59.25C73.5261 59.25 73.75 59.4739 73.75 59.75H74.25ZM74.25 67.5648V59.75H73.75V67.5648H74.25ZM78.9961 70.1318L74.124 67.3477L73.876 67.7818L78.7481 70.5659L78.9961 70.1318ZM79.3683 71.4961C79.6423 71.0166 79.4757 70.4058 78.9961 70.1318L78.7481 70.5659C78.9878 70.7029 79.0711 71.0083 78.9341 71.2481L79.3683 71.4961ZM78.0039 71.8682C78.4834 72.1423 79.0942 71.9757 79.3683 71.4961L78.9341 71.2481C78.7971 71.4878 78.4917 71.5711 78.2519 71.4341L78.0039 71.8682ZM72.7539 68.8682L78.0039 71.8682L78.2519 71.4341L73.0019 68.4341L72.7539 68.8682ZM72.25 68C72.25 68.3589 72.4423 68.6902 72.7539 68.8682L73.0019 68.4341C72.8461 68.3451 72.75 68.1794 72.75 68H72.25ZM72.25 59.75V68H72.75V59.75H72.25ZM73.25 58.75C72.6977 58.75 72.25 59.1977 72.25 59.75H72.75C72.75 59.4739 72.9739 59.25 73.25 59.25V58.75Z" fill="#CFCFCF"/>
</g>
<defs>
<clipPath id="clip0_1254_1394">
<rect width="75" height="75" fill="white" transform="translate(12.5 12.5)"/>
</clipPath>
<clipPath id="clip1_1254_1394">
<rect width="75" height="75" fill="white" transform="translate(12.5 12.5)"/>
</clipPath>
</defs>
</svg>
