<svg width="285" height="77" viewBox="0 0 285 77" fill="none" xmlns="http://www.w3.org/2000/svg">
<g clip-path="url(#clip0_134_139)">
<path d="M59.3047 32.2691V1.91602H64.1459L72.6961 18.2099L81.337 1.91602H86.0309V32.2691H81.5332V10.3007L72.6546 27.1164L63.8101 10.3423V32.2691H59.3047Z" fill="white"/>
<path d="M100.886 32.9849C99.0067 33.0327 97.1426 32.5592 95.4339 31.5997C93.8814 30.7098 92.577 29.2808 91.6833 27.4905C90.7231 25.4682 90.2471 23.1562 90.3098 20.8187C90.2719 18.5962 90.6937 16.3981 91.5361 14.4286C92.3175 12.6335 93.4853 11.1342 94.9132 10.0931C96.4068 9.02533 98.1116 8.48066 99.8411 8.51865C101.457 8.47218 103.053 8.96201 104.46 9.93611C105.77 10.8728 106.83 12.2535 107.512 13.9115C108.26 15.7774 108.629 17.8363 108.588 19.9137C108.588 20.2323 108.588 20.5463 108.557 20.8372C108.527 21.1281 108.501 21.6036 108.459 22.2223H94.6189C94.813 23.9949 95.5626 25.6058 96.7093 26.7148C97.8413 27.789 99.3644 28.3277 101.279 28.3308C103.708 28.3391 106.072 27.3652 108.003 25.5605V30.27C106.973 31.127 105.845 31.7929 104.656 32.2461C103.439 32.7325 102.167 32.9817 100.886 32.9849ZM99.6449 12.6695C99.021 12.6375 98.3983 12.7611 97.8145 13.0325C97.2307 13.3039 96.6981 13.7176 96.249 14.2485C95.3761 15.3012 94.8315 16.7725 94.6151 18.6625H104.407C104.409 18.3529 104.388 18.0437 104.343 17.7391C104.213 16.2983 103.669 14.961 102.807 13.9669C101.924 13.0618 100.796 12.594 99.6449 12.6556V12.6695Z" fill="white"/>
<path d="M112.538 32.2693V9.23442H116.749L116.783 14.0316C117.234 12.537 118.026 11.2324 119.066 10.2733C120.063 9.35789 121.28 8.87097 122.526 8.88813C122.942 8.89291 123.356 8.93302 123.768 9.00818C124.153 9.06215 124.533 9.16902 124.899 9.32676V14.4564C124.451 14.2953 123.993 14.1749 123.53 14.0963C123.012 13.9941 122.488 13.9401 121.964 13.9347C120.329 13.9347 119.082 14.5811 118.225 15.8739C117.368 17.162 116.938 19.0366 116.938 21.4837V32.2693H112.538Z" fill="white"/>
<path d="M136.853 32.9848C135.019 33.0367 133.204 32.5289 131.571 31.5073C130.096 30.557 128.887 29.0911 128.095 27.2964C127.247 25.3212 126.825 23.1138 126.869 20.8832C126.83 18.6326 127.262 16.4072 128.126 14.4192C128.937 12.6032 130.147 11.1013 131.62 10.0838C133.202 9.01719 134.987 8.48047 136.793 8.52778C137.708 8.51818 138.62 8.66583 139.502 8.96641C140.304 9.2463 141.09 9.5934 141.853 10.0053V14.9733C140.419 13.9293 138.786 13.3641 137.117 13.3342C135.357 13.3342 133.948 13.9945 132.891 15.315C131.835 16.6355 131.308 18.4254 131.31 20.6847C131.31 23.0548 131.837 24.9017 132.891 26.2253C133.945 27.5488 135.409 28.2076 137.283 28.2014C138.021 28.2058 138.755 28.0925 139.468 27.8644C140.284 27.5848 141.081 27.2298 141.853 26.8024V31.5581C141.117 32.0003 140.346 32.3485 139.551 32.5969C138.669 32.8646 137.762 32.9949 136.853 32.9848Z" fill="white"/>
<path d="M155.391 32.985C153.513 33.0322 151.65 32.5587 149.943 31.5999C148.389 30.7101 147.084 29.2811 146.188 27.4906C145.275 25.6746 144.819 23.4506 144.819 20.8189C144.773 18.5937 145.188 16.3906 146.026 14.4149C146.814 12.6178 147.988 11.1185 149.422 10.0794C150.917 9.01084 152.623 8.46614 154.354 8.50498C155.97 8.45851 157.566 8.94833 158.972 9.92244C160.28 10.8606 161.339 12.241 162.021 13.8978C162.772 15.7623 163.142 17.822 163.1 19.9001C163.1 20.2187 163.1 20.5326 163.066 20.8235C163.032 21.1144 163.013 21.5899 162.968 22.2086H149.128C149.321 23.9807 150.069 25.5917 151.214 26.7011C152.346 27.7754 153.87 28.314 155.784 28.3171C158.213 28.3254 160.577 27.3516 162.508 25.5468V30.2702C161.478 31.128 160.35 31.794 159.161 32.2463C157.944 32.7333 156.672 32.9826 155.391 32.985ZM154.154 12.6696C153.53 12.6388 152.907 12.7628 152.324 13.0342C151.74 13.3056 151.207 13.7187 150.758 14.2487C149.887 15.3014 149.344 16.7727 149.128 18.6627H158.919C158.923 18.3528 158.9 18.0434 158.852 17.7393C158.723 16.299 158.18 14.9617 157.32 13.9671C156.435 13.0617 155.306 12.5939 154.154 12.6558V12.6696Z" fill="white"/>
<path d="M167.043 32.269V9.23411H171.254L171.307 14.0175C171.753 12.5257 172.538 11.2214 173.571 10.2591C174.568 9.34373 175.785 8.85681 177.031 8.87397C177.447 8.87875 177.862 8.91886 178.273 8.99402C178.659 9.04788 179.038 9.15475 179.405 9.3126V14.4561C178.955 14.2955 178.495 14.1752 178.031 14.096C177.513 13.9938 176.99 13.9398 176.465 13.9344C174.835 13.9344 173.59 14.5808 172.73 15.8736C171.869 17.1617 171.439 19.0363 171.439 21.4834V32.269H167.043Z" fill="white"/>
<path d="M183.102 32.2691V1.91602H187.932L196.486 18.2099L205.135 1.91602H209.836V32.2691H205.331V10.3007L196.452 27.1164L187.608 10.3423V32.2691H183.102Z" fill="white"/>
<path d="M220.605 32.9847C218.648 32.9847 217.076 32.326 215.889 31.0086C215.298 30.3442 214.833 29.5303 214.526 28.6237C214.22 27.717 214.078 26.7394 214.111 25.7589C214.082 24.3087 214.411 22.8815 215.055 21.6635C215.716 20.4649 216.639 19.5178 217.719 18.9301C218.993 18.2479 220.373 17.9139 221.764 17.9513C223.464 17.927 225.152 18.3211 226.725 19.1102V19.0271C226.725 17.0879 226.307 15.6058 225.469 14.5946C224.631 13.5835 223.341 13.0802 221.601 13.0802C220.54 13.0976 219.486 13.3044 218.473 13.6943C217.401 14.0937 216.384 14.6866 215.455 15.4534V10.7024C216.413 10.0545 217.425 9.53147 218.473 9.14179C219.637 8.71104 220.846 8.49626 222.062 8.50463C224.846 8.50463 226.984 9.38342 228.476 11.141C229.968 12.8986 230.723 15.4149 230.74 18.69V32.269H226.937L226.873 28.9124C226.32 30.1975 225.452 31.2377 224.39 31.8858C223.222 32.6299 221.922 33.0075 220.605 32.9847ZM218.22 25.4357C218.197 25.9352 218.268 26.4346 218.427 26.8955C218.586 27.3565 218.829 27.7669 219.137 28.0951C219.869 28.7624 220.77 29.0897 221.681 29.0186C223.228 29.0186 224.425 28.4799 225.273 27.4026C226.12 26.3252 226.6 24.76 226.71 22.7069C225.371 22.0014 223.923 21.6581 222.465 21.7004C221.072 21.7004 220.016 22.0267 219.3 22.6792C218.95 22.9961 218.668 23.4129 218.48 23.8934C218.292 24.3738 218.203 24.9033 218.22 25.4357Z" fill="white"/>
<path d="M235.423 32.2693V9.23442H239.634L239.668 14.0316C240.119 12.537 240.911 11.2324 241.951 10.2733C242.948 9.35789 244.164 8.87097 245.411 8.88813C245.826 8.89291 246.241 8.93302 246.652 9.00818C247.038 9.06215 247.418 9.16902 247.784 9.32676V14.4564C247.335 14.2953 246.878 14.1749 246.414 14.0963C245.896 13.9941 245.373 13.9401 244.848 13.9347C243.216 13.9347 241.969 14.5811 241.109 15.8739C240.253 17.162 239.822 19.0366 239.822 21.4837V32.2693H235.423Z" fill="white"/>
<path d="M256.278 32.985C255.537 32.9773 254.798 32.8768 254.074 32.6848C253.296 32.4885 252.532 32.2121 251.791 31.8584C251.125 31.5516 250.485 31.1633 249.882 30.6995V25.9946C251.678 27.617 253.849 28.4983 256.082 28.511C257.368 28.511 258.304 28.3216 258.889 27.9338C259.165 27.7692 259.396 27.5092 259.553 27.1859C259.71 26.8627 259.786 26.4903 259.772 26.1147C259.772 25.763 259.699 25.4171 259.559 25.1099C259.419 24.8028 259.217 24.5447 258.972 24.3601C258.44 23.8984 257.41 23.3859 255.889 22.7996C253.753 21.9777 252.244 21.0204 251.361 19.9277C250.478 18.835 250.038 17.3575 250.04 15.4952C250.007 14.5165 250.165 13.5422 250.5 12.6527C250.836 11.7633 251.339 10.9841 251.969 10.3795C253.252 9.12667 255.002 8.50182 257.221 8.50489C258.205 8.52898 259.181 8.71059 260.126 9.0451C261.118 9.35819 262.072 9.82361 262.968 10.4302V15.1351C262.166 14.4318 261.273 13.898 260.326 13.556C259.362 13.1643 258.354 12.9526 257.338 12.9281C255.293 12.9281 254.27 13.6869 254.27 15.2044C254.258 15.6118 254.356 16.0128 254.55 16.3448C254.829 16.7387 255.181 17.0458 255.576 17.2405C256.271 17.6316 256.985 17.9679 257.715 18.2471C259.043 18.7354 260.32 19.4125 261.519 20.2647C262.342 20.8461 263.028 21.68 263.507 22.6841C263.94 23.7058 264.154 24.8445 264.13 25.9946C264.149 26.992 263.963 27.9794 263.59 28.8666C263.217 29.7537 262.669 30.5124 261.994 31.0735C260.555 32.3478 258.65 32.985 256.278 32.985Z" fill="white"/>
<path d="M267.93 32.2691V1.91602H272.337V12.5354C272.866 11.2809 273.686 10.2462 274.695 9.56199C275.774 8.83884 276.989 8.47429 278.219 8.50467C280.395 8.50467 282.071 9.34961 283.245 11.0395C284.42 12.7294 285.008 15.1595 285.008 18.3299V32.2691H280.593V19.3411C280.593 15.318 279.335 13.308 276.82 13.3111C276.204 13.273 275.589 13.4056 275.022 13.699C274.454 13.9925 273.947 14.4391 273.541 15.0056C272.743 16.1414 272.346 17.7328 272.348 19.7797V32.2691H267.93Z" fill="white"/>
<path d="M59.3047 76.2798V45.9268H68.4097C70.9579 45.9268 72.9276 46.5993 74.3187 47.9444C75.7097 49.2896 76.4065 51.1995 76.4091 53.6743C76.4242 55.0524 76.0986 56.4038 75.4751 57.5515C74.8516 58.6993 73.9592 59.5896 72.915 60.106C74.2961 60.4309 75.5359 61.3517 76.4091 62.7008C77.269 64.073 77.7179 65.7648 77.6806 67.4934C77.6806 70.3129 76.926 72.483 75.4167 74.0036C73.9074 75.5241 71.7528 76.2829 68.953 76.2798H59.3047ZM67.9833 50.4008H63.4554V58.4669H67.8927C69.3492 58.4669 70.4208 58.1068 71.1076 57.3865C71.7943 56.6708 72.1339 55.5766 72.1339 54.1129C72.1314 51.6382 70.7491 50.4008 67.9871 50.4008H67.9833ZM68.538 62.8209H63.4516V71.8058H68.8663C70.2812 71.8058 71.3679 71.4226 72.1301 70.6469C72.5119 70.2446 72.8126 69.7399 73.009 69.1721C73.2053 68.6043 73.2919 67.9888 73.2621 67.3734C73.293 66.7359 73.2012 66.0984 72.9942 65.5122C72.7871 64.926 72.4705 64.4074 72.0698 63.9982C71.2849 63.2133 70.1089 62.8209 68.5417 62.8209H68.538Z" fill="white"/>
<path d="M91.0305 76.9999C89.1509 77.0478 87.2868 76.5743 85.5781 75.6148C84.0188 74.7243 82.707 73.294 81.8048 71.5009C80.8917 69.691 80.4351 67.4671 80.4351 64.8292C80.3964 62.6071 80.8169 60.4091 81.6577 58.439C82.4458 56.6436 83.6202 55.146 85.0536 54.1082C86.5461 53.0366 88.2514 52.4901 89.9815 52.5291C91.5972 52.4849 93.1927 52.9746 94.6 53.9466C95.9091 54.8845 96.9691 56.2648 97.6526 57.9219C98.4001 59.7879 98.769 61.8468 98.728 63.9242C98.728 64.2474 98.728 64.5568 98.6941 64.8476C98.6601 65.1385 98.6412 65.6095 98.596 66.2328H84.7631C84.9561 68.0059 85.7059 69.6172 86.8535 70.7252C87.9804 71.8057 89.5036 72.3459 91.4229 72.3459C93.8541 72.3473 96.2172 71.3634 98.1432 69.5479V74.2989C97.1139 75.1556 95.9876 75.823 94.8 76.2797C93.5817 76.7575 92.3099 77.0005 91.0305 76.9999ZM89.7891 56.6845C89.1656 56.6542 88.5436 56.7779 87.9601 57.0485C87.3766 57.319 86.8436 57.7307 86.3932 58.259C85.464 59.4678 84.8905 61.0209 84.7631 62.673H94.5736C94.5759 62.3634 94.5545 62.0542 94.5095 61.7495C94.3776 60.3097 93.8336 58.9735 92.9738 57.9773C92.0874 57.0733 90.9569 56.6073 89.8042 56.6707L89.7891 56.6845Z" fill="white"/>
<path d="M102.682 76.2799V53.2358H106.924L106.958 56.9295C107.454 55.5789 108.281 54.4498 109.323 53.6975C110.426 52.9104 111.684 52.5095 112.961 52.5386C115.137 52.5386 116.813 53.3835 117.991 55.0734C119.168 56.7633 119.755 59.1826 119.753 62.3315V76.2707H115.346V63.3427C115.346 59.3258 114.088 57.3158 111.572 57.3127C110.956 57.2755 110.341 57.4089 109.772 57.7031C109.204 57.9973 108.697 58.4446 108.29 59.0118C107.497 60.1415 107.1 61.7313 107.097 63.7813V76.2845L102.682 76.2799Z" fill="white"/>
<path d="M133.85 77.0001C131.971 77.0473 130.109 76.5738 128.401 75.615C126.841 74.7256 125.529 73.2951 124.628 71.5011C123.715 69.6912 123.258 67.4673 123.258 64.8293C123.229 62.5987 123.663 60.3953 124.518 58.4254C125.301 56.6325 126.469 55.135 127.896 54.0945C129.387 53.0246 131.091 52.4783 132.82 52.5154C134.435 52.4713 136.031 52.9609 137.438 53.9329C138.746 54.8711 139.805 56.2515 140.487 57.9083C141.238 59.7729 141.608 61.8325 141.566 63.9105C141.566 64.2337 141.566 64.5431 141.532 64.834C141.498 65.1248 141.479 65.5958 141.434 66.2191H127.586C127.778 67.9916 128.526 69.6031 129.673 70.7116C130.805 71.792 132.328 72.3322 134.242 72.3322C136.675 72.3343 139.039 71.3504 140.966 69.5342V74.2852C139.936 75.1428 138.808 75.8102 137.619 76.266C136.402 76.7492 135.13 76.9969 133.85 77.0001ZM132.612 56.6847C131.989 56.6543 131.367 56.7781 130.783 57.0486C130.2 57.3192 129.667 57.7309 129.216 58.2592C128.346 59.3119 127.802 60.7832 127.586 62.6731H137.378C137.381 62.3633 137.358 62.0539 137.31 61.7497C137.181 60.3098 136.638 58.9729 135.778 57.9775C134.892 57.0754 133.763 56.6095 132.612 56.6709V56.6847Z" fill="white"/>
<path d="M147.264 76.2797V58.1482H143.675V53.6326H147.264C147.309 50.8131 147.903 48.6707 149.045 47.2056C150.187 45.7404 151.834 45.0078 153.988 45.0078C154.53 45.0125 155.071 45.0666 155.606 45.1694C156.206 45.2773 156.8 45.4316 157.384 45.6311V49.9851C156.919 49.7684 156.437 49.6136 155.946 49.5234C155.492 49.4463 155.035 49.4062 154.576 49.4033C154.17 49.3694 153.763 49.4509 153.386 49.6415C153.01 49.8322 152.675 50.1267 152.407 50.5022C151.868 51.3943 151.601 52.4884 151.652 53.5957H157.384V58.1112H151.686V76.2427L147.264 76.2797Z" fill="white"/>
<path d="M165.153 47.6441C165.164 48.0814 165.102 48.5168 164.973 48.9245C164.843 49.3322 164.648 49.7038 164.398 50.0173C163.866 50.6229 163.167 50.9596 162.44 50.9596C161.713 50.9596 161.014 50.6229 160.482 50.0173C159.999 49.3672 159.731 48.5203 159.731 47.6418C159.731 46.7633 159.999 45.9164 160.482 45.2663C161.015 44.6637 161.714 44.3291 162.44 44.3291C163.166 44.3291 163.865 44.6637 164.398 45.2663C164.648 45.5807 164.843 45.9531 164.973 46.3616C165.102 46.77 165.164 47.2062 165.153 47.6441ZM160.248 76.2704V53.2355H164.655V76.2796L160.248 76.2704Z" fill="white"/>
<path d="M177.914 76.9998C175.695 76.9998 174.053 76.2133 172.986 74.6404C171.92 73.0675 171.386 70.7913 171.386 67.8117V58.148H167.5V53.6325H171.386V47.4824H175.79V53.6325H181.929V58.148H175.79V67.3823C175.79 69.0598 176.025 70.2772 176.495 71.0344C176.96 71.7963 177.707 72.1749 178.729 72.1749C179.44 72.1685 180.145 72.0267 180.82 71.7547C181.467 71.5133 182.091 71.1851 182.68 70.7759V75.6885C181.944 76.0958 181.178 76.4174 180.393 76.6489C179.581 76.887 178.749 77.0048 177.914 76.9998Z" fill="white"/>
<path d="M191.328 76.9998C190.587 76.9904 189.849 76.8899 189.125 76.6997C188.345 76.5027 187.581 76.2278 186.838 75.8779C186.171 75.5726 185.532 75.1858 184.929 74.7236V70.0095C186.727 71.6294 188.899 72.5103 191.132 72.5258C192.415 72.5258 193.351 72.3319 193.939 71.9441C194.215 71.7805 194.446 71.5213 194.602 71.1986C194.758 70.876 194.834 70.5042 194.818 70.1295C194.82 69.7769 194.747 69.4297 194.607 69.1215C194.467 68.8134 194.264 68.5547 194.019 68.3704C193.485 67.9179 192.458 67.3993 190.936 66.8144C188.805 65.9864 187.296 65.0276 186.408 63.9379C185.52 62.8483 185.08 61.3708 185.087 59.5055C185.055 58.528 185.212 57.5552 185.547 56.6667C185.881 55.7782 186.383 54.9994 187.012 54.3943C188.294 53.1415 190.047 52.5151 192.268 52.5151C193.251 52.5396 194.228 52.7212 195.173 53.0553C196.163 53.3697 197.116 53.835 198.011 54.4405V59.1453C197.208 58.4429 196.315 57.9092 195.369 57.5663C194.406 57.1773 193.399 56.9687 192.385 56.9476C190.34 56.9476 189.317 57.7063 189.317 59.2238C189.304 59.6307 189.4 60.0317 189.592 60.3643C189.874 60.7571 190.227 61.0639 190.623 61.26C191.321 61.6495 192.04 61.9842 192.773 62.2619C194.102 62.7474 195.379 63.4247 196.577 64.2796C197.401 64.8594 198.087 65.6916 198.569 66.6944C198.993 67.7204 199.201 68.8601 199.173 70.0095C199.189 71.0069 199.002 71.9936 198.629 72.8804C198.255 73.7672 197.707 74.526 197.033 75.0883C195.6 76.3627 193.698 76.9998 191.328 76.9998Z" fill="white"/>
<path d="M45.6303 7.35968L35.7141 0.369338C35.3205 0.125872 34.8855 -0.000976562 34.4444 -0.000976562C34.0033 -0.000976562 33.5684 0.125872 33.1747 0.369338L5.81086 19.6551L20.9531 5.46204L13.7272 0.369338C13.3335 0.125872 12.8986 -0.000976562 12.4575 -0.000976562C12.0164 -0.000976562 11.5815 0.125872 11.1878 0.369338L1.2716 7.35968C0.902092 7.65395 0.594422 8.05058 0.373503 8.51743C0.152585 8.98428 0.0246293 9.50823 0 10.0469L0 24.0091C0.0246293 24.5477 0.152585 25.0717 0.373503 25.5385C0.594422 26.0054 0.902092 26.402 1.2716 26.6963L11.1878 33.7051C11.5815 33.9485 12.0164 34.0754 12.4575 34.0754C12.8986 34.0754 13.3335 33.9485 13.7272 33.7051L41.0911 14.4193L25.9489 28.6262L33.1747 33.7051C33.5684 33.9485 34.0033 34.0754 34.4444 34.0754C34.8855 34.0754 35.3205 33.9485 35.7141 33.7051L45.6303 26.7147C46.0018 26.4186 46.3107 26.0191 46.5318 25.5488C46.7528 25.0785 46.8796 24.5509 46.9019 24.0091V10.0515C46.8776 9.51214 46.7498 8.9874 46.5289 8.51975C46.3079 8.0521 46.0001 7.65468 45.6303 7.35968Z" fill="white"/>
</g>
<defs>
<clipPath id="clip0_134_139">
<rect width="285" height="77" fill="white"/>
</clipPath>
</defs>
</svg>
