<svg width="12" height="12" viewBox="0 0 12 12" fill="none" xmlns="http://www.w3.org/2000/svg">
<path d="M8.48787 3.08787L3.08787 8.48787C3.03161 8.54413 3 8.62043 3 8.7C3 8.77956 3.03161 8.85587 3.08787 8.91213C3.14413 8.96839 3.22044 9 3.3 9C3.37956 9 3.45587 8.96839 3.51213 8.91213L8.91213 3.51213C8.96839 3.45587 9 3.37956 9 3.3C9 3.22044 8.96839 3.14413 8.91213 3.08787C8.85587 3.03161 8.77956 3 8.7 3C8.62043 3 8.54413 3.03161 8.48787 3.08787Z" fill="#1C1C1C"/>
<path d="M3.51213 3.08787C3.45587 3.03161 3.37956 3 3.3 3C3.22044 3 3.14413 3.03161 3.08787 3.08787C3.03161 3.14413 3 3.22044 3 3.3C3 3.37956 3.03161 3.45587 3.08787 3.51213L8.48787 8.91213C8.54413 8.96839 8.62043 9 8.7 9C8.77956 9 8.85587 8.96839 8.91213 8.91213C8.96839 8.85587 9 8.77956 9 8.7C9 8.62043 8.96839 8.54413 8.91213 8.48787L3.51213 3.08787Z" fill="#1C1C1C"/>
</svg>
