<svg width="173" height="173" viewBox="0 0 173 173" fill="none" xmlns="http://www.w3.org/2000/svg">
<path d="M86.5 86.5C95.103 86.5 103.354 83.0825 109.437 76.9993C115.52 70.9161 118.938 62.6655 118.938 54.0625C118.938 45.4595 115.52 37.2089 109.437 31.1257C103.354 25.0425 95.103 21.625 86.5 21.625C77.897 21.625 69.6464 25.0425 63.5632 31.1257C57.48 37.2089 54.0625 45.4595 54.0625 54.0625C54.0625 62.6655 57.48 70.9161 63.5632 76.9993C69.6464 83.0825 77.897 86.5 86.5 86.5ZM108.125 54.0625C108.125 59.7978 105.847 65.2982 101.791 69.3537C97.7357 73.4092 92.2353 75.6875 86.5 75.6875C80.7647 75.6875 75.2643 73.4092 71.2088 69.3537C67.1533 65.2982 64.875 59.7978 64.875 54.0625C64.875 48.3272 67.1533 42.8268 71.2088 38.7713C75.2643 34.7158 80.7647 32.4375 86.5 32.4375C92.2353 32.4375 97.7357 34.7158 101.791 38.7713C105.847 42.8268 108.125 48.3272 108.125 54.0625ZM151.375 140.562C151.375 151.375 140.562 151.375 140.562 151.375H32.4375C32.4375 151.375 21.625 151.375 21.625 140.562C21.625 129.75 32.4375 97.3125 86.5 97.3125C140.562 97.3125 151.375 129.75 151.375 140.562ZM140.562 140.519C140.552 137.859 138.897 129.858 131.567 122.527C124.517 115.477 111.25 108.125 86.5 108.125C61.7394 108.125 48.4833 115.477 41.4335 122.527C34.1026 129.858 32.4591 137.859 32.4375 140.519H140.562Z" fill="#002C77"/>
</svg>
