<svg width="100" height="100" viewBox="0 0 100 100" fill="none" xmlns="http://www.w3.org/2000/svg">
<path d="M71.875 90.625H6.25V77.5C6.25 75 7.8125 72.8125 10 71.875C16.25 69.0625 27.1875 65.625 43.75 65.625C49.0625 65.625 54.0625 65.9375 59.0625 66.5625C60.625 66.875 62.5 65.625 62.5 63.75C62.5 61.875 61.5625 60.3125 59.6875 60.3125C54.6875 59.6875 49.375 59.375 43.75 59.375C26.25 59.375 14.375 63.125 7.5 65.9375C2.8125 68.125 0 72.5 0 77.5V93.75C0 95.625 1.25 96.875 3.125 96.875H71.875C73.75 96.875 75 95.625 75 93.75C75 91.875 73.75 90.625 71.875 90.625Z" fill="white"/>
<path d="M43.75 53.125C58.125 53.125 68.75 38.125 68.75 25C68.75 11.25 57.5 0 43.75 0C30 0 18.75 11.25 18.75 25C18.75 38.125 29.375 53.125 43.75 53.125ZM43.75 6.25C54.0625 6.25 62.5 14.6875 62.5 25C62.5 35 54.375 46.875 43.75 46.875C33.125 46.875 25 35 25 25C25 14.6875 33.4375 6.25 43.75 6.25Z" fill="white"/>
<path d="M96.875 68.75H87.5V59.375C87.5 57.5 86.25 56.25 84.375 56.25C82.5 56.25 81.25 57.5 81.25 59.375V68.75H71.875C70 68.75 68.75 70 68.75 71.875C68.75 73.75 70 75 71.875 75H81.25V84.375C81.25 86.25 82.5 87.5 84.375 87.5C86.25 87.5 87.5 86.25 87.5 84.375V75H96.875C98.75 75 100 73.75 100 71.875C100 70 98.75 68.75 96.875 68.75Z" fill="white"/>
</svg>
