<svg width="100" height="100" viewBox="0 0 100 100" fill="none" xmlns="http://www.w3.org/2000/svg">
<path d="M78.125 3.125L39.4094 41.8375C33.7875 40.1344 27.7687 40.2313 22.2062 42.1219C16.6437 44.0094 11.8094 47.5938 8.3875 52.3719C4.96562 57.1469 3.125 62.875 3.125 68.75C3.125 76.2062 6.09062 83.3656 11.3625 88.6375C16.6344 93.9094 23.7938 96.875 31.25 96.875C37.125 96.875 42.8531 95.0313 47.6281 91.6094C52.4031 88.1875 55.9906 83.3531 57.8781 77.7906C59.7656 72.2281 59.8656 66.2094 58.1594 60.5875L65.625 53.125V46.875H71.875L96.875 21.875V3.125H78.125ZM90.625 19.2844L69.2875 40.625H59.375V50.5344L53.7406 56.1656L51.0906 58.8156L52.1781 62.4C52.8063 64.4688 53.125 66.6031 53.125 68.75C53.125 80.8125 43.3094 90.625 31.25 90.625C19.1906 90.625 9.375 80.8125 9.375 68.75C9.375 56.6875 19.1906 46.875 31.25 46.875C33.3937 46.875 35.5313 47.1938 37.5969 47.8188L41.1781 48.9062L43.8281 46.2563L80.7125 9.375H90.625V19.2844Z" fill="#002C77"/>
<path d="M18.75 75C18.75 73.3438 19.4094 71.7531 20.5812 70.5813C21.7531 69.4094 23.3438 68.75 25 68.75C26.6562 68.75 28.2469 69.4094 29.4187 70.5813C30.5906 71.7531 31.25 73.3438 31.25 75C31.25 76.6562 30.5906 78.2469 29.4187 79.4187C28.2469 80.5906 26.6562 81.25 25 81.25C23.3438 81.25 21.7531 80.5906 20.5812 79.4187C19.4094 78.2469 18.75 76.6562 18.75 75Z" fill="#002C77"/>
<path d="M64.5188 33.2719L83.2688 14.5219L85.4782 16.7313L66.7282 35.4813L64.5188 33.2719Z" fill="#002C77"/>
</svg>
