<svg width="100" height="100" viewBox="0 0 100 100" fill="none" xmlns="http://www.w3.org/2000/svg">
<path d="M28.125 70.5C26.3991 70.5 25 71.8991 25 73.625C25 75.3509 26.3991 76.75 28.125 76.75H71.875C73.6009 76.75 75 75.3509 75 73.625C75 71.8991 73.6009 70.5 71.875 70.5H28.125Z" fill="#002C77"/>
<path d="M25 54.875C25 53.1491 26.3991 51.75 28.125 51.75H71.875C73.6009 51.75 75 53.1491 75 54.875C75 56.6009 73.6009 58 71.875 58H28.125C26.3991 58 25 56.6009 25 54.875Z" fill="#002C77"/>
<path d="M28.125 33C26.3991 33 25 34.3991 25 36.125C25 37.8509 26.3991 39.25 28.125 39.25H46.875C48.6009 39.25 50 37.8509 50 36.125C50 34.3991 48.6009 33 46.875 33H28.125Z" fill="#002C77"/>
<path d="M87.5 28.125V87.5C87.5 94.4036 81.9036 100 75 100H25C18.0964 100 12.5 94.4036 12.5 87.5V12.5C12.5 5.59644 18.0964 0 25 0H59.375L87.5 28.125ZM68.75 28.125C63.5723 28.125 59.375 23.9277 59.375 18.75V6.25H25C21.5482 6.25 18.75 9.04822 18.75 12.5V87.5C18.75 90.9518 21.5482 93.75 25 93.75H75C78.4518 93.75 81.25 90.9518 81.25 87.5V28.125H68.75Z" fill="#002C77"/>
</svg>
